G04 EAGLE Gerber RS-274X export*
G75*
%MOMM*%
%FSLAX34Y34*%
%LPD*%
%INTop Copper*%
%IPPOS*%
%AMOC8*
5,1,8,0,0,1.08239X$1,22.5*%
G01*
%ADD10C,1.676400*%
%ADD11R,1.508000X1.508000*%
%ADD12C,1.508000*%
%ADD13R,1.600000X0.550000*%
%ADD14R,0.550000X1.600000*%
%ADD15P,1.649562X8X112.500000*%
%ADD16R,1.524000X1.524000*%
%ADD17P,1.429621X8X202.500000*%
%ADD18P,1.429621X8X22.500000*%
%ADD19P,1.429621X8X292.500000*%
%ADD20R,2.500000X2.000000*%
%ADD21R,3.300000X2.000000*%
%ADD22R,3.100000X0.500000*%
%ADD23P,1.732040X8X292.500000*%
%ADD24C,1.320800*%
%ADD25P,1.732040X8X22.500000*%
%ADD26C,1.422400*%
%ADD27P,1.732040X8X202.500000*%
%ADD28C,1.650000*%
%ADD29P,1.429621X8X112.500000*%
%ADD30C,1.524000*%
%ADD31C,1.000000*%
%ADD32C,0.203200*%
%ADD33C,0.685800*%


D10*
X124500Y345500D03*
X149900Y345500D03*
X175300Y345500D03*
X200700Y345500D03*
X226100Y345500D03*
X251500Y345500D03*
X276900Y345500D03*
X302300Y345500D03*
X327700Y345500D03*
X353100Y345500D03*
X378500Y345500D03*
X403900Y345500D03*
X429300Y345500D03*
X454700Y345500D03*
X480100Y345500D03*
X505500Y345500D03*
D11*
X114300Y419100D03*
D12*
X139700Y419100D03*
X165100Y419100D03*
X190500Y419100D03*
X215900Y419100D03*
X241300Y419100D03*
X266700Y419100D03*
X292100Y419100D03*
X317500Y419100D03*
X342900Y419100D03*
X368300Y419100D03*
X393700Y419100D03*
X419100Y419100D03*
X444500Y419100D03*
X469900Y419100D03*
X495300Y419100D03*
D11*
X495300Y533400D03*
D12*
X495300Y508000D03*
X495300Y482600D03*
X495300Y457200D03*
D13*
X631300Y536000D03*
X631300Y528000D03*
X631300Y520000D03*
X631300Y512000D03*
X631300Y504000D03*
X631300Y496000D03*
X631300Y488000D03*
X631300Y480000D03*
D14*
X645100Y466200D03*
X653100Y466200D03*
X661100Y466200D03*
X669100Y466200D03*
X677100Y466200D03*
X685100Y466200D03*
X693100Y466200D03*
X701100Y466200D03*
D13*
X714900Y480000D03*
X714900Y488000D03*
X714900Y496000D03*
X714900Y504000D03*
X714900Y512000D03*
X714900Y520000D03*
X714900Y528000D03*
X714900Y536000D03*
D14*
X701100Y549800D03*
X693100Y549800D03*
X685100Y549800D03*
X677100Y549800D03*
X669100Y549800D03*
X661100Y549800D03*
X653100Y549800D03*
X645100Y549800D03*
D15*
X825500Y469900D03*
X825500Y495300D03*
X825500Y520700D03*
D16*
X850900Y469900D03*
D15*
X850900Y495300D03*
X850900Y520700D03*
D17*
X457200Y965200D03*
X406400Y965200D03*
D18*
X63500Y965200D03*
X114300Y965200D03*
D19*
X368300Y711200D03*
X368300Y660400D03*
X127000Y711200D03*
X127000Y660400D03*
D17*
X228600Y965200D03*
X177800Y965200D03*
X571500Y965200D03*
X520700Y965200D03*
D18*
X292100Y965200D03*
X342900Y965200D03*
D17*
X685800Y965200D03*
X635000Y965200D03*
D20*
X919000Y958900D03*
X919000Y869900D03*
D21*
X860000Y958900D03*
X860000Y869900D03*
D22*
X859000Y898400D03*
X859000Y906400D03*
X859000Y914400D03*
X859000Y922400D03*
X859000Y930400D03*
D23*
X533400Y520700D03*
X533400Y495300D03*
D17*
X609600Y406400D03*
X584200Y406400D03*
X558800Y406400D03*
X533400Y406400D03*
D24*
X722630Y406400D03*
X674370Y406400D03*
D25*
X584200Y609600D03*
X736600Y609600D03*
D26*
X818388Y698500D02*
X832612Y698500D01*
X832612Y673100D02*
X818388Y673100D01*
X818388Y647700D02*
X832612Y647700D01*
D27*
X812800Y736600D03*
X736600Y736600D03*
X774700Y546100D03*
X571500Y546100D03*
D28*
X817250Y812800D02*
X833750Y812800D01*
X833750Y787400D02*
X817250Y787400D01*
X817250Y762000D02*
X833750Y762000D01*
D10*
X876300Y812800D03*
X876300Y762000D03*
D23*
X800100Y469900D03*
X800100Y419100D03*
D29*
X736600Y635000D03*
X736600Y685800D03*
D30*
X64008Y848106D02*
X48768Y848106D01*
X48768Y802894D02*
X64008Y802894D01*
X113792Y848106D02*
X129032Y848106D01*
X129032Y802894D02*
X113792Y802894D01*
X163068Y848106D02*
X178308Y848106D01*
X178308Y802894D02*
X163068Y802894D01*
X228092Y848106D02*
X243332Y848106D01*
X243332Y802894D02*
X228092Y802894D01*
X277368Y848106D02*
X292608Y848106D01*
X292608Y802894D02*
X277368Y802894D01*
X342392Y848106D02*
X357632Y848106D01*
X357632Y802894D02*
X342392Y802894D01*
X620268Y848106D02*
X635508Y848106D01*
X635508Y802894D02*
X620268Y802894D01*
X685292Y848106D02*
X700532Y848106D01*
X700532Y802894D02*
X685292Y802894D01*
X521208Y848106D02*
X505968Y848106D01*
X505968Y802894D02*
X521208Y802894D01*
X570992Y848106D02*
X586232Y848106D01*
X586232Y802894D02*
X570992Y802894D01*
X244094Y660908D02*
X244094Y645668D01*
X289306Y645668D02*
X289306Y660908D01*
X244094Y710692D02*
X244094Y725932D01*
X289306Y725932D02*
X289306Y710692D01*
X391668Y848106D02*
X406908Y848106D01*
X406908Y802894D02*
X391668Y802894D01*
X456692Y848106D02*
X471932Y848106D01*
X471932Y802894D02*
X456692Y802894D01*
X485394Y660908D02*
X485394Y645668D01*
X530606Y645668D02*
X530606Y660908D01*
X485394Y710692D02*
X485394Y725932D01*
X530606Y725932D02*
X530606Y710692D01*
D18*
X76200Y901700D03*
X101600Y901700D03*
X190500Y901700D03*
X215900Y901700D03*
X304800Y901700D03*
X330200Y901700D03*
X647700Y901700D03*
X673100Y901700D03*
X533400Y901700D03*
X558800Y901700D03*
D29*
X431800Y673100D03*
X431800Y698500D03*
X190500Y673100D03*
X190500Y698500D03*
D18*
X419100Y901700D03*
X444500Y901700D03*
D31*
X25400Y25400D03*
X863600Y25400D03*
X25400Y965200D03*
D18*
X800100Y558800D03*
X825500Y558800D03*
X800100Y609600D03*
X825500Y609600D03*
D32*
X762000Y512000D02*
X714900Y512000D01*
X714900Y504000D01*
X631300Y504000D01*
D33*
X762000Y512000D03*
D32*
X631300Y504000D02*
X611123Y504000D01*
D33*
X611123Y504000D03*
D32*
X800100Y558800D02*
X800100Y609600D01*
X800100Y558800D02*
X785749Y558800D01*
X785749Y512000D01*
X762000Y512000D01*
X203200Y673100D02*
X203200Y688086D01*
X203200Y673100D02*
X190500Y673100D01*
X203200Y688086D02*
X263906Y688086D01*
X263906Y718312D02*
X289306Y718312D01*
X263906Y718312D02*
X263906Y688086D01*
X393700Y698500D02*
X431800Y698500D01*
X393700Y698500D02*
X393700Y660400D01*
X368300Y660400D01*
X419100Y889000D02*
X419100Y901700D01*
X419100Y889000D02*
X434086Y889000D01*
X434086Y828294D01*
X464312Y828294D02*
X464312Y802894D01*
X464312Y828294D02*
X434086Y828294D01*
X578612Y828294D02*
X578612Y802894D01*
X578612Y828294D02*
X548386Y828294D01*
X548386Y889000D02*
X533400Y889000D01*
X533400Y901700D01*
X548386Y889000D02*
X548386Y828294D01*
X266700Y419100D02*
X266700Y355700D01*
X276900Y345500D01*
X292100Y355700D02*
X292100Y419100D01*
X292100Y355700D02*
X302300Y345500D01*
X317500Y355700D02*
X327700Y345500D01*
X317500Y355700D02*
X317500Y419100D01*
X342900Y419100D02*
X342900Y355700D01*
X353100Y345500D01*
X368300Y355700D02*
X368300Y419100D01*
X368300Y355700D02*
X378500Y345500D01*
X393700Y355700D02*
X393700Y419100D01*
X393700Y355700D02*
X403900Y345500D01*
X419100Y355700D02*
X429300Y345500D01*
X419100Y355700D02*
X419100Y419100D01*
X444500Y419100D02*
X444500Y355700D01*
X454700Y345500D01*
X190500Y355700D02*
X190500Y419100D01*
X190500Y355700D02*
X200700Y345500D01*
X215900Y355700D02*
X215900Y419100D01*
X215900Y355700D02*
X226100Y345500D01*
X241300Y355700D02*
X241300Y419100D01*
X241300Y355700D02*
X251500Y345500D01*
X701100Y549800D02*
X701100Y762000D01*
X513588Y774700D02*
X513588Y802894D01*
X513588Y774700D02*
X584200Y774700D01*
X584200Y762000D01*
X701100Y762000D01*
X714900Y536000D02*
X736600Y536000D01*
X736600Y558800D01*
X711200Y558800D01*
X627888Y774700D02*
X627888Y802894D01*
X627888Y774700D02*
X711200Y774700D01*
X711200Y558800D01*
X693100Y549800D02*
X693100Y653288D01*
X530606Y653288D01*
X653100Y584200D02*
X653100Y549800D01*
X170688Y774700D02*
X170688Y802894D01*
X170688Y774700D02*
X38100Y774700D01*
X38100Y584200D01*
X653100Y584200D01*
X661100Y596200D02*
X661100Y549800D01*
X661100Y596200D02*
X660400Y596900D01*
X284988Y762000D02*
X50800Y762000D01*
X50800Y596900D01*
X660400Y596900D01*
X284988Y762000D02*
X284988Y802894D01*
X714900Y528000D02*
X749300Y528000D01*
X749300Y787400D01*
X368300Y787400D02*
X330200Y787400D01*
X469900Y787400D02*
X482600Y787400D01*
X469900Y787400D02*
X444500Y787400D01*
X558800Y787400D02*
X596900Y787400D01*
X673100Y787400D02*
X749300Y787400D01*
X254000Y787400D02*
X217297Y787400D01*
X284988Y819150D02*
X284988Y848106D01*
X56388Y848106D02*
X56388Y819150D01*
X101600Y787400D02*
X139700Y787400D01*
X170688Y819150D02*
X170688Y848106D01*
X170688Y819150D02*
X217297Y819150D01*
X217297Y787400D01*
X139700Y787400D02*
X139700Y819150D01*
X170688Y819150D01*
X513588Y819150D02*
X513588Y848106D01*
X558800Y819150D02*
X558800Y787400D01*
X558800Y819150D02*
X513588Y819150D01*
X482600Y819150D02*
X482600Y787400D01*
X482600Y819150D02*
X513588Y819150D01*
X254000Y819150D02*
X254000Y787400D01*
X254000Y819150D02*
X284988Y819150D01*
X330200Y819150D02*
X330200Y787400D01*
X330200Y819150D02*
X284988Y819150D01*
X627888Y819150D02*
X627888Y848106D01*
X596900Y819150D02*
X596900Y787400D01*
X596900Y819150D02*
X627888Y819150D01*
X673100Y819150D02*
X673100Y787400D01*
X673100Y819150D02*
X627888Y819150D01*
X265430Y653288D02*
X244094Y653288D01*
X265430Y653288D02*
X265430Y672592D01*
X320040Y640588D02*
X485394Y640588D01*
X485394Y653288D01*
X320040Y672592D02*
X265430Y672592D01*
X320040Y672592D02*
X320040Y640588D01*
X485394Y653288D02*
X485394Y660400D01*
X508000Y660400D01*
X508000Y673100D01*
X558800Y673100D01*
X558800Y762000D02*
X469900Y762000D01*
X469900Y787400D01*
X558800Y762000D02*
X558800Y673100D01*
X101600Y787400D02*
X101600Y819150D01*
X56388Y819150D01*
X444500Y813562D02*
X444500Y787400D01*
X444500Y813562D02*
X399288Y813562D01*
X368300Y813562D02*
X368300Y787400D01*
X399288Y813562D02*
X399288Y848106D01*
X399288Y813562D02*
X368300Y813562D01*
X850900Y520700D02*
X863600Y520700D01*
X863600Y736600D01*
X812800Y736600D01*
X685100Y635762D02*
X685100Y549800D01*
X289306Y622300D02*
X289306Y653288D01*
X546862Y635762D02*
X685100Y635762D01*
X546862Y635762D02*
X546862Y622300D01*
X289306Y622300D01*
X814832Y484632D02*
X814832Y457200D01*
X836168Y484632D02*
X836168Y495300D01*
X836168Y484632D02*
X814832Y484632D01*
X836168Y495300D02*
X850900Y495300D01*
X814832Y457200D02*
X784800Y457200D01*
X784800Y480000D02*
X714900Y480000D01*
X784800Y480000D02*
X784800Y457200D01*
X693100Y466200D02*
X693100Y431800D01*
X774700Y431800D01*
X774700Y419100D01*
X800100Y419100D01*
X850900Y444500D02*
X850900Y469900D01*
X701100Y466200D02*
X701100Y444500D01*
X850900Y444500D01*
X584200Y482600D02*
X495300Y482600D01*
X584200Y482600D02*
X584200Y496000D01*
X631300Y496000D01*
X677100Y549800D02*
X677100Y622300D01*
X399288Y749300D02*
X399288Y802894D01*
X399288Y749300D02*
X63500Y749300D01*
X63500Y609600D01*
X558800Y622300D02*
X677100Y622300D01*
X558800Y622300D02*
X558800Y609600D01*
X63500Y609600D01*
X609600Y480000D02*
X631300Y480000D01*
X609600Y480000D02*
X609600Y431800D01*
X635000Y431800D01*
X635000Y406400D01*
X609600Y406400D01*
X635000Y406400D02*
X674370Y406400D01*
X631300Y488000D02*
X596900Y488000D01*
X596900Y431800D01*
X558800Y431800D02*
X558800Y406400D01*
X722630Y406400D02*
X722630Y381000D01*
X596900Y381000D01*
X596900Y431800D01*
X558800Y431800D01*
X584200Y609600D02*
X669100Y609600D01*
X669100Y549800D01*
X825500Y647700D02*
X850900Y647700D01*
X850900Y533400D01*
X825500Y533400D01*
X825500Y520700D01*
X825500Y495300D02*
X800100Y495300D01*
X800100Y469900D01*
X736600Y609600D02*
X736600Y635000D01*
X76200Y889000D02*
X76200Y901700D01*
X76200Y889000D02*
X101600Y889000D01*
X101600Y828294D01*
X121412Y828294D02*
X121412Y802894D01*
X121412Y828294D02*
X101600Y828294D01*
X692912Y828294D02*
X692912Y802894D01*
X692912Y828294D02*
X662686Y828294D01*
X662686Y889000D02*
X647700Y889000D01*
X647700Y901700D01*
X662686Y889000D02*
X662686Y828294D01*
X571500Y495300D02*
X533400Y495300D01*
X571500Y495300D02*
X571500Y512000D01*
X631300Y512000D01*
X508000Y444500D02*
X469900Y444500D01*
X508000Y444500D02*
X508000Y368300D01*
X469900Y444500D02*
X469900Y495300D01*
X533400Y495300D01*
X863600Y482600D02*
X863600Y368300D01*
X508000Y368300D01*
X863600Y482600D02*
X863600Y508000D01*
X571500Y546100D02*
X571500Y558800D01*
X469900Y558800D01*
X469900Y495300D01*
X791100Y488000D02*
X791100Y508000D01*
X791100Y488000D02*
X714900Y488000D01*
X791100Y508000D02*
X812800Y508000D01*
X863600Y508000D01*
X825500Y558800D02*
X825500Y609600D01*
X836168Y480568D02*
X825500Y469900D01*
X836168Y480568D02*
X837851Y480568D01*
X839883Y482600D01*
X863600Y482600D01*
X825500Y558800D02*
X812800Y558800D01*
X812800Y508000D01*
D33*
X787400Y698500D03*
D32*
X825500Y930400D02*
X859000Y930400D01*
X825500Y698500D02*
X787400Y698500D01*
D33*
X825500Y930400D03*
D32*
X825500Y812800D02*
X787400Y812800D01*
X787400Y898400D01*
X859000Y898400D01*
X825500Y762000D02*
X787400Y762000D01*
X787400Y723900D01*
X850900Y723900D01*
X774700Y660400D02*
X774700Y546100D01*
X774700Y660400D02*
X850900Y660400D01*
X850900Y723900D01*
X114300Y419100D02*
X114300Y355700D01*
X124500Y345500D01*
X139700Y355700D02*
X139700Y419100D01*
X139700Y355700D02*
X149900Y345500D01*
X165100Y355700D02*
X165100Y419100D01*
X165100Y355700D02*
X175300Y345500D01*
X495300Y508000D02*
X558800Y508000D01*
X558800Y520000D01*
X631300Y520000D01*
X533400Y533400D02*
X495300Y533400D01*
X533400Y533400D02*
X533400Y520700D01*
X736600Y685800D02*
X736600Y736600D01*
X101600Y939800D02*
X63500Y939800D01*
X63500Y965200D01*
X101600Y939800D02*
X101600Y901700D01*
X645100Y571500D02*
X645100Y549800D01*
X645100Y571500D02*
X25400Y571500D01*
X25400Y802894D01*
X56388Y802894D01*
X177800Y939800D02*
X215900Y939800D01*
X177800Y939800D02*
X177800Y965200D01*
X215900Y939800D02*
X215900Y901700D01*
X292100Y939800D02*
X330200Y939800D01*
X292100Y939800D02*
X292100Y965200D01*
X330200Y939800D02*
X330200Y901700D01*
X635000Y939800D02*
X673100Y939800D01*
X635000Y939800D02*
X635000Y965200D01*
X673100Y939800D02*
X673100Y901700D01*
X558800Y939800D02*
X520700Y939800D01*
X520700Y965200D01*
X558800Y939800D02*
X558800Y901700D01*
X444500Y673100D02*
X431800Y673100D01*
X444500Y673100D02*
X444500Y688086D01*
X505206Y688086D01*
X505206Y718312D02*
X530606Y718312D01*
X505206Y718312D02*
X505206Y688086D01*
X190500Y698500D02*
X152400Y698500D01*
X152400Y660400D01*
X127000Y660400D01*
X406400Y939800D02*
X444500Y939800D01*
X406400Y939800D02*
X406400Y965200D01*
X444500Y939800D02*
X444500Y901700D01*
X205486Y889000D02*
X190500Y889000D01*
X190500Y901700D01*
X205486Y889000D02*
X205486Y828294D01*
X235712Y828294D02*
X235712Y802894D01*
X235712Y828294D02*
X205486Y828294D01*
X304800Y889000D02*
X319786Y889000D01*
X304800Y889000D02*
X304800Y901700D01*
X319786Y889000D02*
X319786Y828294D01*
X350012Y828294D02*
X350012Y802894D01*
X350012Y828294D02*
X319786Y828294D01*
M02*
