G04 EAGLE Gerber RS-274X export*
G75*
%MOMM*%
%FSLAX34Y34*%
%LPD*%
%INBottom Copper*%
%IPPOS*%
%AMOC8*
5,1,8,0,0,1.08239X$1,22.5*%
G01*
%ADD10C,1.676400*%
%ADD11R,1.508000X1.508000*%
%ADD12C,1.508000*%
%ADD13P,1.649562X8X112.500000*%
%ADD14R,1.524000X1.524000*%
%ADD15P,1.429621X8X202.500000*%
%ADD16P,1.429621X8X22.500000*%
%ADD17P,1.429621X8X292.500000*%
%ADD18P,1.732040X8X292.500000*%
%ADD19C,1.320800*%
%ADD20P,1.732040X8X22.500000*%
%ADD21C,1.422400*%
%ADD22P,1.732040X8X202.500000*%
%ADD23C,1.650000*%
%ADD24P,1.429621X8X112.500000*%
%ADD25C,1.524000*%
%ADD26C,0.203200*%
%ADD27C,0.685800*%

G36*
X882787Y4065D02*
X882787Y4065D01*
X882791Y4065D01*
X882986Y4085D01*
X883183Y4105D01*
X883187Y4106D01*
X883192Y4107D01*
X883381Y4166D01*
X883567Y4223D01*
X883572Y4225D01*
X883576Y4226D01*
X883751Y4322D01*
X883922Y4415D01*
X883925Y4417D01*
X883929Y4420D01*
X884082Y4548D01*
X884231Y4672D01*
X884234Y4676D01*
X884237Y4679D01*
X884360Y4834D01*
X884483Y4986D01*
X884485Y4990D01*
X884488Y4994D01*
X884579Y5171D01*
X884669Y5343D01*
X884670Y5348D01*
X884672Y5352D01*
X884726Y5543D01*
X884780Y5730D01*
X884780Y5735D01*
X884782Y5740D01*
X884813Y6070D01*
X891031Y489463D01*
X891030Y489475D01*
X891031Y489489D01*
X891031Y754828D01*
X891031Y754832D01*
X891031Y754837D01*
X891011Y755028D01*
X890991Y755228D01*
X890990Y755233D01*
X890990Y755237D01*
X890932Y755423D01*
X890873Y755613D01*
X890871Y755617D01*
X890870Y755621D01*
X890776Y755793D01*
X890681Y755967D01*
X890679Y755971D01*
X890676Y755975D01*
X890549Y756126D01*
X890424Y756277D01*
X890420Y756279D01*
X890417Y756283D01*
X890263Y756406D01*
X890110Y756529D01*
X890106Y756531D01*
X890103Y756534D01*
X889928Y756623D01*
X889753Y756714D01*
X889748Y756716D01*
X889744Y756718D01*
X889557Y756771D01*
X889366Y756826D01*
X889361Y756826D01*
X889357Y756827D01*
X889164Y756842D01*
X888964Y756859D01*
X888960Y756858D01*
X888956Y756858D01*
X888763Y756835D01*
X888565Y756812D01*
X888560Y756810D01*
X888556Y756810D01*
X888373Y756749D01*
X888182Y756687D01*
X888178Y756685D01*
X888174Y756683D01*
X888005Y756587D01*
X887831Y756489D01*
X887828Y756486D01*
X887824Y756484D01*
X887675Y756354D01*
X887527Y756226D01*
X887524Y756222D01*
X887520Y756219D01*
X887400Y756063D01*
X887280Y755908D01*
X887278Y755904D01*
X887275Y755900D01*
X887123Y755605D01*
X886852Y754949D01*
X883351Y751448D01*
X883250Y751407D01*
X878776Y749553D01*
X873824Y749553D01*
X869249Y751448D01*
X865748Y754949D01*
X863853Y759524D01*
X863853Y764476D01*
X865748Y769051D01*
X869249Y772552D01*
X873824Y774447D01*
X878776Y774447D01*
X883351Y772552D01*
X886852Y769051D01*
X887123Y768395D01*
X887125Y768391D01*
X887127Y768387D01*
X887221Y768213D01*
X887314Y768040D01*
X887316Y768037D01*
X887319Y768033D01*
X887443Y767884D01*
X887570Y767730D01*
X887573Y767727D01*
X887576Y767723D01*
X887729Y767601D01*
X887883Y767476D01*
X887887Y767474D01*
X887890Y767471D01*
X888065Y767380D01*
X888239Y767289D01*
X888243Y767288D01*
X888247Y767286D01*
X888437Y767231D01*
X888626Y767176D01*
X888630Y767175D01*
X888634Y767174D01*
X888832Y767158D01*
X889027Y767141D01*
X889031Y767142D01*
X889036Y767141D01*
X889233Y767165D01*
X889427Y767186D01*
X889431Y767188D01*
X889435Y767188D01*
X889624Y767250D01*
X889810Y767310D01*
X889814Y767312D01*
X889818Y767313D01*
X889991Y767411D01*
X890162Y767506D01*
X890165Y767509D01*
X890169Y767511D01*
X890318Y767639D01*
X890467Y767768D01*
X890470Y767771D01*
X890474Y767774D01*
X890593Y767928D01*
X890716Y768085D01*
X890718Y768089D01*
X890720Y768092D01*
X890808Y768269D01*
X890896Y768444D01*
X890898Y768449D01*
X890900Y768453D01*
X890951Y768646D01*
X891003Y768833D01*
X891003Y768837D01*
X891004Y768842D01*
X891031Y769172D01*
X891031Y805628D01*
X891031Y805632D01*
X891031Y805637D01*
X891011Y805828D01*
X890991Y806028D01*
X890990Y806033D01*
X890990Y806037D01*
X890932Y806223D01*
X890873Y806413D01*
X890871Y806417D01*
X890870Y806421D01*
X890776Y806593D01*
X890681Y806767D01*
X890679Y806771D01*
X890676Y806775D01*
X890549Y806926D01*
X890424Y807077D01*
X890420Y807079D01*
X890417Y807083D01*
X890263Y807206D01*
X890110Y807329D01*
X890106Y807331D01*
X890103Y807334D01*
X889928Y807423D01*
X889753Y807514D01*
X889748Y807516D01*
X889744Y807518D01*
X889557Y807571D01*
X889366Y807626D01*
X889361Y807626D01*
X889357Y807627D01*
X889164Y807642D01*
X888964Y807659D01*
X888960Y807658D01*
X888956Y807658D01*
X888763Y807635D01*
X888565Y807612D01*
X888560Y807610D01*
X888556Y807610D01*
X888373Y807549D01*
X888182Y807487D01*
X888178Y807485D01*
X888174Y807483D01*
X888005Y807387D01*
X887831Y807289D01*
X887828Y807286D01*
X887824Y807284D01*
X887675Y807154D01*
X887527Y807026D01*
X887524Y807022D01*
X887520Y807019D01*
X887400Y806863D01*
X887280Y806708D01*
X887278Y806704D01*
X887275Y806700D01*
X887123Y806405D01*
X886852Y805749D01*
X883351Y802248D01*
X878776Y800353D01*
X873824Y800353D01*
X869249Y802248D01*
X865748Y805749D01*
X863853Y810324D01*
X863853Y815276D01*
X865748Y819851D01*
X869249Y823352D01*
X872861Y824848D01*
X873824Y825247D01*
X878776Y825247D01*
X883351Y823352D01*
X886852Y819851D01*
X887123Y819195D01*
X887125Y819191D01*
X887127Y819187D01*
X887221Y819013D01*
X887314Y818840D01*
X887316Y818837D01*
X887319Y818833D01*
X887443Y818684D01*
X887570Y818530D01*
X887573Y818527D01*
X887576Y818523D01*
X887729Y818401D01*
X887883Y818276D01*
X887887Y818274D01*
X887890Y818271D01*
X888065Y818180D01*
X888239Y818089D01*
X888243Y818088D01*
X888247Y818086D01*
X888437Y818031D01*
X888626Y817976D01*
X888630Y817975D01*
X888634Y817974D01*
X888832Y817958D01*
X889027Y817941D01*
X889031Y817942D01*
X889036Y817941D01*
X889233Y817965D01*
X889427Y817986D01*
X889431Y817988D01*
X889435Y817988D01*
X889624Y818050D01*
X889810Y818110D01*
X889814Y818112D01*
X889818Y818113D01*
X889991Y818211D01*
X890162Y818306D01*
X890165Y818309D01*
X890169Y818311D01*
X890318Y818439D01*
X890467Y818568D01*
X890470Y818571D01*
X890474Y818574D01*
X890593Y818728D01*
X890716Y818885D01*
X890718Y818889D01*
X890720Y818892D01*
X890808Y819069D01*
X890896Y819244D01*
X890898Y819249D01*
X890900Y819253D01*
X890951Y819446D01*
X891003Y819633D01*
X891003Y819637D01*
X891004Y819642D01*
X891031Y819972D01*
X891031Y881804D01*
X891029Y881822D01*
X891031Y881840D01*
X891010Y882022D01*
X890991Y882205D01*
X890986Y882222D01*
X890984Y882239D01*
X890927Y882414D01*
X890873Y882590D01*
X890865Y882605D01*
X890859Y882622D01*
X890769Y882782D01*
X890681Y882944D01*
X890670Y882957D01*
X890661Y882973D01*
X890541Y883112D01*
X890424Y883253D01*
X890410Y883264D01*
X890398Y883278D01*
X890253Y883390D01*
X890110Y883505D01*
X890094Y883513D01*
X890080Y883524D01*
X889915Y883606D01*
X889753Y883691D01*
X889736Y883696D01*
X889720Y883704D01*
X889541Y883751D01*
X889366Y883802D01*
X889348Y883804D01*
X889331Y883808D01*
X889000Y883835D01*
X887296Y883835D01*
X884148Y885139D01*
X881739Y887548D01*
X880435Y890696D01*
X880435Y894104D01*
X881739Y897252D01*
X884148Y899661D01*
X887296Y900965D01*
X889000Y900965D01*
X889018Y900967D01*
X889036Y900965D01*
X889218Y900986D01*
X889401Y901005D01*
X889418Y901010D01*
X889435Y901012D01*
X889610Y901069D01*
X889786Y901123D01*
X889801Y901131D01*
X889818Y901137D01*
X889978Y901227D01*
X890140Y901315D01*
X890153Y901326D01*
X890169Y901335D01*
X890308Y901455D01*
X890449Y901572D01*
X890460Y901586D01*
X890474Y901598D01*
X890586Y901743D01*
X890701Y901886D01*
X890709Y901902D01*
X890720Y901916D01*
X890802Y902081D01*
X890887Y902243D01*
X890892Y902260D01*
X890900Y902276D01*
X890947Y902455D01*
X890998Y902630D01*
X891000Y902648D01*
X891004Y902665D01*
X891031Y902996D01*
X891031Y925804D01*
X891029Y925822D01*
X891031Y925840D01*
X891010Y926022D01*
X890991Y926205D01*
X890986Y926222D01*
X890984Y926239D01*
X890927Y926414D01*
X890873Y926590D01*
X890865Y926605D01*
X890859Y926622D01*
X890769Y926782D01*
X890681Y926944D01*
X890670Y926957D01*
X890661Y926973D01*
X890541Y927112D01*
X890424Y927253D01*
X890410Y927264D01*
X890398Y927278D01*
X890253Y927390D01*
X890110Y927505D01*
X890094Y927513D01*
X890080Y927524D01*
X889915Y927606D01*
X889753Y927691D01*
X889736Y927696D01*
X889720Y927704D01*
X889541Y927751D01*
X889366Y927802D01*
X889348Y927804D01*
X889331Y927808D01*
X889000Y927835D01*
X887296Y927835D01*
X884148Y929139D01*
X881739Y931548D01*
X880435Y934696D01*
X880435Y938104D01*
X881739Y941252D01*
X884148Y943661D01*
X886637Y944691D01*
X886637Y944692D01*
X887296Y944965D01*
X889000Y944965D01*
X889018Y944967D01*
X889036Y944965D01*
X889218Y944986D01*
X889401Y945005D01*
X889418Y945010D01*
X889435Y945012D01*
X889610Y945069D01*
X889786Y945123D01*
X889801Y945131D01*
X889818Y945137D01*
X889978Y945227D01*
X890140Y945315D01*
X890153Y945326D01*
X890169Y945335D01*
X890308Y945455D01*
X890449Y945572D01*
X890460Y945586D01*
X890474Y945598D01*
X890586Y945743D01*
X890701Y945886D01*
X890709Y945902D01*
X890720Y945916D01*
X890802Y946081D01*
X890887Y946243D01*
X890892Y946260D01*
X890900Y946276D01*
X890947Y946455D01*
X890998Y946630D01*
X891000Y946648D01*
X891004Y946665D01*
X891031Y946996D01*
X891031Y981204D01*
X891029Y981222D01*
X891031Y981240D01*
X891010Y981422D01*
X890991Y981605D01*
X890986Y981622D01*
X890984Y981639D01*
X890927Y981814D01*
X890873Y981990D01*
X890865Y982005D01*
X890859Y982022D01*
X890769Y982182D01*
X890681Y982344D01*
X890670Y982357D01*
X890661Y982373D01*
X890541Y982512D01*
X890424Y982653D01*
X890410Y982664D01*
X890398Y982678D01*
X890253Y982790D01*
X890110Y982905D01*
X890094Y982913D01*
X890080Y982924D01*
X889915Y983006D01*
X889753Y983091D01*
X889736Y983096D01*
X889720Y983104D01*
X889541Y983151D01*
X889366Y983202D01*
X889348Y983204D01*
X889331Y983208D01*
X889000Y983235D01*
X6096Y983235D01*
X6078Y983233D01*
X6060Y983235D01*
X5878Y983214D01*
X5695Y983195D01*
X5678Y983190D01*
X5661Y983188D01*
X5486Y983131D01*
X5310Y983077D01*
X5295Y983069D01*
X5278Y983063D01*
X5118Y982973D01*
X4956Y982885D01*
X4943Y982874D01*
X4927Y982865D01*
X4788Y982745D01*
X4647Y982628D01*
X4636Y982614D01*
X4622Y982602D01*
X4510Y982457D01*
X4395Y982314D01*
X4387Y982298D01*
X4376Y982284D01*
X4294Y982119D01*
X4209Y981957D01*
X4204Y981940D01*
X4196Y981924D01*
X4149Y981745D01*
X4098Y981570D01*
X4096Y981552D01*
X4092Y981535D01*
X4065Y981204D01*
X4065Y6096D01*
X4067Y6078D01*
X4065Y6060D01*
X4086Y5878D01*
X4105Y5695D01*
X4110Y5678D01*
X4112Y5661D01*
X4169Y5486D01*
X4223Y5310D01*
X4231Y5295D01*
X4237Y5278D01*
X4327Y5118D01*
X4415Y4956D01*
X4426Y4943D01*
X4435Y4927D01*
X4555Y4788D01*
X4672Y4647D01*
X4686Y4636D01*
X4698Y4622D01*
X4843Y4510D01*
X4986Y4395D01*
X5002Y4387D01*
X5016Y4376D01*
X5181Y4294D01*
X5343Y4209D01*
X5360Y4204D01*
X5376Y4196D01*
X5555Y4149D01*
X5730Y4098D01*
X5748Y4096D01*
X5765Y4092D01*
X6096Y4065D01*
X882782Y4065D01*
X882787Y4065D01*
G37*
%LPC*%
G36*
X820660Y445515D02*
X820660Y445515D01*
X813815Y452360D01*
X813815Y461648D01*
X813814Y461657D01*
X813815Y461666D01*
X813794Y461858D01*
X813775Y462049D01*
X813773Y462057D01*
X813772Y462066D01*
X813714Y462248D01*
X813657Y462433D01*
X813653Y462441D01*
X813650Y462450D01*
X813557Y462618D01*
X813465Y462787D01*
X813460Y462794D01*
X813455Y462802D01*
X813331Y462949D01*
X813208Y463097D01*
X813201Y463102D01*
X813195Y463109D01*
X813044Y463228D01*
X812894Y463349D01*
X812886Y463353D01*
X812879Y463359D01*
X812706Y463447D01*
X812537Y463535D01*
X812528Y463537D01*
X812520Y463541D01*
X812334Y463593D01*
X812150Y463646D01*
X812141Y463647D01*
X812132Y463649D01*
X811939Y463663D01*
X811748Y463679D01*
X811740Y463678D01*
X811731Y463678D01*
X811538Y463654D01*
X811349Y463632D01*
X811340Y463629D01*
X811331Y463628D01*
X811148Y463567D01*
X810966Y463507D01*
X810958Y463503D01*
X810950Y463500D01*
X810783Y463404D01*
X810615Y463309D01*
X810608Y463303D01*
X810601Y463299D01*
X810348Y463084D01*
X805098Y457834D01*
X795102Y457834D01*
X788034Y464902D01*
X788034Y474898D01*
X795102Y481966D01*
X805098Y481966D01*
X810348Y476716D01*
X810355Y476710D01*
X810360Y476703D01*
X810510Y476583D01*
X810659Y476461D01*
X810667Y476457D01*
X810674Y476451D01*
X810844Y476362D01*
X811015Y476272D01*
X811024Y476270D01*
X811031Y476265D01*
X811216Y476212D01*
X811401Y476157D01*
X811410Y476156D01*
X811418Y476154D01*
X811610Y476138D01*
X811802Y476121D01*
X811811Y476122D01*
X811820Y476121D01*
X812009Y476143D01*
X812202Y476164D01*
X812211Y476167D01*
X812219Y476168D01*
X812401Y476227D01*
X812586Y476286D01*
X812594Y476290D01*
X812602Y476293D01*
X812771Y476388D01*
X812938Y476481D01*
X812945Y476486D01*
X812953Y476491D01*
X813099Y476617D01*
X813245Y476741D01*
X813251Y476748D01*
X813258Y476754D01*
X813375Y476905D01*
X813495Y477057D01*
X813499Y477065D01*
X813504Y477072D01*
X813590Y477244D01*
X813677Y477416D01*
X813680Y477425D01*
X813684Y477433D01*
X813734Y477619D01*
X813785Y477804D01*
X813786Y477813D01*
X813788Y477821D01*
X813815Y478152D01*
X813815Y487440D01*
X820239Y493864D01*
X820250Y493877D01*
X820264Y493889D01*
X820378Y494033D01*
X820494Y494175D01*
X820502Y494191D01*
X820514Y494205D01*
X820597Y494369D01*
X820683Y494531D01*
X820688Y494548D01*
X820696Y494564D01*
X820745Y494741D01*
X820797Y494917D01*
X820799Y494935D01*
X820804Y494952D01*
X820817Y495135D01*
X820834Y495318D01*
X820832Y495336D01*
X820833Y495353D01*
X820810Y495535D01*
X820790Y495718D01*
X820785Y495735D01*
X820783Y495753D01*
X820725Y495926D01*
X820669Y496102D01*
X820660Y496118D01*
X820655Y496134D01*
X820563Y496294D01*
X820474Y496454D01*
X820463Y496468D01*
X820454Y496483D01*
X820239Y496736D01*
X813815Y503160D01*
X813815Y512840D01*
X819731Y518756D01*
X819737Y518763D01*
X819744Y518768D01*
X819864Y518918D01*
X819986Y519067D01*
X819990Y519075D01*
X819996Y519082D01*
X820084Y519252D01*
X820175Y519423D01*
X820177Y519432D01*
X820181Y519439D01*
X820235Y519624D01*
X820290Y519809D01*
X820290Y519818D01*
X820293Y519826D01*
X820308Y520018D01*
X820326Y520210D01*
X820325Y520219D01*
X820326Y520228D01*
X820304Y520415D01*
X820283Y520610D01*
X820280Y520619D01*
X820279Y520627D01*
X820219Y520809D01*
X820161Y520994D01*
X820157Y521002D01*
X820154Y521010D01*
X820059Y521179D01*
X819966Y521346D01*
X819960Y521353D01*
X819956Y521361D01*
X819832Y521505D01*
X819706Y521653D01*
X819699Y521659D01*
X819693Y521666D01*
X819541Y521783D01*
X819390Y521903D01*
X819382Y521907D01*
X819375Y521912D01*
X819203Y521998D01*
X819031Y522085D01*
X819022Y522088D01*
X819014Y522092D01*
X818828Y522142D01*
X818643Y522193D01*
X818634Y522194D01*
X818625Y522196D01*
X818295Y522223D01*
X816165Y522223D01*
X812057Y523925D01*
X808913Y527069D01*
X807211Y531177D01*
X807211Y532003D01*
X807209Y532021D01*
X807211Y532039D01*
X807190Y532221D01*
X807171Y532404D01*
X807166Y532421D01*
X807164Y532438D01*
X807107Y532613D01*
X807053Y532789D01*
X807045Y532804D01*
X807039Y532821D01*
X806949Y532981D01*
X806861Y533143D01*
X806850Y533156D01*
X806841Y533172D01*
X806721Y533311D01*
X806604Y533452D01*
X806590Y533463D01*
X806578Y533477D01*
X806433Y533589D01*
X806290Y533704D01*
X806274Y533712D01*
X806260Y533723D01*
X806095Y533805D01*
X805933Y533890D01*
X805916Y533895D01*
X805900Y533903D01*
X805721Y533950D01*
X805546Y534001D01*
X805528Y534003D01*
X805511Y534007D01*
X805180Y534034D01*
X795102Y534034D01*
X788034Y541102D01*
X788034Y551688D01*
X788032Y551706D01*
X788034Y551724D01*
X788013Y551906D01*
X787994Y552089D01*
X787989Y552106D01*
X787987Y552123D01*
X787930Y552298D01*
X787876Y552474D01*
X787868Y552489D01*
X787862Y552506D01*
X787772Y552666D01*
X787684Y552828D01*
X787673Y552841D01*
X787664Y552857D01*
X787544Y552996D01*
X787427Y553137D01*
X787413Y553148D01*
X787401Y553162D01*
X787256Y553274D01*
X787113Y553389D01*
X787097Y553397D01*
X787083Y553408D01*
X786918Y553490D01*
X786756Y553575D01*
X786739Y553580D01*
X786723Y553588D01*
X786544Y553635D01*
X786369Y553686D01*
X786351Y553688D01*
X786334Y553692D01*
X786003Y553719D01*
X769112Y553719D01*
X769094Y553717D01*
X769076Y553719D01*
X768894Y553698D01*
X768711Y553679D01*
X768694Y553674D01*
X768677Y553672D01*
X768502Y553615D01*
X768326Y553561D01*
X768311Y553553D01*
X768294Y553547D01*
X768134Y553457D01*
X767972Y553369D01*
X767959Y553358D01*
X767943Y553349D01*
X767804Y553229D01*
X767663Y553112D01*
X767652Y553098D01*
X767638Y553086D01*
X767526Y552941D01*
X767411Y552798D01*
X767403Y552782D01*
X767392Y552768D01*
X767310Y552603D01*
X767225Y552441D01*
X767220Y552424D01*
X767212Y552408D01*
X767165Y552229D01*
X767114Y552054D01*
X767112Y552036D01*
X767108Y552019D01*
X767081Y551688D01*
X767081Y510989D01*
X766307Y509122D01*
X764878Y507693D01*
X763011Y506919D01*
X742958Y506919D01*
X742932Y506917D01*
X742905Y506919D01*
X742731Y506897D01*
X742558Y506879D01*
X742532Y506872D01*
X742506Y506868D01*
X742340Y506813D01*
X742173Y506761D01*
X742149Y506748D01*
X742124Y506740D01*
X741972Y506653D01*
X741819Y506569D01*
X741798Y506552D01*
X741775Y506539D01*
X741522Y506324D01*
X740845Y505647D01*
X738091Y504506D01*
X735109Y504506D01*
X732355Y505647D01*
X730247Y507755D01*
X729106Y510509D01*
X729106Y513491D01*
X730247Y516245D01*
X732355Y518353D01*
X735109Y519494D01*
X738091Y519494D01*
X740845Y518353D01*
X741522Y517676D01*
X741543Y517659D01*
X741560Y517638D01*
X741698Y517531D01*
X741834Y517421D01*
X741857Y517408D01*
X741878Y517392D01*
X742035Y517314D01*
X742189Y517232D01*
X742215Y517224D01*
X742239Y517212D01*
X742408Y517167D01*
X742575Y517117D01*
X742602Y517115D01*
X742628Y517108D01*
X742958Y517081D01*
X754888Y517081D01*
X754906Y517083D01*
X754924Y517081D01*
X755106Y517102D01*
X755289Y517121D01*
X755306Y517126D01*
X755323Y517128D01*
X755498Y517185D01*
X755674Y517239D01*
X755689Y517247D01*
X755706Y517253D01*
X755866Y517343D01*
X756028Y517431D01*
X756041Y517442D01*
X756057Y517451D01*
X756196Y517571D01*
X756337Y517688D01*
X756348Y517702D01*
X756362Y517714D01*
X756474Y517859D01*
X756589Y518002D01*
X756597Y518018D01*
X756608Y518032D01*
X756690Y518197D01*
X756775Y518359D01*
X756780Y518376D01*
X756788Y518392D01*
X756835Y518571D01*
X756886Y518746D01*
X756888Y518764D01*
X756892Y518781D01*
X756919Y519112D01*
X756919Y840994D01*
X756917Y841012D01*
X756919Y841030D01*
X756898Y841212D01*
X756879Y841395D01*
X756874Y841412D01*
X756872Y841429D01*
X756815Y841604D01*
X756761Y841780D01*
X756753Y841795D01*
X756747Y841812D01*
X756657Y841972D01*
X756569Y842134D01*
X756558Y842147D01*
X756549Y842163D01*
X756429Y842302D01*
X756312Y842443D01*
X756298Y842454D01*
X756286Y842468D01*
X756141Y842580D01*
X755998Y842695D01*
X755982Y842703D01*
X755968Y842714D01*
X755803Y842796D01*
X755641Y842881D01*
X755624Y842886D01*
X755608Y842894D01*
X755429Y842941D01*
X755254Y842992D01*
X755236Y842994D01*
X755219Y842998D01*
X754888Y843025D01*
X712432Y843025D01*
X712410Y843023D01*
X712388Y843025D01*
X712210Y843003D01*
X712032Y842985D01*
X712010Y842979D01*
X711988Y842976D01*
X711818Y842920D01*
X711647Y842867D01*
X711627Y842857D01*
X711606Y842850D01*
X711450Y842761D01*
X711293Y842675D01*
X711276Y842661D01*
X711256Y842650D01*
X711121Y842532D01*
X710983Y842418D01*
X710969Y842400D01*
X710953Y842386D01*
X710843Y842244D01*
X710731Y842104D01*
X710721Y842084D01*
X710707Y842066D01*
X710556Y841771D01*
X710438Y841487D01*
X707151Y838200D01*
X702856Y836421D01*
X682968Y836421D01*
X678673Y838200D01*
X675386Y841487D01*
X673607Y845782D01*
X673607Y850430D01*
X675386Y854725D01*
X678673Y858012D01*
X682968Y859791D01*
X691388Y859791D01*
X691406Y859793D01*
X691424Y859791D01*
X691606Y859812D01*
X691789Y859831D01*
X691806Y859836D01*
X691823Y859838D01*
X691998Y859895D01*
X692174Y859949D01*
X692189Y859957D01*
X692206Y859963D01*
X692366Y860053D01*
X692528Y860141D01*
X692541Y860152D01*
X692557Y860161D01*
X692696Y860281D01*
X692837Y860398D01*
X692848Y860412D01*
X692862Y860424D01*
X692974Y860569D01*
X693089Y860712D01*
X693097Y860728D01*
X693108Y860742D01*
X693190Y860907D01*
X693275Y861069D01*
X693280Y861086D01*
X693288Y861102D01*
X693335Y861281D01*
X693386Y861456D01*
X693388Y861474D01*
X693392Y861491D01*
X693419Y861822D01*
X693419Y919988D01*
X693417Y920006D01*
X693419Y920024D01*
X693398Y920206D01*
X693379Y920389D01*
X693374Y920406D01*
X693372Y920423D01*
X693315Y920598D01*
X693261Y920774D01*
X693253Y920789D01*
X693247Y920806D01*
X693157Y920966D01*
X693069Y921128D01*
X693058Y921141D01*
X693049Y921157D01*
X692929Y921296D01*
X692812Y921437D01*
X692798Y921448D01*
X692786Y921462D01*
X692641Y921574D01*
X692498Y921689D01*
X692482Y921697D01*
X692468Y921708D01*
X692303Y921790D01*
X692141Y921875D01*
X692124Y921880D01*
X692108Y921888D01*
X691929Y921935D01*
X691754Y921986D01*
X691736Y921988D01*
X691719Y921992D01*
X691388Y922019D01*
X585724Y922019D01*
X585706Y922017D01*
X585688Y922019D01*
X585506Y921998D01*
X585323Y921979D01*
X585306Y921974D01*
X585289Y921972D01*
X585114Y921915D01*
X584938Y921861D01*
X584923Y921853D01*
X584906Y921847D01*
X584746Y921757D01*
X584584Y921669D01*
X584571Y921658D01*
X584555Y921649D01*
X584416Y921529D01*
X584275Y921412D01*
X584264Y921398D01*
X584250Y921386D01*
X584138Y921241D01*
X584023Y921098D01*
X584015Y921082D01*
X584004Y921068D01*
X583922Y920903D01*
X583837Y920741D01*
X583832Y920724D01*
X583824Y920708D01*
X583777Y920529D01*
X583726Y920354D01*
X583724Y920336D01*
X583720Y920319D01*
X583693Y919988D01*
X583693Y861822D01*
X583695Y861804D01*
X583693Y861786D01*
X583714Y861604D01*
X583733Y861421D01*
X583738Y861404D01*
X583740Y861387D01*
X583797Y861212D01*
X583851Y861036D01*
X583859Y861021D01*
X583865Y861004D01*
X583955Y860844D01*
X584043Y860682D01*
X584054Y860669D01*
X584063Y860653D01*
X584183Y860514D01*
X584300Y860373D01*
X584314Y860362D01*
X584326Y860348D01*
X584471Y860236D01*
X584614Y860121D01*
X584630Y860113D01*
X584644Y860102D01*
X584809Y860020D01*
X584971Y859935D01*
X584988Y859930D01*
X585004Y859922D01*
X585183Y859875D01*
X585358Y859824D01*
X585376Y859822D01*
X585393Y859818D01*
X585724Y859791D01*
X588556Y859791D01*
X592851Y858012D01*
X596138Y854725D01*
X597917Y850430D01*
X597917Y845782D01*
X596138Y841487D01*
X592851Y838200D01*
X588556Y836421D01*
X568668Y836421D01*
X564373Y838200D01*
X561086Y841487D01*
X559307Y845782D01*
X559307Y850430D01*
X561086Y854725D01*
X564373Y858012D01*
X568668Y859791D01*
X571500Y859791D01*
X571518Y859793D01*
X571536Y859791D01*
X571718Y859812D01*
X571901Y859831D01*
X571918Y859836D01*
X571935Y859838D01*
X572110Y859895D01*
X572286Y859949D01*
X572301Y859957D01*
X572318Y859963D01*
X572478Y860053D01*
X572640Y860141D01*
X572653Y860152D01*
X572669Y860161D01*
X572808Y860281D01*
X572949Y860398D01*
X572960Y860412D01*
X572974Y860424D01*
X573086Y860569D01*
X573201Y860712D01*
X573209Y860728D01*
X573220Y860742D01*
X573302Y860907D01*
X573387Y861069D01*
X573392Y861086D01*
X573400Y861102D01*
X573447Y861281D01*
X573498Y861456D01*
X573500Y861474D01*
X573504Y861491D01*
X573531Y861822D01*
X573531Y919988D01*
X573529Y920006D01*
X573531Y920024D01*
X573510Y920206D01*
X573491Y920389D01*
X573486Y920406D01*
X573484Y920423D01*
X573427Y920598D01*
X573373Y920774D01*
X573365Y920789D01*
X573359Y920806D01*
X573269Y920966D01*
X573181Y921128D01*
X573170Y921141D01*
X573161Y921157D01*
X573041Y921296D01*
X572924Y921437D01*
X572910Y921448D01*
X572898Y921462D01*
X572753Y921574D01*
X572610Y921689D01*
X572594Y921697D01*
X572580Y921708D01*
X572415Y921790D01*
X572253Y921875D01*
X572236Y921880D01*
X572220Y921888D01*
X572041Y921935D01*
X571866Y921986D01*
X571848Y921988D01*
X571831Y921992D01*
X571500Y922019D01*
X471424Y922019D01*
X471406Y922017D01*
X471388Y922019D01*
X471206Y921998D01*
X471023Y921979D01*
X471006Y921974D01*
X470989Y921972D01*
X470814Y921915D01*
X470638Y921861D01*
X470623Y921853D01*
X470606Y921847D01*
X470446Y921757D01*
X470284Y921669D01*
X470271Y921658D01*
X470255Y921649D01*
X470116Y921529D01*
X469975Y921412D01*
X469964Y921398D01*
X469950Y921386D01*
X469838Y921241D01*
X469723Y921098D01*
X469715Y921082D01*
X469704Y921068D01*
X469622Y920903D01*
X469537Y920741D01*
X469532Y920724D01*
X469524Y920708D01*
X469477Y920529D01*
X469426Y920354D01*
X469424Y920336D01*
X469420Y920319D01*
X469393Y919988D01*
X469393Y861822D01*
X469395Y861804D01*
X469393Y861786D01*
X469414Y861604D01*
X469433Y861421D01*
X469438Y861404D01*
X469440Y861387D01*
X469497Y861212D01*
X469551Y861036D01*
X469559Y861021D01*
X469565Y861004D01*
X469655Y860844D01*
X469743Y860682D01*
X469754Y860669D01*
X469763Y860653D01*
X469883Y860514D01*
X470000Y860373D01*
X470014Y860362D01*
X470026Y860348D01*
X470171Y860236D01*
X470314Y860121D01*
X470330Y860113D01*
X470344Y860102D01*
X470509Y860020D01*
X470671Y859935D01*
X470688Y859930D01*
X470704Y859922D01*
X470883Y859875D01*
X471058Y859824D01*
X471076Y859822D01*
X471093Y859818D01*
X471424Y859791D01*
X474256Y859791D01*
X478551Y858012D01*
X481838Y854725D01*
X483617Y850430D01*
X483617Y845782D01*
X481838Y841487D01*
X478551Y838200D01*
X474256Y836421D01*
X454368Y836421D01*
X450073Y838200D01*
X446786Y841487D01*
X445007Y845782D01*
X445007Y850430D01*
X446786Y854725D01*
X450073Y858012D01*
X454368Y859791D01*
X457200Y859791D01*
X457218Y859793D01*
X457236Y859791D01*
X457418Y859812D01*
X457601Y859831D01*
X457618Y859836D01*
X457635Y859838D01*
X457810Y859895D01*
X457986Y859949D01*
X458001Y859957D01*
X458018Y859963D01*
X458178Y860053D01*
X458340Y860141D01*
X458353Y860152D01*
X458369Y860161D01*
X458508Y860281D01*
X458649Y860398D01*
X458660Y860412D01*
X458674Y860424D01*
X458786Y860569D01*
X458901Y860712D01*
X458909Y860728D01*
X458920Y860742D01*
X459002Y860907D01*
X459087Y861069D01*
X459092Y861086D01*
X459100Y861102D01*
X459147Y861281D01*
X459198Y861456D01*
X459200Y861474D01*
X459204Y861491D01*
X459231Y861822D01*
X459231Y919988D01*
X459229Y920006D01*
X459231Y920024D01*
X459210Y920206D01*
X459191Y920389D01*
X459186Y920406D01*
X459184Y920423D01*
X459127Y920598D01*
X459073Y920774D01*
X459065Y920789D01*
X459059Y920806D01*
X458969Y920966D01*
X458881Y921128D01*
X458870Y921141D01*
X458861Y921157D01*
X458741Y921296D01*
X458624Y921437D01*
X458610Y921448D01*
X458598Y921462D01*
X458453Y921574D01*
X458310Y921689D01*
X458294Y921697D01*
X458280Y921708D01*
X458115Y921790D01*
X457953Y921875D01*
X457936Y921880D01*
X457920Y921888D01*
X457741Y921935D01*
X457566Y921986D01*
X457548Y921988D01*
X457531Y921992D01*
X457200Y922019D01*
X357124Y922019D01*
X357106Y922017D01*
X357088Y922019D01*
X356906Y921998D01*
X356723Y921979D01*
X356706Y921974D01*
X356689Y921972D01*
X356514Y921915D01*
X356338Y921861D01*
X356323Y921853D01*
X356306Y921847D01*
X356146Y921757D01*
X355984Y921669D01*
X355971Y921658D01*
X355955Y921649D01*
X355816Y921529D01*
X355675Y921412D01*
X355664Y921398D01*
X355650Y921386D01*
X355538Y921241D01*
X355423Y921098D01*
X355415Y921082D01*
X355404Y921068D01*
X355322Y920903D01*
X355237Y920741D01*
X355232Y920724D01*
X355224Y920708D01*
X355177Y920529D01*
X355126Y920354D01*
X355124Y920336D01*
X355120Y920319D01*
X355093Y919988D01*
X355093Y861822D01*
X355095Y861804D01*
X355093Y861786D01*
X355114Y861604D01*
X355133Y861421D01*
X355138Y861404D01*
X355140Y861387D01*
X355197Y861212D01*
X355251Y861036D01*
X355259Y861021D01*
X355265Y861004D01*
X355355Y860844D01*
X355443Y860682D01*
X355454Y860669D01*
X355463Y860653D01*
X355583Y860514D01*
X355700Y860373D01*
X355714Y860362D01*
X355726Y860348D01*
X355871Y860236D01*
X356014Y860121D01*
X356030Y860113D01*
X356044Y860102D01*
X356209Y860020D01*
X356371Y859935D01*
X356388Y859930D01*
X356404Y859922D01*
X356583Y859875D01*
X356758Y859824D01*
X356776Y859822D01*
X356793Y859818D01*
X357124Y859791D01*
X359956Y859791D01*
X364251Y858012D01*
X367538Y854725D01*
X369317Y850430D01*
X369317Y845782D01*
X367538Y841487D01*
X364251Y838200D01*
X359956Y836421D01*
X340068Y836421D01*
X335773Y838200D01*
X332486Y841487D01*
X330707Y845782D01*
X330707Y850430D01*
X332486Y854725D01*
X335773Y858012D01*
X340068Y859791D01*
X342900Y859791D01*
X342918Y859793D01*
X342936Y859791D01*
X343118Y859812D01*
X343301Y859831D01*
X343318Y859836D01*
X343335Y859838D01*
X343510Y859895D01*
X343686Y859949D01*
X343701Y859957D01*
X343718Y859963D01*
X343878Y860053D01*
X344040Y860141D01*
X344053Y860152D01*
X344069Y860161D01*
X344208Y860281D01*
X344349Y860398D01*
X344360Y860412D01*
X344374Y860424D01*
X344486Y860569D01*
X344601Y860712D01*
X344609Y860728D01*
X344620Y860742D01*
X344702Y860907D01*
X344787Y861069D01*
X344792Y861086D01*
X344800Y861102D01*
X344847Y861281D01*
X344898Y861456D01*
X344900Y861474D01*
X344904Y861491D01*
X344931Y861822D01*
X344931Y919988D01*
X344929Y920006D01*
X344931Y920024D01*
X344910Y920206D01*
X344891Y920389D01*
X344886Y920406D01*
X344884Y920423D01*
X344827Y920598D01*
X344773Y920774D01*
X344765Y920789D01*
X344759Y920806D01*
X344669Y920966D01*
X344581Y921128D01*
X344570Y921141D01*
X344561Y921157D01*
X344441Y921296D01*
X344324Y921437D01*
X344310Y921448D01*
X344298Y921462D01*
X344153Y921574D01*
X344010Y921689D01*
X343994Y921697D01*
X343980Y921708D01*
X343815Y921790D01*
X343653Y921875D01*
X343636Y921880D01*
X343620Y921888D01*
X343441Y921935D01*
X343266Y921986D01*
X343248Y921988D01*
X343231Y921992D01*
X342900Y922019D01*
X242824Y922019D01*
X242806Y922017D01*
X242788Y922019D01*
X242606Y921998D01*
X242423Y921979D01*
X242406Y921974D01*
X242389Y921972D01*
X242214Y921915D01*
X242038Y921861D01*
X242023Y921853D01*
X242006Y921847D01*
X241846Y921757D01*
X241684Y921669D01*
X241671Y921658D01*
X241655Y921649D01*
X241516Y921529D01*
X241375Y921412D01*
X241364Y921398D01*
X241350Y921386D01*
X241238Y921241D01*
X241123Y921098D01*
X241115Y921082D01*
X241104Y921068D01*
X241022Y920903D01*
X240937Y920741D01*
X240932Y920724D01*
X240924Y920708D01*
X240877Y920529D01*
X240826Y920354D01*
X240824Y920336D01*
X240820Y920319D01*
X240793Y919988D01*
X240793Y861822D01*
X240795Y861804D01*
X240793Y861786D01*
X240814Y861604D01*
X240833Y861421D01*
X240838Y861404D01*
X240840Y861387D01*
X240897Y861212D01*
X240951Y861036D01*
X240959Y861021D01*
X240965Y861004D01*
X241055Y860844D01*
X241143Y860682D01*
X241154Y860669D01*
X241163Y860653D01*
X241283Y860514D01*
X241400Y860373D01*
X241414Y860362D01*
X241426Y860348D01*
X241571Y860236D01*
X241714Y860121D01*
X241730Y860113D01*
X241744Y860102D01*
X241909Y860020D01*
X242071Y859935D01*
X242088Y859930D01*
X242104Y859922D01*
X242283Y859875D01*
X242458Y859824D01*
X242476Y859822D01*
X242493Y859818D01*
X242824Y859791D01*
X245656Y859791D01*
X249951Y858012D01*
X253238Y854725D01*
X255017Y850430D01*
X255017Y845782D01*
X253238Y841487D01*
X249951Y838200D01*
X245656Y836421D01*
X225768Y836421D01*
X221473Y838200D01*
X218186Y841487D01*
X216407Y845782D01*
X216407Y850430D01*
X218186Y854725D01*
X221473Y858012D01*
X225768Y859791D01*
X228600Y859791D01*
X228618Y859793D01*
X228636Y859791D01*
X228818Y859812D01*
X229001Y859831D01*
X229018Y859836D01*
X229035Y859838D01*
X229210Y859895D01*
X229386Y859949D01*
X229401Y859957D01*
X229418Y859963D01*
X229578Y860053D01*
X229740Y860141D01*
X229753Y860152D01*
X229769Y860161D01*
X229908Y860281D01*
X230049Y860398D01*
X230060Y860412D01*
X230074Y860424D01*
X230186Y860569D01*
X230301Y860712D01*
X230309Y860728D01*
X230320Y860742D01*
X230402Y860907D01*
X230487Y861069D01*
X230492Y861086D01*
X230500Y861102D01*
X230547Y861281D01*
X230598Y861456D01*
X230600Y861474D01*
X230604Y861491D01*
X230631Y861822D01*
X230631Y919988D01*
X230629Y920006D01*
X230631Y920024D01*
X230610Y920206D01*
X230591Y920389D01*
X230586Y920406D01*
X230584Y920423D01*
X230527Y920598D01*
X230473Y920774D01*
X230465Y920789D01*
X230459Y920806D01*
X230369Y920966D01*
X230281Y921128D01*
X230270Y921141D01*
X230261Y921157D01*
X230141Y921296D01*
X230024Y921437D01*
X230010Y921448D01*
X229998Y921462D01*
X229853Y921574D01*
X229710Y921689D01*
X229694Y921697D01*
X229680Y921708D01*
X229515Y921790D01*
X229353Y921875D01*
X229336Y921880D01*
X229320Y921888D01*
X229141Y921935D01*
X228966Y921986D01*
X228948Y921988D01*
X228931Y921992D01*
X228600Y922019D01*
X159512Y922019D01*
X159494Y922017D01*
X159476Y922019D01*
X159294Y921998D01*
X159111Y921979D01*
X159094Y921974D01*
X159077Y921972D01*
X158902Y921915D01*
X158726Y921861D01*
X158711Y921853D01*
X158694Y921847D01*
X158534Y921757D01*
X158372Y921669D01*
X158359Y921658D01*
X158343Y921649D01*
X158204Y921529D01*
X158063Y921412D01*
X158052Y921398D01*
X158038Y921386D01*
X157926Y921241D01*
X157811Y921098D01*
X157803Y921082D01*
X157792Y921068D01*
X157710Y920903D01*
X157625Y920741D01*
X157620Y920724D01*
X157612Y920708D01*
X157565Y920529D01*
X157514Y920354D01*
X157512Y920336D01*
X157508Y920319D01*
X157481Y919988D01*
X157481Y861479D01*
X157482Y861466D01*
X157481Y861452D01*
X157502Y861266D01*
X157521Y861078D01*
X157525Y861066D01*
X157526Y861052D01*
X157584Y860874D01*
X157639Y860694D01*
X157645Y860682D01*
X157649Y860669D01*
X157741Y860505D01*
X157831Y860340D01*
X157839Y860329D01*
X157846Y860318D01*
X157968Y860175D01*
X158088Y860030D01*
X158099Y860022D01*
X158107Y860012D01*
X158256Y859896D01*
X158402Y859778D01*
X158414Y859772D01*
X158424Y859763D01*
X158594Y859679D01*
X158759Y859592D01*
X158772Y859589D01*
X158784Y859583D01*
X158966Y859533D01*
X159146Y859481D01*
X159160Y859480D01*
X159173Y859476D01*
X159359Y859464D01*
X159548Y859448D01*
X159561Y859450D01*
X159574Y859449D01*
X159760Y859473D01*
X159947Y859495D01*
X159960Y859499D01*
X159973Y859501D01*
X160289Y859602D01*
X160744Y859791D01*
X180632Y859791D01*
X184927Y858012D01*
X188214Y854725D01*
X189993Y850430D01*
X189993Y845782D01*
X188214Y841487D01*
X184927Y838200D01*
X180632Y836421D01*
X160744Y836421D01*
X160289Y836610D01*
X160276Y836613D01*
X160265Y836620D01*
X160084Y836671D01*
X159904Y836726D01*
X159891Y836727D01*
X159878Y836731D01*
X159689Y836746D01*
X159503Y836764D01*
X159490Y836763D01*
X159476Y836764D01*
X159290Y836742D01*
X159103Y836722D01*
X159090Y836718D01*
X159077Y836717D01*
X158898Y836659D01*
X158718Y836603D01*
X158707Y836596D01*
X158694Y836592D01*
X158530Y836500D01*
X158365Y836409D01*
X158355Y836401D01*
X158343Y836394D01*
X158201Y836271D01*
X158057Y836150D01*
X158049Y836140D01*
X158038Y836131D01*
X157924Y835983D01*
X157806Y835835D01*
X157800Y835823D01*
X157792Y835813D01*
X157708Y835645D01*
X157622Y835477D01*
X157618Y835464D01*
X157612Y835452D01*
X157563Y835270D01*
X157512Y835090D01*
X157511Y835077D01*
X157508Y835064D01*
X157481Y834733D01*
X157481Y816267D01*
X157482Y816254D01*
X157481Y816240D01*
X157502Y816054D01*
X157521Y815866D01*
X157525Y815854D01*
X157526Y815840D01*
X157584Y815662D01*
X157639Y815482D01*
X157645Y815470D01*
X157649Y815457D01*
X157741Y815293D01*
X157831Y815128D01*
X157839Y815117D01*
X157846Y815106D01*
X157968Y814963D01*
X158088Y814818D01*
X158099Y814810D01*
X158107Y814800D01*
X158256Y814684D01*
X158402Y814566D01*
X158414Y814560D01*
X158424Y814551D01*
X158594Y814467D01*
X158759Y814380D01*
X158772Y814377D01*
X158784Y814371D01*
X158966Y814321D01*
X159146Y814269D01*
X159160Y814268D01*
X159173Y814264D01*
X159359Y814252D01*
X159548Y814236D01*
X159561Y814238D01*
X159574Y814237D01*
X159760Y814261D01*
X159947Y814283D01*
X159960Y814287D01*
X159973Y814289D01*
X160289Y814390D01*
X160744Y814579D01*
X180632Y814579D01*
X184927Y812800D01*
X188214Y809513D01*
X189993Y805218D01*
X189993Y800570D01*
X188214Y796275D01*
X184927Y792988D01*
X182618Y792032D01*
X180632Y791209D01*
X160744Y791209D01*
X160289Y791398D01*
X160276Y791401D01*
X160265Y791408D01*
X160084Y791459D01*
X159904Y791514D01*
X159891Y791515D01*
X159878Y791519D01*
X159689Y791534D01*
X159503Y791552D01*
X159490Y791551D01*
X159476Y791552D01*
X159290Y791530D01*
X159103Y791510D01*
X159090Y791506D01*
X159077Y791505D01*
X158898Y791447D01*
X158718Y791391D01*
X158707Y791384D01*
X158694Y791380D01*
X158530Y791288D01*
X158365Y791197D01*
X158355Y791189D01*
X158343Y791182D01*
X158201Y791059D01*
X158057Y790938D01*
X158049Y790928D01*
X158038Y790919D01*
X157924Y790771D01*
X157806Y790623D01*
X157800Y790611D01*
X157792Y790601D01*
X157708Y790433D01*
X157622Y790265D01*
X157618Y790252D01*
X157612Y790240D01*
X157563Y790058D01*
X157512Y789878D01*
X157511Y789865D01*
X157508Y789852D01*
X157481Y789521D01*
X157481Y743712D01*
X157483Y743694D01*
X157481Y743676D01*
X157502Y743494D01*
X157521Y743311D01*
X157526Y743294D01*
X157528Y743277D01*
X157585Y743102D01*
X157639Y742926D01*
X157647Y742911D01*
X157653Y742894D01*
X157743Y742734D01*
X157831Y742572D01*
X157842Y742559D01*
X157851Y742543D01*
X157971Y742404D01*
X158088Y742263D01*
X158102Y742252D01*
X158114Y742238D01*
X158259Y742126D01*
X158402Y742011D01*
X158418Y742003D01*
X158432Y741992D01*
X158597Y741910D01*
X158759Y741825D01*
X158776Y741820D01*
X158792Y741812D01*
X158971Y741765D01*
X159146Y741714D01*
X159164Y741712D01*
X159181Y741708D01*
X159512Y741681D01*
X486405Y741681D01*
X488272Y740907D01*
X489701Y739478D01*
X490504Y737541D01*
X490515Y737432D01*
X490521Y737410D01*
X490524Y737388D01*
X490580Y737218D01*
X490633Y737047D01*
X490643Y737027D01*
X490650Y737006D01*
X490739Y736850D01*
X490825Y736693D01*
X490839Y736676D01*
X490850Y736656D01*
X490968Y736521D01*
X491082Y736383D01*
X491100Y736369D01*
X491114Y736353D01*
X491256Y736243D01*
X491396Y736131D01*
X491416Y736121D01*
X491434Y736107D01*
X491729Y735956D01*
X492013Y735838D01*
X495300Y732551D01*
X497079Y728256D01*
X497079Y708368D01*
X495300Y704073D01*
X492013Y700786D01*
X487718Y699007D01*
X483070Y699007D01*
X478775Y700786D01*
X475488Y704073D01*
X473709Y708368D01*
X473709Y728256D01*
X473898Y728711D01*
X473901Y728724D01*
X473908Y728735D01*
X473959Y728916D01*
X474014Y729096D01*
X474015Y729109D01*
X474019Y729122D01*
X474034Y729311D01*
X474052Y729497D01*
X474051Y729510D01*
X474052Y729524D01*
X474030Y729710D01*
X474010Y729897D01*
X474006Y729910D01*
X474005Y729923D01*
X473947Y730102D01*
X473891Y730282D01*
X473884Y730293D01*
X473880Y730306D01*
X473788Y730470D01*
X473697Y730635D01*
X473689Y730645D01*
X473682Y730657D01*
X473559Y730799D01*
X473438Y730943D01*
X473428Y730951D01*
X473419Y730962D01*
X473271Y731076D01*
X473123Y731194D01*
X473111Y731200D01*
X473101Y731208D01*
X472933Y731292D01*
X472765Y731378D01*
X472752Y731382D01*
X472740Y731388D01*
X472558Y731437D01*
X472378Y731488D01*
X472365Y731489D01*
X472352Y731492D01*
X472021Y731519D01*
X375412Y731519D01*
X375394Y731517D01*
X375376Y731519D01*
X375194Y731498D01*
X375011Y731479D01*
X374994Y731474D01*
X374977Y731472D01*
X374802Y731415D01*
X374626Y731361D01*
X374611Y731353D01*
X374594Y731347D01*
X374434Y731257D01*
X374272Y731169D01*
X374259Y731158D01*
X374243Y731149D01*
X374104Y731029D01*
X373963Y730912D01*
X373952Y730898D01*
X373938Y730886D01*
X373826Y730741D01*
X373711Y730598D01*
X373703Y730582D01*
X373692Y730568D01*
X373610Y730403D01*
X373525Y730241D01*
X373520Y730224D01*
X373512Y730208D01*
X373465Y730029D01*
X373414Y729854D01*
X373412Y729836D01*
X373408Y729819D01*
X373381Y729488D01*
X373381Y722048D01*
X373383Y722022D01*
X373381Y721995D01*
X373403Y721821D01*
X373421Y721648D01*
X373428Y721622D01*
X373432Y721596D01*
X373487Y721430D01*
X373539Y721263D01*
X373552Y721239D01*
X373560Y721214D01*
X373647Y721062D01*
X373731Y720909D01*
X373748Y720888D01*
X373761Y720865D01*
X373976Y720612D01*
X378969Y715619D01*
X378969Y706781D01*
X372719Y700531D01*
X363881Y700531D01*
X357631Y706781D01*
X357631Y715619D01*
X362624Y720612D01*
X362641Y720633D01*
X362662Y720650D01*
X362769Y720788D01*
X362879Y720924D01*
X362892Y720947D01*
X362908Y720968D01*
X362986Y721125D01*
X363068Y721279D01*
X363076Y721305D01*
X363088Y721329D01*
X363133Y721498D01*
X363183Y721665D01*
X363185Y721692D01*
X363192Y721718D01*
X363219Y722048D01*
X363219Y729488D01*
X363217Y729506D01*
X363219Y729524D01*
X363198Y729706D01*
X363179Y729889D01*
X363174Y729906D01*
X363172Y729923D01*
X363115Y730098D01*
X363061Y730274D01*
X363053Y730289D01*
X363047Y730306D01*
X362957Y730466D01*
X362869Y730628D01*
X362858Y730641D01*
X362849Y730657D01*
X362729Y730796D01*
X362612Y730937D01*
X362598Y730948D01*
X362586Y730962D01*
X362441Y731074D01*
X362298Y731189D01*
X362282Y731197D01*
X362268Y731208D01*
X362103Y731290D01*
X361941Y731375D01*
X361924Y731380D01*
X361908Y731388D01*
X361729Y731435D01*
X361554Y731486D01*
X361536Y731488D01*
X361519Y731492D01*
X361188Y731519D01*
X302679Y731519D01*
X302666Y731518D01*
X302652Y731519D01*
X302466Y731498D01*
X302278Y731479D01*
X302266Y731475D01*
X302252Y731474D01*
X302074Y731416D01*
X301894Y731361D01*
X301882Y731355D01*
X301869Y731351D01*
X301705Y731259D01*
X301540Y731169D01*
X301529Y731161D01*
X301518Y731154D01*
X301375Y731032D01*
X301230Y730912D01*
X301222Y730901D01*
X301212Y730893D01*
X301096Y730744D01*
X300978Y730598D01*
X300972Y730586D01*
X300963Y730576D01*
X300879Y730406D01*
X300792Y730241D01*
X300789Y730228D01*
X300783Y730216D01*
X300733Y730034D01*
X300681Y729854D01*
X300680Y729840D01*
X300676Y729827D01*
X300664Y729641D01*
X300648Y729452D01*
X300650Y729439D01*
X300649Y729426D01*
X300673Y729240D01*
X300695Y729053D01*
X300699Y729040D01*
X300701Y729027D01*
X300802Y728711D01*
X300991Y728256D01*
X300991Y708368D01*
X299212Y704073D01*
X295925Y700786D01*
X291630Y699007D01*
X286982Y699007D01*
X282687Y700786D01*
X279400Y704073D01*
X277621Y708368D01*
X277621Y728256D01*
X277810Y728711D01*
X277813Y728724D01*
X277820Y728735D01*
X277871Y728916D01*
X277926Y729096D01*
X277927Y729109D01*
X277931Y729122D01*
X277946Y729311D01*
X277964Y729497D01*
X277963Y729510D01*
X277964Y729524D01*
X277942Y729710D01*
X277922Y729897D01*
X277918Y729910D01*
X277917Y729923D01*
X277859Y730102D01*
X277803Y730282D01*
X277796Y730293D01*
X277792Y730306D01*
X277700Y730470D01*
X277609Y730635D01*
X277601Y730645D01*
X277594Y730657D01*
X277471Y730799D01*
X277350Y730943D01*
X277340Y730951D01*
X277331Y730962D01*
X277183Y731076D01*
X277035Y731194D01*
X277023Y731200D01*
X277013Y731208D01*
X276845Y731292D01*
X276677Y731378D01*
X276664Y731382D01*
X276652Y731388D01*
X276470Y731437D01*
X276290Y731488D01*
X276277Y731489D01*
X276264Y731492D01*
X275933Y731519D01*
X257467Y731519D01*
X257454Y731518D01*
X257440Y731519D01*
X257254Y731498D01*
X257066Y731479D01*
X257054Y731475D01*
X257040Y731474D01*
X256862Y731416D01*
X256682Y731361D01*
X256670Y731355D01*
X256657Y731351D01*
X256493Y731259D01*
X256328Y731169D01*
X256317Y731161D01*
X256306Y731154D01*
X256163Y731032D01*
X256018Y730912D01*
X256010Y730901D01*
X256000Y730893D01*
X255884Y730744D01*
X255766Y730598D01*
X255760Y730586D01*
X255751Y730576D01*
X255667Y730406D01*
X255580Y730241D01*
X255577Y730228D01*
X255571Y730216D01*
X255521Y730034D01*
X255469Y729854D01*
X255468Y729840D01*
X255464Y729827D01*
X255452Y729641D01*
X255436Y729452D01*
X255438Y729439D01*
X255437Y729426D01*
X255461Y729240D01*
X255483Y729053D01*
X255487Y729040D01*
X255489Y729027D01*
X255590Y728711D01*
X255779Y728256D01*
X255779Y708368D01*
X254000Y704073D01*
X250713Y700786D01*
X246418Y699007D01*
X241770Y699007D01*
X237475Y700786D01*
X234188Y704073D01*
X232409Y708368D01*
X232409Y728256D01*
X232598Y728711D01*
X232601Y728724D01*
X232608Y728735D01*
X232659Y728916D01*
X232714Y729096D01*
X232715Y729109D01*
X232719Y729122D01*
X232734Y729311D01*
X232752Y729497D01*
X232751Y729510D01*
X232752Y729524D01*
X232730Y729710D01*
X232710Y729897D01*
X232706Y729910D01*
X232705Y729923D01*
X232647Y730102D01*
X232591Y730282D01*
X232584Y730293D01*
X232580Y730306D01*
X232488Y730470D01*
X232397Y730635D01*
X232389Y730645D01*
X232382Y730657D01*
X232259Y730799D01*
X232138Y730943D01*
X232128Y730951D01*
X232119Y730962D01*
X231971Y731076D01*
X231823Y731194D01*
X231811Y731200D01*
X231801Y731208D01*
X231633Y731292D01*
X231465Y731378D01*
X231452Y731382D01*
X231440Y731388D01*
X231258Y731437D01*
X231078Y731488D01*
X231065Y731489D01*
X231052Y731492D01*
X230721Y731519D01*
X134112Y731519D01*
X134094Y731517D01*
X134076Y731519D01*
X133894Y731498D01*
X133711Y731479D01*
X133694Y731474D01*
X133677Y731472D01*
X133502Y731415D01*
X133326Y731361D01*
X133311Y731353D01*
X133294Y731347D01*
X133134Y731257D01*
X132972Y731169D01*
X132959Y731158D01*
X132943Y731149D01*
X132804Y731029D01*
X132663Y730912D01*
X132652Y730898D01*
X132638Y730886D01*
X132526Y730741D01*
X132411Y730598D01*
X132403Y730582D01*
X132392Y730568D01*
X132310Y730403D01*
X132225Y730241D01*
X132220Y730224D01*
X132212Y730208D01*
X132165Y730029D01*
X132114Y729854D01*
X132112Y729836D01*
X132108Y729819D01*
X132081Y729488D01*
X132081Y722048D01*
X132083Y722022D01*
X132081Y721995D01*
X132103Y721821D01*
X132121Y721648D01*
X132128Y721622D01*
X132132Y721596D01*
X132187Y721430D01*
X132239Y721263D01*
X132252Y721239D01*
X132260Y721214D01*
X132347Y721062D01*
X132431Y720909D01*
X132448Y720888D01*
X132461Y720865D01*
X132676Y720612D01*
X137669Y715619D01*
X137669Y706781D01*
X131419Y700531D01*
X122581Y700531D01*
X116331Y706781D01*
X116331Y715619D01*
X121324Y720612D01*
X121341Y720633D01*
X121362Y720650D01*
X121469Y720788D01*
X121579Y720924D01*
X121592Y720947D01*
X121608Y720968D01*
X121686Y721125D01*
X121768Y721279D01*
X121776Y721305D01*
X121788Y721329D01*
X121833Y721498D01*
X121883Y721665D01*
X121885Y721692D01*
X121892Y721718D01*
X121919Y722048D01*
X121919Y737611D01*
X122693Y739478D01*
X124122Y740907D01*
X125989Y741681D01*
X145288Y741681D01*
X145306Y741683D01*
X145324Y741681D01*
X145506Y741702D01*
X145689Y741721D01*
X145706Y741726D01*
X145723Y741728D01*
X145898Y741785D01*
X146074Y741839D01*
X146089Y741847D01*
X146106Y741853D01*
X146266Y741943D01*
X146428Y742031D01*
X146441Y742042D01*
X146457Y742051D01*
X146596Y742171D01*
X146737Y742288D01*
X146748Y742302D01*
X146762Y742314D01*
X146874Y742459D01*
X146989Y742602D01*
X146997Y742618D01*
X147008Y742632D01*
X147090Y742797D01*
X147175Y742959D01*
X147180Y742976D01*
X147188Y742992D01*
X147235Y743171D01*
X147286Y743346D01*
X147288Y743364D01*
X147292Y743381D01*
X147319Y743712D01*
X147319Y919988D01*
X147317Y920006D01*
X147319Y920024D01*
X147298Y920206D01*
X147279Y920389D01*
X147274Y920406D01*
X147272Y920423D01*
X147215Y920598D01*
X147161Y920774D01*
X147153Y920789D01*
X147147Y920806D01*
X147057Y920966D01*
X146969Y921128D01*
X146958Y921141D01*
X146949Y921157D01*
X146829Y921296D01*
X146712Y921437D01*
X146698Y921448D01*
X146686Y921462D01*
X146541Y921574D01*
X146398Y921689D01*
X146382Y921697D01*
X146368Y921708D01*
X146203Y921790D01*
X146041Y921875D01*
X146024Y921880D01*
X146008Y921888D01*
X145829Y921935D01*
X145654Y921986D01*
X145636Y921988D01*
X145619Y921992D01*
X145288Y922019D01*
X128524Y922019D01*
X128506Y922017D01*
X128488Y922019D01*
X128306Y921998D01*
X128123Y921979D01*
X128106Y921974D01*
X128089Y921972D01*
X127914Y921915D01*
X127738Y921861D01*
X127723Y921853D01*
X127706Y921847D01*
X127546Y921757D01*
X127384Y921669D01*
X127371Y921658D01*
X127355Y921649D01*
X127216Y921529D01*
X127075Y921412D01*
X127064Y921398D01*
X127050Y921386D01*
X126938Y921241D01*
X126823Y921098D01*
X126815Y921082D01*
X126804Y921068D01*
X126722Y920903D01*
X126637Y920741D01*
X126632Y920724D01*
X126624Y920708D01*
X126577Y920529D01*
X126526Y920354D01*
X126524Y920336D01*
X126520Y920319D01*
X126493Y919988D01*
X126493Y861822D01*
X126495Y861804D01*
X126493Y861786D01*
X126514Y861604D01*
X126533Y861421D01*
X126538Y861404D01*
X126540Y861387D01*
X126597Y861212D01*
X126651Y861036D01*
X126659Y861021D01*
X126665Y861004D01*
X126755Y860844D01*
X126843Y860682D01*
X126854Y860669D01*
X126863Y860653D01*
X126983Y860514D01*
X127100Y860373D01*
X127114Y860362D01*
X127126Y860348D01*
X127271Y860236D01*
X127414Y860121D01*
X127430Y860113D01*
X127444Y860102D01*
X127609Y860020D01*
X127771Y859935D01*
X127788Y859930D01*
X127804Y859922D01*
X127983Y859875D01*
X128158Y859824D01*
X128176Y859822D01*
X128193Y859818D01*
X128524Y859791D01*
X131356Y859791D01*
X135651Y858012D01*
X138938Y854725D01*
X140717Y850430D01*
X140717Y845782D01*
X138938Y841487D01*
X135651Y838200D01*
X131356Y836421D01*
X111468Y836421D01*
X107173Y838200D01*
X103886Y841487D01*
X102107Y845782D01*
X102107Y850430D01*
X103886Y854725D01*
X107173Y858012D01*
X111468Y859791D01*
X114300Y859791D01*
X114318Y859793D01*
X114336Y859791D01*
X114518Y859812D01*
X114701Y859831D01*
X114718Y859836D01*
X114735Y859838D01*
X114910Y859895D01*
X115086Y859949D01*
X115101Y859957D01*
X115118Y859963D01*
X115278Y860053D01*
X115440Y860141D01*
X115453Y860152D01*
X115469Y860161D01*
X115608Y860281D01*
X115749Y860398D01*
X115760Y860412D01*
X115774Y860424D01*
X115886Y860569D01*
X116001Y860712D01*
X116009Y860728D01*
X116020Y860742D01*
X116102Y860907D01*
X116187Y861069D01*
X116192Y861086D01*
X116200Y861102D01*
X116247Y861281D01*
X116298Y861456D01*
X116300Y861474D01*
X116304Y861491D01*
X116331Y861822D01*
X116331Y919988D01*
X116329Y920006D01*
X116331Y920024D01*
X116310Y920206D01*
X116291Y920389D01*
X116286Y920406D01*
X116284Y920423D01*
X116227Y920598D01*
X116173Y920774D01*
X116165Y920789D01*
X116159Y920806D01*
X116069Y920966D01*
X115981Y921128D01*
X115970Y921141D01*
X115961Y921157D01*
X115841Y921296D01*
X115724Y921437D01*
X115710Y921448D01*
X115698Y921462D01*
X115553Y921574D01*
X115410Y921689D01*
X115394Y921697D01*
X115380Y921708D01*
X115215Y921790D01*
X115053Y921875D01*
X115036Y921880D01*
X115020Y921888D01*
X114841Y921935D01*
X114666Y921986D01*
X114648Y921988D01*
X114631Y921992D01*
X114300Y922019D01*
X113289Y922019D01*
X111422Y922793D01*
X109993Y924222D01*
X109219Y926089D01*
X109219Y954352D01*
X109217Y954378D01*
X109219Y954405D01*
X109197Y954579D01*
X109179Y954752D01*
X109172Y954778D01*
X109168Y954804D01*
X109112Y954970D01*
X109061Y955137D01*
X109048Y955161D01*
X109040Y955186D01*
X108953Y955338D01*
X108869Y955491D01*
X108852Y955512D01*
X108839Y955535D01*
X108624Y955788D01*
X103631Y960781D01*
X103631Y969619D01*
X109881Y975869D01*
X118719Y975869D01*
X124969Y969619D01*
X124969Y960781D01*
X119976Y955788D01*
X119959Y955767D01*
X119938Y955750D01*
X119831Y955612D01*
X119721Y955476D01*
X119708Y955453D01*
X119692Y955432D01*
X119614Y955275D01*
X119532Y955121D01*
X119524Y955095D01*
X119512Y955071D01*
X119467Y954902D01*
X119417Y954735D01*
X119415Y954708D01*
X119408Y954682D01*
X119381Y954352D01*
X119381Y934212D01*
X119383Y934194D01*
X119381Y934176D01*
X119402Y933994D01*
X119421Y933811D01*
X119426Y933794D01*
X119428Y933777D01*
X119485Y933602D01*
X119539Y933426D01*
X119547Y933411D01*
X119553Y933394D01*
X119643Y933234D01*
X119731Y933072D01*
X119742Y933059D01*
X119751Y933043D01*
X119871Y932904D01*
X119988Y932763D01*
X120002Y932752D01*
X120014Y932738D01*
X120160Y932625D01*
X120302Y932511D01*
X120318Y932503D01*
X120332Y932492D01*
X120497Y932410D01*
X120659Y932325D01*
X120676Y932320D01*
X120692Y932312D01*
X120871Y932265D01*
X121046Y932214D01*
X121064Y932212D01*
X121081Y932208D01*
X121412Y932181D01*
X221488Y932181D01*
X221506Y932183D01*
X221524Y932181D01*
X221706Y932202D01*
X221889Y932221D01*
X221906Y932226D01*
X221923Y932228D01*
X222098Y932285D01*
X222274Y932339D01*
X222289Y932347D01*
X222306Y932353D01*
X222466Y932443D01*
X222628Y932531D01*
X222641Y932542D01*
X222657Y932551D01*
X222796Y932671D01*
X222937Y932788D01*
X222948Y932802D01*
X222962Y932814D01*
X223074Y932959D01*
X223189Y933102D01*
X223197Y933118D01*
X223208Y933132D01*
X223290Y933297D01*
X223375Y933459D01*
X223380Y933476D01*
X223388Y933492D01*
X223435Y933671D01*
X223486Y933846D01*
X223488Y933864D01*
X223492Y933881D01*
X223519Y934212D01*
X223519Y954352D01*
X223517Y954378D01*
X223519Y954405D01*
X223497Y954579D01*
X223479Y954752D01*
X223472Y954778D01*
X223468Y954804D01*
X223413Y954970D01*
X223361Y955137D01*
X223348Y955161D01*
X223340Y955186D01*
X223253Y955338D01*
X223169Y955491D01*
X223152Y955512D01*
X223139Y955535D01*
X222924Y955788D01*
X217931Y960781D01*
X217931Y969619D01*
X224181Y975869D01*
X233019Y975869D01*
X239269Y969619D01*
X239269Y960781D01*
X234276Y955788D01*
X234259Y955767D01*
X234238Y955750D01*
X234131Y955612D01*
X234021Y955476D01*
X234008Y955453D01*
X233992Y955432D01*
X233914Y955275D01*
X233832Y955121D01*
X233824Y955095D01*
X233812Y955071D01*
X233767Y954902D01*
X233717Y954735D01*
X233715Y954708D01*
X233708Y954682D01*
X233681Y954352D01*
X233681Y934212D01*
X233683Y934194D01*
X233681Y934176D01*
X233702Y933994D01*
X233721Y933811D01*
X233726Y933794D01*
X233728Y933777D01*
X233785Y933602D01*
X233839Y933426D01*
X233847Y933411D01*
X233853Y933394D01*
X233943Y933234D01*
X234031Y933072D01*
X234042Y933059D01*
X234051Y933043D01*
X234171Y932904D01*
X234288Y932763D01*
X234302Y932752D01*
X234314Y932738D01*
X234460Y932625D01*
X234602Y932511D01*
X234618Y932503D01*
X234632Y932492D01*
X234797Y932410D01*
X234959Y932325D01*
X234976Y932320D01*
X234992Y932312D01*
X235171Y932265D01*
X235346Y932214D01*
X235364Y932212D01*
X235381Y932208D01*
X235712Y932181D01*
X335788Y932181D01*
X335806Y932183D01*
X335824Y932181D01*
X336006Y932202D01*
X336189Y932221D01*
X336206Y932226D01*
X336223Y932228D01*
X336398Y932285D01*
X336574Y932339D01*
X336589Y932347D01*
X336606Y932353D01*
X336766Y932443D01*
X336928Y932531D01*
X336941Y932542D01*
X336957Y932551D01*
X337096Y932671D01*
X337237Y932788D01*
X337248Y932802D01*
X337262Y932814D01*
X337374Y932959D01*
X337489Y933102D01*
X337497Y933118D01*
X337508Y933132D01*
X337590Y933297D01*
X337675Y933459D01*
X337680Y933476D01*
X337688Y933492D01*
X337735Y933671D01*
X337786Y933846D01*
X337788Y933864D01*
X337792Y933881D01*
X337819Y934212D01*
X337819Y954352D01*
X337817Y954378D01*
X337819Y954405D01*
X337797Y954579D01*
X337779Y954752D01*
X337772Y954778D01*
X337768Y954804D01*
X337713Y954970D01*
X337661Y955137D01*
X337648Y955161D01*
X337640Y955186D01*
X337553Y955338D01*
X337469Y955491D01*
X337452Y955512D01*
X337439Y955535D01*
X337224Y955788D01*
X332231Y960781D01*
X332231Y969619D01*
X338481Y975869D01*
X347319Y975869D01*
X353569Y969619D01*
X353569Y960781D01*
X348576Y955788D01*
X348559Y955767D01*
X348538Y955750D01*
X348431Y955612D01*
X348321Y955476D01*
X348308Y955453D01*
X348292Y955432D01*
X348214Y955275D01*
X348132Y955121D01*
X348124Y955095D01*
X348112Y955071D01*
X348067Y954902D01*
X348017Y954735D01*
X348015Y954708D01*
X348008Y954682D01*
X347981Y954352D01*
X347981Y934212D01*
X347983Y934194D01*
X347981Y934176D01*
X348002Y933994D01*
X348021Y933811D01*
X348026Y933794D01*
X348028Y933777D01*
X348085Y933602D01*
X348139Y933426D01*
X348147Y933411D01*
X348153Y933394D01*
X348243Y933234D01*
X348331Y933072D01*
X348342Y933059D01*
X348351Y933043D01*
X348471Y932904D01*
X348588Y932763D01*
X348602Y932752D01*
X348614Y932738D01*
X348760Y932625D01*
X348902Y932511D01*
X348918Y932503D01*
X348932Y932492D01*
X349097Y932410D01*
X349259Y932325D01*
X349276Y932320D01*
X349292Y932312D01*
X349471Y932265D01*
X349646Y932214D01*
X349664Y932212D01*
X349681Y932208D01*
X350012Y932181D01*
X450088Y932181D01*
X450106Y932183D01*
X450124Y932181D01*
X450306Y932202D01*
X450489Y932221D01*
X450506Y932226D01*
X450523Y932228D01*
X450698Y932285D01*
X450874Y932339D01*
X450889Y932347D01*
X450906Y932353D01*
X451066Y932443D01*
X451228Y932531D01*
X451241Y932542D01*
X451257Y932551D01*
X451396Y932671D01*
X451537Y932788D01*
X451548Y932802D01*
X451562Y932814D01*
X451674Y932959D01*
X451789Y933102D01*
X451797Y933118D01*
X451808Y933132D01*
X451890Y933297D01*
X451975Y933459D01*
X451980Y933476D01*
X451988Y933492D01*
X452035Y933671D01*
X452086Y933846D01*
X452088Y933864D01*
X452092Y933881D01*
X452119Y934212D01*
X452119Y954352D01*
X452117Y954378D01*
X452119Y954405D01*
X452097Y954579D01*
X452079Y954752D01*
X452072Y954778D01*
X452068Y954804D01*
X452013Y954970D01*
X451961Y955137D01*
X451948Y955161D01*
X451940Y955186D01*
X451853Y955338D01*
X451769Y955491D01*
X451752Y955512D01*
X451739Y955535D01*
X451524Y955788D01*
X446531Y960781D01*
X446531Y969619D01*
X452781Y975869D01*
X461619Y975869D01*
X467869Y969619D01*
X467869Y960781D01*
X462876Y955788D01*
X462859Y955767D01*
X462838Y955750D01*
X462731Y955612D01*
X462621Y955476D01*
X462608Y955453D01*
X462592Y955432D01*
X462514Y955275D01*
X462432Y955121D01*
X462424Y955095D01*
X462412Y955071D01*
X462367Y954902D01*
X462317Y954735D01*
X462315Y954708D01*
X462308Y954682D01*
X462281Y954352D01*
X462281Y934212D01*
X462283Y934194D01*
X462281Y934176D01*
X462302Y933994D01*
X462321Y933811D01*
X462326Y933794D01*
X462328Y933777D01*
X462385Y933602D01*
X462439Y933426D01*
X462447Y933411D01*
X462453Y933394D01*
X462543Y933234D01*
X462631Y933072D01*
X462642Y933059D01*
X462651Y933043D01*
X462771Y932904D01*
X462888Y932763D01*
X462902Y932752D01*
X462914Y932738D01*
X463060Y932625D01*
X463202Y932511D01*
X463218Y932503D01*
X463232Y932492D01*
X463397Y932410D01*
X463559Y932325D01*
X463576Y932320D01*
X463592Y932312D01*
X463771Y932265D01*
X463946Y932214D01*
X463964Y932212D01*
X463981Y932208D01*
X464312Y932181D01*
X564388Y932181D01*
X564406Y932183D01*
X564424Y932181D01*
X564606Y932202D01*
X564789Y932221D01*
X564806Y932226D01*
X564823Y932228D01*
X564998Y932285D01*
X565174Y932339D01*
X565189Y932347D01*
X565206Y932353D01*
X565366Y932443D01*
X565528Y932531D01*
X565541Y932542D01*
X565557Y932551D01*
X565696Y932671D01*
X565837Y932788D01*
X565848Y932802D01*
X565862Y932814D01*
X565974Y932959D01*
X566089Y933102D01*
X566097Y933118D01*
X566108Y933132D01*
X566190Y933297D01*
X566275Y933459D01*
X566280Y933476D01*
X566288Y933492D01*
X566335Y933671D01*
X566386Y933846D01*
X566388Y933864D01*
X566392Y933881D01*
X566419Y934212D01*
X566419Y954352D01*
X566417Y954378D01*
X566419Y954405D01*
X566397Y954579D01*
X566379Y954752D01*
X566372Y954778D01*
X566368Y954804D01*
X566313Y954970D01*
X566261Y955137D01*
X566248Y955161D01*
X566240Y955186D01*
X566153Y955338D01*
X566069Y955491D01*
X566052Y955512D01*
X566039Y955535D01*
X565824Y955788D01*
X560831Y960781D01*
X560831Y969619D01*
X567081Y975869D01*
X575919Y975869D01*
X582169Y969619D01*
X582169Y960781D01*
X577176Y955788D01*
X577159Y955767D01*
X577138Y955750D01*
X577031Y955612D01*
X576921Y955476D01*
X576908Y955453D01*
X576892Y955432D01*
X576814Y955275D01*
X576732Y955121D01*
X576724Y955095D01*
X576712Y955071D01*
X576667Y954902D01*
X576617Y954735D01*
X576615Y954708D01*
X576608Y954682D01*
X576581Y954352D01*
X576581Y934212D01*
X576583Y934194D01*
X576581Y934176D01*
X576602Y933994D01*
X576621Y933811D01*
X576626Y933794D01*
X576628Y933777D01*
X576685Y933602D01*
X576739Y933426D01*
X576747Y933411D01*
X576753Y933394D01*
X576843Y933234D01*
X576931Y933072D01*
X576942Y933059D01*
X576951Y933043D01*
X577071Y932904D01*
X577188Y932763D01*
X577202Y932752D01*
X577214Y932738D01*
X577360Y932625D01*
X577502Y932511D01*
X577518Y932503D01*
X577532Y932492D01*
X577697Y932410D01*
X577859Y932325D01*
X577876Y932320D01*
X577892Y932312D01*
X578071Y932265D01*
X578246Y932214D01*
X578264Y932212D01*
X578281Y932208D01*
X578612Y932181D01*
X678688Y932181D01*
X678706Y932183D01*
X678724Y932181D01*
X678906Y932202D01*
X679089Y932221D01*
X679106Y932226D01*
X679123Y932228D01*
X679298Y932285D01*
X679474Y932339D01*
X679489Y932347D01*
X679506Y932353D01*
X679666Y932443D01*
X679828Y932531D01*
X679841Y932542D01*
X679857Y932551D01*
X679996Y932671D01*
X680137Y932788D01*
X680148Y932802D01*
X680162Y932814D01*
X680274Y932959D01*
X680389Y933102D01*
X680397Y933118D01*
X680408Y933132D01*
X680490Y933297D01*
X680575Y933459D01*
X680580Y933476D01*
X680588Y933492D01*
X680635Y933671D01*
X680686Y933846D01*
X680688Y933864D01*
X680692Y933881D01*
X680719Y934212D01*
X680719Y954352D01*
X680717Y954378D01*
X680719Y954405D01*
X680697Y954579D01*
X680679Y954752D01*
X680672Y954778D01*
X680668Y954804D01*
X680613Y954970D01*
X680561Y955137D01*
X680548Y955161D01*
X680540Y955186D01*
X680453Y955338D01*
X680369Y955491D01*
X680352Y955512D01*
X680339Y955535D01*
X680124Y955788D01*
X675131Y960781D01*
X675131Y969619D01*
X681381Y975869D01*
X690219Y975869D01*
X696469Y969619D01*
X696469Y960781D01*
X691476Y955788D01*
X691459Y955767D01*
X691438Y955750D01*
X691331Y955612D01*
X691221Y955476D01*
X691208Y955453D01*
X691192Y955432D01*
X691114Y955275D01*
X691032Y955121D01*
X691024Y955095D01*
X691012Y955071D01*
X690967Y954902D01*
X690917Y954735D01*
X690915Y954708D01*
X690908Y954682D01*
X690881Y954352D01*
X690881Y934212D01*
X690883Y934194D01*
X690881Y934176D01*
X690902Y933994D01*
X690921Y933811D01*
X690926Y933794D01*
X690928Y933777D01*
X690985Y933602D01*
X691039Y933426D01*
X691047Y933411D01*
X691053Y933394D01*
X691143Y933234D01*
X691231Y933072D01*
X691242Y933059D01*
X691251Y933043D01*
X691371Y932904D01*
X691488Y932763D01*
X691502Y932752D01*
X691514Y932738D01*
X691660Y932625D01*
X691802Y932511D01*
X691818Y932503D01*
X691832Y932492D01*
X691997Y932410D01*
X692159Y932325D01*
X692176Y932320D01*
X692192Y932312D01*
X692371Y932265D01*
X692546Y932214D01*
X692564Y932212D01*
X692581Y932208D01*
X692912Y932181D01*
X699511Y932181D01*
X701378Y931407D01*
X702807Y929978D01*
X703581Y928111D01*
X703581Y860848D01*
X703583Y860826D01*
X703581Y860803D01*
X703603Y860626D01*
X703621Y860447D01*
X703627Y860426D01*
X703630Y860404D01*
X703686Y860234D01*
X703739Y860062D01*
X703749Y860043D01*
X703756Y860022D01*
X703845Y859866D01*
X703931Y859708D01*
X703945Y859691D01*
X703956Y859672D01*
X704074Y859536D01*
X704188Y859399D01*
X704206Y859385D01*
X704220Y859368D01*
X704363Y859259D01*
X704502Y859147D01*
X704522Y859136D01*
X704539Y859123D01*
X704835Y858971D01*
X707151Y858012D01*
X710438Y854725D01*
X710556Y854441D01*
X710566Y854421D01*
X710573Y854400D01*
X710661Y854243D01*
X710746Y854086D01*
X710760Y854069D01*
X710771Y854049D01*
X710888Y853913D01*
X711002Y853775D01*
X711020Y853761D01*
X711034Y853744D01*
X711175Y853635D01*
X711315Y853522D01*
X711335Y853511D01*
X711352Y853498D01*
X711513Y853418D01*
X711671Y853335D01*
X711693Y853328D01*
X711713Y853318D01*
X711886Y853272D01*
X712058Y853222D01*
X712080Y853220D01*
X712101Y853214D01*
X712432Y853187D01*
X763011Y853187D01*
X764878Y852413D01*
X766152Y851140D01*
X766159Y851134D01*
X766164Y851127D01*
X766315Y851006D01*
X766463Y850884D01*
X766471Y850880D01*
X766478Y850875D01*
X766648Y850786D01*
X766819Y850696D01*
X766828Y850693D01*
X766835Y850689D01*
X767020Y850636D01*
X767205Y850581D01*
X767214Y850580D01*
X767222Y850578D01*
X767413Y850562D01*
X767606Y850545D01*
X767615Y850546D01*
X767624Y850545D01*
X767813Y850567D01*
X768006Y850588D01*
X768015Y850591D01*
X768023Y850592D01*
X768205Y850651D01*
X768390Y850710D01*
X768398Y850714D01*
X768406Y850717D01*
X768573Y850811D01*
X768742Y850904D01*
X768749Y850910D01*
X768757Y850915D01*
X768902Y851040D01*
X769049Y851165D01*
X769055Y851172D01*
X769062Y851178D01*
X769178Y851328D01*
X769299Y851481D01*
X769303Y851489D01*
X769308Y851496D01*
X769393Y851666D01*
X769481Y851840D01*
X769484Y851848D01*
X769488Y851856D01*
X769537Y852042D01*
X769589Y852228D01*
X769590Y852237D01*
X769592Y852245D01*
X769619Y852576D01*
X769619Y931411D01*
X770393Y933278D01*
X771822Y934707D01*
X773689Y935481D01*
X819142Y935481D01*
X819168Y935483D01*
X819195Y935481D01*
X819369Y935503D01*
X819542Y935521D01*
X819568Y935528D01*
X819594Y935532D01*
X819760Y935587D01*
X819927Y935639D01*
X819951Y935652D01*
X819976Y935660D01*
X820128Y935747D01*
X820281Y935831D01*
X820302Y935848D01*
X820325Y935861D01*
X820578Y936076D01*
X821255Y936753D01*
X824009Y937894D01*
X826991Y937894D01*
X829745Y936753D01*
X831853Y934645D01*
X832994Y931891D01*
X832994Y928909D01*
X831853Y926155D01*
X829745Y924047D01*
X826991Y922906D01*
X824009Y922906D01*
X821255Y924047D01*
X820578Y924724D01*
X820557Y924741D01*
X820540Y924762D01*
X820402Y924869D01*
X820266Y924979D01*
X820243Y924992D01*
X820222Y925008D01*
X820065Y925086D01*
X819911Y925168D01*
X819885Y925176D01*
X819861Y925188D01*
X819692Y925233D01*
X819525Y925283D01*
X819498Y925285D01*
X819472Y925292D01*
X819142Y925319D01*
X781812Y925319D01*
X781794Y925317D01*
X781776Y925319D01*
X781594Y925298D01*
X781411Y925279D01*
X781394Y925274D01*
X781377Y925272D01*
X781202Y925215D01*
X781026Y925161D01*
X781011Y925153D01*
X780994Y925147D01*
X780834Y925057D01*
X780672Y924969D01*
X780659Y924958D01*
X780643Y924949D01*
X780504Y924829D01*
X780363Y924712D01*
X780352Y924698D01*
X780338Y924686D01*
X780226Y924541D01*
X780111Y924398D01*
X780103Y924382D01*
X780092Y924368D01*
X780010Y924203D01*
X779925Y924041D01*
X779920Y924024D01*
X779912Y924008D01*
X779865Y923829D01*
X779814Y923654D01*
X779812Y923636D01*
X779808Y923619D01*
X779781Y923288D01*
X779781Y592082D01*
X779782Y592073D01*
X779781Y592064D01*
X779801Y591874D01*
X779821Y591682D01*
X779823Y591673D01*
X779824Y591664D01*
X779882Y591482D01*
X779939Y591297D01*
X779943Y591289D01*
X779946Y591280D01*
X780038Y591113D01*
X780131Y590943D01*
X780136Y590936D01*
X780141Y590928D01*
X780267Y590779D01*
X780388Y590634D01*
X780395Y590628D01*
X780401Y590621D01*
X780553Y590501D01*
X780702Y590381D01*
X780710Y590377D01*
X780717Y590371D01*
X780890Y590283D01*
X781059Y590196D01*
X781068Y590193D01*
X781076Y590189D01*
X781263Y590137D01*
X781446Y590084D01*
X781455Y590084D01*
X781464Y590081D01*
X781655Y590067D01*
X781848Y590051D01*
X781857Y590052D01*
X781865Y590052D01*
X782057Y590076D01*
X782247Y590098D01*
X782256Y590101D01*
X782265Y590102D01*
X782448Y590164D01*
X782630Y590223D01*
X782638Y590228D01*
X782647Y590230D01*
X782813Y590326D01*
X782981Y590421D01*
X782988Y590427D01*
X782995Y590431D01*
X783123Y590539D01*
X785909Y591694D01*
X788891Y591694D01*
X791645Y590553D01*
X793753Y588445D01*
X794894Y585691D01*
X794894Y582709D01*
X793753Y579955D01*
X791645Y577847D01*
X788922Y576719D01*
X788891Y576706D01*
X785909Y576706D01*
X783155Y577847D01*
X782478Y578524D01*
X782457Y578541D01*
X782440Y578562D01*
X782302Y578669D01*
X782166Y578779D01*
X782143Y578792D01*
X782122Y578808D01*
X781965Y578886D01*
X781811Y578968D01*
X781785Y578976D01*
X781761Y578988D01*
X781592Y579033D01*
X781425Y579083D01*
X781398Y579085D01*
X781372Y579092D01*
X781042Y579119D01*
X773689Y579119D01*
X771822Y579893D01*
X770548Y581166D01*
X770541Y581172D01*
X770536Y581179D01*
X770385Y581300D01*
X770237Y581422D01*
X770229Y581426D01*
X770222Y581431D01*
X770052Y581520D01*
X769881Y581610D01*
X769872Y581613D01*
X769865Y581617D01*
X769680Y581670D01*
X769495Y581725D01*
X769486Y581726D01*
X769478Y581728D01*
X769287Y581744D01*
X769094Y581761D01*
X769085Y581760D01*
X769076Y581761D01*
X768887Y581739D01*
X768694Y581718D01*
X768685Y581715D01*
X768677Y581714D01*
X768495Y581655D01*
X768310Y581596D01*
X768302Y581592D01*
X768294Y581589D01*
X768127Y581495D01*
X767958Y581402D01*
X767951Y581396D01*
X767943Y581391D01*
X767798Y581266D01*
X767651Y581141D01*
X767645Y581134D01*
X767638Y581128D01*
X767522Y580978D01*
X767401Y580825D01*
X767397Y580817D01*
X767392Y580810D01*
X767307Y580640D01*
X767219Y580466D01*
X767216Y580458D01*
X767212Y580450D01*
X767163Y580264D01*
X767111Y580078D01*
X767110Y580069D01*
X767108Y580061D01*
X767081Y579730D01*
X767081Y565912D01*
X767083Y565894D01*
X767081Y565876D01*
X767102Y565694D01*
X767121Y565511D01*
X767126Y565494D01*
X767128Y565477D01*
X767185Y565302D01*
X767239Y565126D01*
X767247Y565111D01*
X767253Y565094D01*
X767343Y564934D01*
X767431Y564772D01*
X767442Y564759D01*
X767451Y564743D01*
X767571Y564604D01*
X767688Y564463D01*
X767702Y564452D01*
X767714Y564438D01*
X767859Y564326D01*
X768002Y564211D01*
X768018Y564203D01*
X768032Y564192D01*
X768197Y564110D01*
X768359Y564025D01*
X768376Y564020D01*
X768392Y564012D01*
X768571Y563965D01*
X768746Y563914D01*
X768764Y563912D01*
X768781Y563908D01*
X769112Y563881D01*
X807038Y563881D01*
X807060Y563883D01*
X807082Y563881D01*
X807260Y563903D01*
X807438Y563921D01*
X807460Y563927D01*
X807482Y563930D01*
X807652Y563986D01*
X807823Y564039D01*
X807843Y564049D01*
X807864Y564056D01*
X808020Y564145D01*
X808177Y564231D01*
X808194Y564245D01*
X808214Y564256D01*
X808349Y564374D01*
X808486Y564488D01*
X808500Y564506D01*
X808517Y564520D01*
X808627Y564663D01*
X808739Y564802D01*
X808749Y564822D01*
X808763Y564840D01*
X808912Y565130D01*
X812057Y568275D01*
X815312Y569623D01*
X815320Y569628D01*
X815328Y569630D01*
X815498Y569723D01*
X815667Y569814D01*
X815674Y569819D01*
X815681Y569824D01*
X815829Y569947D01*
X815977Y570070D01*
X815983Y570077D01*
X815989Y570083D01*
X816110Y570234D01*
X816231Y570383D01*
X816235Y570390D01*
X816240Y570398D01*
X816330Y570571D01*
X816418Y570739D01*
X816420Y570748D01*
X816424Y570756D01*
X816477Y570941D01*
X816531Y571126D01*
X816532Y571135D01*
X816534Y571143D01*
X816549Y571331D01*
X816565Y571527D01*
X816564Y571536D01*
X816565Y571544D01*
X816542Y571736D01*
X816520Y571927D01*
X816518Y571935D01*
X816517Y571944D01*
X816456Y572127D01*
X816397Y572310D01*
X816393Y572318D01*
X816390Y572326D01*
X816295Y572493D01*
X816201Y572662D01*
X816195Y572668D01*
X816191Y572676D01*
X816065Y572820D01*
X815939Y572967D01*
X815932Y572973D01*
X815926Y572980D01*
X815774Y573097D01*
X815622Y573216D01*
X815614Y573220D01*
X815607Y573225D01*
X815312Y573377D01*
X812057Y574725D01*
X808913Y577869D01*
X807211Y581977D01*
X807211Y586423D01*
X808913Y590531D01*
X812057Y593675D01*
X816165Y595377D01*
X834835Y595377D01*
X838943Y593675D01*
X842087Y590531D01*
X843789Y586423D01*
X843789Y581977D01*
X842087Y577869D01*
X838943Y574725D01*
X835688Y573377D01*
X835680Y573372D01*
X835672Y573370D01*
X835504Y573278D01*
X835333Y573186D01*
X835326Y573181D01*
X835319Y573176D01*
X835172Y573053D01*
X835023Y572930D01*
X835017Y572923D01*
X835011Y572917D01*
X834891Y572767D01*
X834769Y572617D01*
X834765Y572609D01*
X834760Y572603D01*
X834672Y572432D01*
X834582Y572261D01*
X834580Y572252D01*
X834576Y572244D01*
X834524Y572061D01*
X834469Y571875D01*
X834468Y571865D01*
X834466Y571857D01*
X834451Y571666D01*
X834435Y571473D01*
X834436Y571464D01*
X834435Y571456D01*
X834458Y571266D01*
X834480Y571073D01*
X834482Y571065D01*
X834483Y571056D01*
X834543Y570876D01*
X834603Y570690D01*
X834607Y570682D01*
X834610Y570674D01*
X834705Y570508D01*
X834799Y570339D01*
X834805Y570332D01*
X834809Y570324D01*
X834936Y570179D01*
X835061Y570033D01*
X835068Y570027D01*
X835074Y570020D01*
X835226Y569903D01*
X835378Y569784D01*
X835386Y569780D01*
X835393Y569775D01*
X835688Y569623D01*
X838943Y568275D01*
X842087Y565131D01*
X843789Y561023D01*
X843789Y556577D01*
X842087Y552469D01*
X838943Y549325D01*
X835688Y547977D01*
X835680Y547972D01*
X835672Y547970D01*
X835504Y547878D01*
X835333Y547786D01*
X835326Y547781D01*
X835319Y547776D01*
X835172Y547653D01*
X835023Y547530D01*
X835017Y547523D01*
X835011Y547517D01*
X834891Y547367D01*
X834769Y547217D01*
X834765Y547209D01*
X834760Y547203D01*
X834672Y547032D01*
X834582Y546861D01*
X834580Y546852D01*
X834576Y546844D01*
X834524Y546661D01*
X834469Y546475D01*
X834468Y546465D01*
X834466Y546457D01*
X834451Y546266D01*
X834435Y546073D01*
X834436Y546064D01*
X834435Y546056D01*
X834458Y545866D01*
X834480Y545673D01*
X834482Y545665D01*
X834483Y545656D01*
X834543Y545476D01*
X834603Y545290D01*
X834607Y545282D01*
X834610Y545274D01*
X834705Y545108D01*
X834799Y544939D01*
X834805Y544932D01*
X834809Y544924D01*
X834936Y544779D01*
X835061Y544633D01*
X835068Y544627D01*
X835074Y544620D01*
X835226Y544503D01*
X835378Y544384D01*
X835386Y544380D01*
X835393Y544375D01*
X835688Y544223D01*
X838943Y542875D01*
X842087Y539731D01*
X843789Y535623D01*
X843789Y531177D01*
X842087Y527069D01*
X838943Y523925D01*
X834835Y522223D01*
X832705Y522223D01*
X832696Y522222D01*
X832687Y522223D01*
X832494Y522202D01*
X832305Y522183D01*
X832296Y522181D01*
X832287Y522180D01*
X832103Y522121D01*
X831920Y522065D01*
X831912Y522061D01*
X831903Y522058D01*
X831735Y521965D01*
X831566Y521873D01*
X831559Y521868D01*
X831551Y521863D01*
X831404Y521739D01*
X831256Y521616D01*
X831251Y521609D01*
X831244Y521603D01*
X831124Y521450D01*
X831004Y521302D01*
X831000Y521294D01*
X830994Y521287D01*
X830907Y521114D01*
X830819Y520945D01*
X830816Y520936D01*
X830812Y520928D01*
X830760Y520742D01*
X830707Y520558D01*
X830706Y520549D01*
X830704Y520540D01*
X830690Y520347D01*
X830674Y520156D01*
X830675Y520148D01*
X830675Y520139D01*
X830699Y519946D01*
X830721Y519757D01*
X830724Y519748D01*
X830725Y519739D01*
X830786Y519557D01*
X830846Y519374D01*
X830851Y519366D01*
X830853Y519358D01*
X830949Y519191D01*
X831044Y519023D01*
X831050Y519016D01*
X831054Y519009D01*
X831269Y518756D01*
X836764Y513261D01*
X836777Y513250D01*
X836789Y513236D01*
X836933Y513122D01*
X837075Y513006D01*
X837091Y512998D01*
X837105Y512986D01*
X837269Y512903D01*
X837431Y512817D01*
X837448Y512812D01*
X837464Y512804D01*
X837641Y512755D01*
X837817Y512703D01*
X837835Y512701D01*
X837852Y512696D01*
X838035Y512683D01*
X838218Y512666D01*
X838236Y512668D01*
X838253Y512667D01*
X838435Y512690D01*
X838618Y512710D01*
X838635Y512715D01*
X838653Y512717D01*
X838826Y512775D01*
X839002Y512831D01*
X839018Y512840D01*
X839034Y512845D01*
X839194Y512937D01*
X839354Y513026D01*
X839368Y513037D01*
X839383Y513046D01*
X839636Y513261D01*
X846060Y519685D01*
X855740Y519685D01*
X862585Y512840D01*
X862585Y503160D01*
X856161Y496736D01*
X856150Y496722D01*
X856136Y496711D01*
X856023Y496567D01*
X855906Y496425D01*
X855898Y496409D01*
X855886Y496395D01*
X855803Y496231D01*
X855717Y496069D01*
X855712Y496052D01*
X855704Y496036D01*
X855655Y495859D01*
X855603Y495683D01*
X855601Y495665D01*
X855596Y495648D01*
X855583Y495465D01*
X855566Y495282D01*
X855568Y495264D01*
X855567Y495247D01*
X855590Y495065D01*
X855610Y494882D01*
X855615Y494865D01*
X855617Y494847D01*
X855676Y494673D01*
X855731Y494498D01*
X855740Y494482D01*
X855745Y494466D01*
X855837Y494306D01*
X855926Y494146D01*
X855937Y494132D01*
X855946Y494117D01*
X856161Y493864D01*
X862585Y487440D01*
X862585Y477760D01*
X857177Y472352D01*
X857171Y472345D01*
X857164Y472340D01*
X857044Y472190D01*
X856922Y472041D01*
X856918Y472033D01*
X856912Y472026D01*
X856823Y471854D01*
X856733Y471685D01*
X856731Y471676D01*
X856727Y471669D01*
X856673Y471484D01*
X856618Y471299D01*
X856618Y471290D01*
X856615Y471282D01*
X856600Y471090D01*
X856582Y470898D01*
X856583Y470889D01*
X856582Y470880D01*
X856605Y470691D01*
X856625Y470498D01*
X856628Y470489D01*
X856629Y470481D01*
X856689Y470299D01*
X856747Y470114D01*
X856751Y470106D01*
X856754Y470098D01*
X856849Y469929D01*
X856942Y469762D01*
X856948Y469755D01*
X856952Y469747D01*
X857078Y469601D01*
X857202Y469455D01*
X857209Y469449D01*
X857215Y469442D01*
X857367Y469325D01*
X857518Y469205D01*
X857526Y469201D01*
X857533Y469196D01*
X857705Y469110D01*
X857877Y469023D01*
X857886Y469020D01*
X857894Y469016D01*
X858080Y468966D01*
X858265Y468915D01*
X858274Y468914D01*
X858283Y468912D01*
X858613Y468885D01*
X859329Y468885D01*
X860822Y468266D01*
X861966Y467122D01*
X862585Y465629D01*
X862585Y448771D01*
X861966Y447278D01*
X860822Y446134D01*
X859329Y445515D01*
X842471Y445515D01*
X840978Y446134D01*
X839834Y447278D01*
X839215Y448771D01*
X839215Y449487D01*
X839214Y449496D01*
X839215Y449505D01*
X839194Y449696D01*
X839175Y449887D01*
X839173Y449896D01*
X839172Y449905D01*
X839114Y450087D01*
X839057Y450272D01*
X839053Y450280D01*
X839050Y450289D01*
X838957Y450457D01*
X838865Y450626D01*
X838860Y450633D01*
X838855Y450641D01*
X838731Y450788D01*
X838608Y450936D01*
X838601Y450941D01*
X838595Y450948D01*
X838444Y451067D01*
X838294Y451188D01*
X838286Y451192D01*
X838279Y451198D01*
X838106Y451285D01*
X837937Y451373D01*
X837928Y451376D01*
X837920Y451380D01*
X837734Y451432D01*
X837550Y451485D01*
X837541Y451486D01*
X837532Y451488D01*
X837339Y451502D01*
X837148Y451518D01*
X837140Y451517D01*
X837131Y451517D01*
X836938Y451493D01*
X836749Y451471D01*
X836740Y451468D01*
X836731Y451467D01*
X836548Y451405D01*
X836366Y451346D01*
X836358Y451341D01*
X836350Y451339D01*
X836183Y451243D01*
X836015Y451148D01*
X836008Y451142D01*
X836001Y451138D01*
X835748Y450923D01*
X830340Y445515D01*
X820660Y445515D01*
G37*
%LPD*%
%LPC*%
G36*
X122024Y333053D02*
X122024Y333053D01*
X117449Y334948D01*
X113948Y338449D01*
X112053Y343024D01*
X112053Y347976D01*
X113948Y352551D01*
X117449Y356052D01*
X122024Y357947D01*
X126976Y357947D01*
X131551Y356052D01*
X135052Y352551D01*
X135323Y351895D01*
X135328Y351887D01*
X135330Y351879D01*
X135422Y351710D01*
X135514Y351540D01*
X135519Y351533D01*
X135524Y351525D01*
X135647Y351378D01*
X135770Y351230D01*
X135777Y351224D01*
X135783Y351217D01*
X135933Y351097D01*
X136083Y350976D01*
X136090Y350972D01*
X136097Y350966D01*
X136267Y350879D01*
X136439Y350789D01*
X136448Y350786D01*
X136456Y350782D01*
X136638Y350731D01*
X136825Y350676D01*
X136835Y350675D01*
X136843Y350673D01*
X137033Y350658D01*
X137227Y350641D01*
X137235Y350642D01*
X137244Y350642D01*
X137434Y350665D01*
X137627Y350686D01*
X137635Y350689D01*
X137644Y350690D01*
X137825Y350750D01*
X138010Y350810D01*
X138018Y350814D01*
X138026Y350817D01*
X138194Y350912D01*
X138361Y351006D01*
X138368Y351012D01*
X138376Y351016D01*
X138522Y351143D01*
X138667Y351268D01*
X138673Y351275D01*
X138680Y351281D01*
X138796Y351432D01*
X138916Y351585D01*
X138920Y351593D01*
X138925Y351600D01*
X139077Y351895D01*
X139348Y352551D01*
X142849Y356052D01*
X147424Y357947D01*
X152376Y357947D01*
X156951Y356052D01*
X160452Y352551D01*
X160723Y351895D01*
X160728Y351887D01*
X160730Y351879D01*
X160822Y351710D01*
X160914Y351540D01*
X160919Y351533D01*
X160924Y351525D01*
X161047Y351378D01*
X161170Y351230D01*
X161177Y351224D01*
X161183Y351217D01*
X161333Y351097D01*
X161483Y350976D01*
X161490Y350972D01*
X161497Y350966D01*
X161667Y350879D01*
X161839Y350789D01*
X161848Y350786D01*
X161856Y350782D01*
X162038Y350731D01*
X162225Y350676D01*
X162235Y350675D01*
X162243Y350673D01*
X162433Y350658D01*
X162627Y350641D01*
X162635Y350642D01*
X162644Y350642D01*
X162834Y350665D01*
X163027Y350686D01*
X163035Y350689D01*
X163044Y350690D01*
X163225Y350750D01*
X163410Y350810D01*
X163418Y350814D01*
X163426Y350817D01*
X163594Y350912D01*
X163761Y351006D01*
X163768Y351012D01*
X163776Y351016D01*
X163922Y351143D01*
X164067Y351268D01*
X164073Y351275D01*
X164080Y351281D01*
X164196Y351432D01*
X164316Y351585D01*
X164320Y351593D01*
X164325Y351600D01*
X164477Y351895D01*
X164748Y352551D01*
X168249Y356052D01*
X172824Y357947D01*
X177776Y357947D01*
X182351Y356052D01*
X185852Y352551D01*
X186123Y351895D01*
X186128Y351887D01*
X186130Y351879D01*
X186222Y351710D01*
X186314Y351540D01*
X186319Y351533D01*
X186324Y351525D01*
X186447Y351378D01*
X186570Y351230D01*
X186577Y351224D01*
X186583Y351217D01*
X186733Y351097D01*
X186883Y350976D01*
X186890Y350972D01*
X186897Y350966D01*
X187067Y350879D01*
X187239Y350789D01*
X187248Y350786D01*
X187256Y350782D01*
X187438Y350731D01*
X187625Y350676D01*
X187635Y350675D01*
X187643Y350673D01*
X187833Y350658D01*
X188027Y350641D01*
X188035Y350642D01*
X188044Y350642D01*
X188234Y350665D01*
X188427Y350686D01*
X188435Y350689D01*
X188444Y350690D01*
X188625Y350750D01*
X188810Y350810D01*
X188818Y350814D01*
X188826Y350817D01*
X188994Y350912D01*
X189161Y351006D01*
X189168Y351012D01*
X189176Y351016D01*
X189322Y351143D01*
X189467Y351268D01*
X189473Y351275D01*
X189480Y351281D01*
X189596Y351432D01*
X189716Y351585D01*
X189720Y351593D01*
X189725Y351600D01*
X189877Y351895D01*
X190148Y352551D01*
X193649Y356052D01*
X198224Y357947D01*
X203176Y357947D01*
X207751Y356052D01*
X211252Y352551D01*
X211523Y351895D01*
X211528Y351887D01*
X211530Y351879D01*
X211622Y351710D01*
X211714Y351540D01*
X211719Y351533D01*
X211724Y351525D01*
X211847Y351378D01*
X211970Y351230D01*
X211977Y351224D01*
X211983Y351217D01*
X212133Y351097D01*
X212283Y350976D01*
X212290Y350972D01*
X212297Y350966D01*
X212467Y350879D01*
X212639Y350789D01*
X212648Y350786D01*
X212656Y350782D01*
X212838Y350731D01*
X213025Y350676D01*
X213035Y350675D01*
X213043Y350673D01*
X213233Y350658D01*
X213427Y350641D01*
X213435Y350642D01*
X213444Y350642D01*
X213634Y350665D01*
X213827Y350686D01*
X213835Y350689D01*
X213844Y350690D01*
X214025Y350750D01*
X214210Y350810D01*
X214218Y350814D01*
X214226Y350817D01*
X214394Y350912D01*
X214561Y351006D01*
X214568Y351012D01*
X214576Y351016D01*
X214722Y351143D01*
X214867Y351268D01*
X214873Y351275D01*
X214880Y351281D01*
X214996Y351432D01*
X215116Y351585D01*
X215120Y351593D01*
X215125Y351600D01*
X215277Y351895D01*
X215548Y352551D01*
X219049Y356052D01*
X223624Y357947D01*
X228576Y357947D01*
X233151Y356052D01*
X236652Y352551D01*
X236923Y351895D01*
X236928Y351887D01*
X236930Y351879D01*
X237022Y351710D01*
X237114Y351540D01*
X237119Y351533D01*
X237124Y351525D01*
X237247Y351378D01*
X237370Y351230D01*
X237377Y351224D01*
X237383Y351217D01*
X237533Y351097D01*
X237683Y350976D01*
X237690Y350972D01*
X237697Y350966D01*
X237867Y350879D01*
X238039Y350789D01*
X238048Y350786D01*
X238056Y350782D01*
X238238Y350731D01*
X238425Y350676D01*
X238435Y350675D01*
X238443Y350673D01*
X238633Y350658D01*
X238827Y350641D01*
X238835Y350642D01*
X238844Y350642D01*
X239034Y350665D01*
X239227Y350686D01*
X239235Y350689D01*
X239244Y350690D01*
X239425Y350750D01*
X239610Y350810D01*
X239618Y350814D01*
X239626Y350817D01*
X239794Y350912D01*
X239961Y351006D01*
X239968Y351012D01*
X239976Y351016D01*
X240122Y351143D01*
X240267Y351268D01*
X240273Y351275D01*
X240280Y351281D01*
X240396Y351432D01*
X240516Y351585D01*
X240520Y351593D01*
X240525Y351600D01*
X240677Y351895D01*
X240948Y352551D01*
X244449Y356052D01*
X249024Y357947D01*
X253976Y357947D01*
X258551Y356052D01*
X262052Y352551D01*
X262323Y351895D01*
X262328Y351887D01*
X262330Y351879D01*
X262422Y351710D01*
X262514Y351540D01*
X262519Y351533D01*
X262524Y351525D01*
X262647Y351378D01*
X262770Y351230D01*
X262777Y351224D01*
X262783Y351217D01*
X262933Y351097D01*
X263083Y350976D01*
X263090Y350972D01*
X263097Y350966D01*
X263267Y350879D01*
X263439Y350789D01*
X263448Y350786D01*
X263456Y350782D01*
X263638Y350731D01*
X263825Y350676D01*
X263835Y350675D01*
X263843Y350673D01*
X264033Y350658D01*
X264227Y350641D01*
X264235Y350642D01*
X264244Y350642D01*
X264434Y350665D01*
X264627Y350686D01*
X264635Y350689D01*
X264644Y350690D01*
X264825Y350750D01*
X265010Y350810D01*
X265018Y350814D01*
X265026Y350817D01*
X265194Y350912D01*
X265361Y351006D01*
X265368Y351012D01*
X265376Y351016D01*
X265522Y351143D01*
X265667Y351268D01*
X265673Y351275D01*
X265680Y351281D01*
X265796Y351432D01*
X265916Y351585D01*
X265920Y351593D01*
X265925Y351600D01*
X266077Y351895D01*
X266348Y352551D01*
X269849Y356052D01*
X274424Y357947D01*
X279376Y357947D01*
X283951Y356052D01*
X287452Y352551D01*
X287723Y351895D01*
X287728Y351887D01*
X287730Y351879D01*
X287822Y351710D01*
X287914Y351540D01*
X287919Y351533D01*
X287924Y351525D01*
X288047Y351378D01*
X288170Y351230D01*
X288177Y351224D01*
X288183Y351217D01*
X288333Y351097D01*
X288483Y350976D01*
X288490Y350972D01*
X288497Y350966D01*
X288667Y350879D01*
X288839Y350789D01*
X288848Y350786D01*
X288856Y350782D01*
X289038Y350731D01*
X289225Y350676D01*
X289235Y350675D01*
X289243Y350673D01*
X289433Y350658D01*
X289627Y350641D01*
X289635Y350642D01*
X289644Y350642D01*
X289834Y350665D01*
X290027Y350686D01*
X290035Y350689D01*
X290044Y350690D01*
X290225Y350750D01*
X290410Y350810D01*
X290418Y350814D01*
X290426Y350817D01*
X290594Y350912D01*
X290761Y351006D01*
X290768Y351012D01*
X290776Y351016D01*
X290922Y351143D01*
X291067Y351268D01*
X291073Y351275D01*
X291080Y351281D01*
X291196Y351432D01*
X291316Y351585D01*
X291320Y351593D01*
X291325Y351600D01*
X291477Y351895D01*
X291748Y352551D01*
X295249Y356052D01*
X299824Y357947D01*
X304776Y357947D01*
X309351Y356052D01*
X312852Y352551D01*
X313123Y351895D01*
X313128Y351887D01*
X313130Y351879D01*
X313222Y351710D01*
X313314Y351540D01*
X313319Y351533D01*
X313324Y351525D01*
X313447Y351378D01*
X313570Y351230D01*
X313577Y351224D01*
X313583Y351217D01*
X313733Y351097D01*
X313883Y350976D01*
X313890Y350972D01*
X313897Y350966D01*
X314067Y350879D01*
X314239Y350789D01*
X314248Y350786D01*
X314256Y350782D01*
X314438Y350731D01*
X314625Y350676D01*
X314635Y350675D01*
X314643Y350673D01*
X314833Y350658D01*
X315027Y350641D01*
X315035Y350642D01*
X315044Y350642D01*
X315234Y350665D01*
X315427Y350686D01*
X315435Y350689D01*
X315444Y350690D01*
X315625Y350750D01*
X315810Y350810D01*
X315818Y350814D01*
X315826Y350817D01*
X315994Y350912D01*
X316161Y351006D01*
X316168Y351012D01*
X316176Y351016D01*
X316322Y351143D01*
X316467Y351268D01*
X316473Y351275D01*
X316480Y351281D01*
X316596Y351432D01*
X316716Y351585D01*
X316720Y351593D01*
X316725Y351600D01*
X316877Y351895D01*
X317148Y352551D01*
X320649Y356052D01*
X325224Y357947D01*
X330176Y357947D01*
X334751Y356052D01*
X338252Y352551D01*
X338523Y351895D01*
X338528Y351887D01*
X338530Y351879D01*
X338622Y351710D01*
X338714Y351540D01*
X338719Y351533D01*
X338724Y351525D01*
X338847Y351378D01*
X338970Y351230D01*
X338977Y351224D01*
X338983Y351217D01*
X339133Y351097D01*
X339283Y350976D01*
X339290Y350972D01*
X339297Y350966D01*
X339467Y350879D01*
X339639Y350789D01*
X339648Y350786D01*
X339656Y350782D01*
X339838Y350731D01*
X340025Y350676D01*
X340035Y350675D01*
X340043Y350673D01*
X340233Y350658D01*
X340427Y350641D01*
X340435Y350642D01*
X340444Y350642D01*
X340634Y350665D01*
X340827Y350686D01*
X340835Y350689D01*
X340844Y350690D01*
X341025Y350750D01*
X341210Y350810D01*
X341218Y350814D01*
X341226Y350817D01*
X341394Y350912D01*
X341561Y351006D01*
X341568Y351012D01*
X341576Y351016D01*
X341722Y351143D01*
X341867Y351268D01*
X341873Y351275D01*
X341880Y351281D01*
X341996Y351432D01*
X342116Y351585D01*
X342120Y351593D01*
X342125Y351600D01*
X342277Y351895D01*
X342548Y352551D01*
X346049Y356052D01*
X350624Y357947D01*
X355576Y357947D01*
X360151Y356052D01*
X363652Y352551D01*
X363923Y351895D01*
X363928Y351887D01*
X363930Y351879D01*
X364022Y351710D01*
X364114Y351540D01*
X364119Y351533D01*
X364124Y351525D01*
X364247Y351378D01*
X364370Y351230D01*
X364377Y351224D01*
X364383Y351217D01*
X364533Y351097D01*
X364683Y350976D01*
X364690Y350972D01*
X364697Y350966D01*
X364867Y350879D01*
X365039Y350789D01*
X365048Y350786D01*
X365056Y350782D01*
X365238Y350731D01*
X365425Y350676D01*
X365435Y350675D01*
X365443Y350673D01*
X365633Y350658D01*
X365827Y350641D01*
X365835Y350642D01*
X365844Y350642D01*
X366034Y350665D01*
X366227Y350686D01*
X366235Y350689D01*
X366244Y350690D01*
X366425Y350750D01*
X366610Y350810D01*
X366618Y350814D01*
X366626Y350817D01*
X366794Y350912D01*
X366961Y351006D01*
X366968Y351012D01*
X366976Y351016D01*
X367122Y351143D01*
X367267Y351268D01*
X367273Y351275D01*
X367280Y351281D01*
X367396Y351432D01*
X367516Y351585D01*
X367520Y351593D01*
X367525Y351600D01*
X367677Y351895D01*
X367948Y352551D01*
X371449Y356052D01*
X376024Y357947D01*
X380976Y357947D01*
X385551Y356052D01*
X389052Y352551D01*
X389323Y351895D01*
X389328Y351887D01*
X389330Y351879D01*
X389422Y351710D01*
X389514Y351540D01*
X389519Y351533D01*
X389524Y351525D01*
X389647Y351378D01*
X389770Y351230D01*
X389777Y351224D01*
X389783Y351217D01*
X389933Y351097D01*
X390083Y350976D01*
X390090Y350972D01*
X390097Y350966D01*
X390267Y350879D01*
X390439Y350789D01*
X390448Y350786D01*
X390456Y350782D01*
X390638Y350731D01*
X390825Y350676D01*
X390835Y350675D01*
X390843Y350673D01*
X391033Y350658D01*
X391227Y350641D01*
X391235Y350642D01*
X391244Y350642D01*
X391434Y350665D01*
X391627Y350686D01*
X391635Y350689D01*
X391644Y350690D01*
X391825Y350750D01*
X392010Y350810D01*
X392018Y350814D01*
X392026Y350817D01*
X392194Y350912D01*
X392361Y351006D01*
X392368Y351012D01*
X392376Y351016D01*
X392522Y351143D01*
X392667Y351268D01*
X392673Y351275D01*
X392680Y351281D01*
X392796Y351432D01*
X392916Y351585D01*
X392920Y351593D01*
X392925Y351600D01*
X393077Y351895D01*
X393348Y352551D01*
X396849Y356052D01*
X401424Y357947D01*
X406376Y357947D01*
X410951Y356052D01*
X414452Y352551D01*
X414723Y351895D01*
X414728Y351887D01*
X414730Y351879D01*
X414822Y351710D01*
X414914Y351540D01*
X414919Y351533D01*
X414924Y351525D01*
X415047Y351378D01*
X415170Y351230D01*
X415177Y351224D01*
X415183Y351217D01*
X415333Y351097D01*
X415483Y350976D01*
X415490Y350972D01*
X415497Y350966D01*
X415667Y350879D01*
X415839Y350789D01*
X415848Y350786D01*
X415856Y350782D01*
X416038Y350731D01*
X416225Y350676D01*
X416235Y350675D01*
X416243Y350673D01*
X416433Y350658D01*
X416627Y350641D01*
X416635Y350642D01*
X416644Y350642D01*
X416834Y350665D01*
X417027Y350686D01*
X417035Y350689D01*
X417044Y350690D01*
X417225Y350750D01*
X417410Y350810D01*
X417418Y350814D01*
X417426Y350817D01*
X417594Y350912D01*
X417761Y351006D01*
X417768Y351012D01*
X417776Y351016D01*
X417922Y351143D01*
X418067Y351268D01*
X418073Y351275D01*
X418080Y351281D01*
X418196Y351432D01*
X418316Y351585D01*
X418320Y351593D01*
X418325Y351600D01*
X418477Y351895D01*
X418748Y352551D01*
X422249Y356052D01*
X426824Y357947D01*
X431776Y357947D01*
X436351Y356052D01*
X439852Y352551D01*
X440123Y351895D01*
X440128Y351887D01*
X440130Y351879D01*
X440222Y351710D01*
X440314Y351540D01*
X440319Y351533D01*
X440324Y351525D01*
X440447Y351378D01*
X440570Y351230D01*
X440577Y351224D01*
X440583Y351217D01*
X440733Y351097D01*
X440883Y350976D01*
X440890Y350972D01*
X440897Y350966D01*
X441067Y350879D01*
X441239Y350789D01*
X441248Y350786D01*
X441256Y350782D01*
X441438Y350731D01*
X441625Y350676D01*
X441635Y350675D01*
X441643Y350673D01*
X441833Y350658D01*
X442027Y350641D01*
X442035Y350642D01*
X442044Y350642D01*
X442234Y350665D01*
X442427Y350686D01*
X442435Y350689D01*
X442444Y350690D01*
X442625Y350750D01*
X442810Y350810D01*
X442818Y350814D01*
X442826Y350817D01*
X442994Y350912D01*
X443161Y351006D01*
X443168Y351012D01*
X443176Y351016D01*
X443322Y351143D01*
X443467Y351268D01*
X443473Y351275D01*
X443480Y351281D01*
X443596Y351432D01*
X443716Y351585D01*
X443720Y351593D01*
X443725Y351600D01*
X443877Y351895D01*
X444148Y352551D01*
X447649Y356052D01*
X452224Y357947D01*
X457176Y357947D01*
X461751Y356052D01*
X465252Y352551D01*
X465523Y351895D01*
X465528Y351887D01*
X465530Y351879D01*
X465622Y351710D01*
X465714Y351540D01*
X465719Y351533D01*
X465724Y351525D01*
X465847Y351378D01*
X465970Y351230D01*
X465977Y351224D01*
X465983Y351217D01*
X466133Y351097D01*
X466283Y350976D01*
X466290Y350972D01*
X466297Y350966D01*
X466467Y350879D01*
X466639Y350789D01*
X466648Y350786D01*
X466656Y350782D01*
X466838Y350731D01*
X467025Y350676D01*
X467035Y350675D01*
X467043Y350673D01*
X467233Y350658D01*
X467427Y350641D01*
X467435Y350642D01*
X467444Y350642D01*
X467634Y350665D01*
X467827Y350686D01*
X467835Y350689D01*
X467844Y350690D01*
X468025Y350750D01*
X468210Y350810D01*
X468218Y350814D01*
X468226Y350817D01*
X468394Y350912D01*
X468561Y351006D01*
X468568Y351012D01*
X468576Y351016D01*
X468722Y351143D01*
X468867Y351268D01*
X468873Y351275D01*
X468880Y351281D01*
X468996Y351432D01*
X469116Y351585D01*
X469120Y351593D01*
X469125Y351600D01*
X469277Y351895D01*
X469548Y352551D01*
X473049Y356052D01*
X477624Y357947D01*
X482576Y357947D01*
X487151Y356052D01*
X490652Y352551D01*
X490923Y351895D01*
X490928Y351887D01*
X490930Y351879D01*
X491022Y351710D01*
X491114Y351540D01*
X491119Y351533D01*
X491124Y351525D01*
X491247Y351378D01*
X491370Y351230D01*
X491377Y351224D01*
X491383Y351217D01*
X491533Y351097D01*
X491683Y350976D01*
X491690Y350972D01*
X491697Y350966D01*
X491867Y350879D01*
X492039Y350789D01*
X492048Y350786D01*
X492056Y350782D01*
X492238Y350731D01*
X492425Y350676D01*
X492435Y350675D01*
X492443Y350673D01*
X492633Y350658D01*
X492827Y350641D01*
X492835Y350642D01*
X492844Y350642D01*
X493034Y350665D01*
X493227Y350686D01*
X493235Y350689D01*
X493244Y350690D01*
X493425Y350750D01*
X493610Y350810D01*
X493618Y350814D01*
X493626Y350817D01*
X493794Y350912D01*
X493961Y351006D01*
X493968Y351012D01*
X493976Y351016D01*
X494122Y351143D01*
X494267Y351268D01*
X494273Y351275D01*
X494280Y351281D01*
X494396Y351432D01*
X494516Y351585D01*
X494520Y351593D01*
X494525Y351600D01*
X494677Y351895D01*
X494948Y352551D01*
X498449Y356052D01*
X503024Y357947D01*
X507976Y357947D01*
X512551Y356052D01*
X516052Y352551D01*
X517947Y347976D01*
X517947Y343024D01*
X516052Y338449D01*
X512551Y334948D01*
X507976Y333053D01*
X503024Y333053D01*
X498449Y334948D01*
X494948Y338449D01*
X494677Y339105D01*
X494672Y339113D01*
X494670Y339121D01*
X494578Y339290D01*
X494486Y339460D01*
X494481Y339467D01*
X494476Y339475D01*
X494353Y339621D01*
X494230Y339770D01*
X494223Y339776D01*
X494217Y339783D01*
X494066Y339903D01*
X493917Y340024D01*
X493909Y340028D01*
X493902Y340034D01*
X493730Y340122D01*
X493561Y340211D01*
X493552Y340214D01*
X493544Y340218D01*
X493358Y340270D01*
X493174Y340324D01*
X493166Y340325D01*
X493157Y340327D01*
X492965Y340342D01*
X492773Y340359D01*
X492764Y340358D01*
X492755Y340358D01*
X492564Y340335D01*
X492373Y340314D01*
X492365Y340311D01*
X492356Y340310D01*
X492172Y340249D01*
X491990Y340190D01*
X491982Y340186D01*
X491974Y340183D01*
X491805Y340087D01*
X491638Y339994D01*
X491632Y339988D01*
X491624Y339984D01*
X491478Y339857D01*
X491333Y339732D01*
X491327Y339725D01*
X491320Y339719D01*
X491203Y339567D01*
X491084Y339415D01*
X491080Y339407D01*
X491075Y339400D01*
X490923Y339105D01*
X490652Y338449D01*
X487151Y334948D01*
X482576Y333053D01*
X477624Y333053D01*
X473049Y334948D01*
X469548Y338449D01*
X469277Y339105D01*
X469272Y339113D01*
X469270Y339121D01*
X469178Y339290D01*
X469086Y339460D01*
X469081Y339467D01*
X469076Y339475D01*
X468953Y339621D01*
X468830Y339770D01*
X468823Y339776D01*
X468817Y339783D01*
X468666Y339903D01*
X468517Y340024D01*
X468509Y340028D01*
X468502Y340034D01*
X468330Y340122D01*
X468161Y340211D01*
X468152Y340214D01*
X468144Y340218D01*
X467958Y340270D01*
X467774Y340324D01*
X467766Y340325D01*
X467757Y340327D01*
X467565Y340342D01*
X467373Y340359D01*
X467364Y340358D01*
X467355Y340358D01*
X467164Y340335D01*
X466973Y340314D01*
X466965Y340311D01*
X466956Y340310D01*
X466772Y340249D01*
X466590Y340190D01*
X466582Y340186D01*
X466574Y340183D01*
X466405Y340087D01*
X466238Y339994D01*
X466232Y339988D01*
X466224Y339984D01*
X466078Y339857D01*
X465933Y339732D01*
X465927Y339725D01*
X465920Y339719D01*
X465803Y339567D01*
X465684Y339415D01*
X465680Y339407D01*
X465675Y339400D01*
X465523Y339105D01*
X465252Y338449D01*
X461751Y334948D01*
X457176Y333053D01*
X452224Y333053D01*
X447649Y334948D01*
X444148Y338449D01*
X443877Y339105D01*
X443872Y339113D01*
X443870Y339121D01*
X443778Y339290D01*
X443686Y339460D01*
X443681Y339467D01*
X443676Y339475D01*
X443553Y339621D01*
X443430Y339770D01*
X443423Y339776D01*
X443417Y339783D01*
X443266Y339903D01*
X443117Y340024D01*
X443109Y340028D01*
X443102Y340034D01*
X442930Y340122D01*
X442761Y340211D01*
X442752Y340214D01*
X442744Y340218D01*
X442558Y340270D01*
X442374Y340324D01*
X442366Y340325D01*
X442357Y340327D01*
X442165Y340342D01*
X441973Y340359D01*
X441964Y340358D01*
X441955Y340358D01*
X441764Y340335D01*
X441573Y340314D01*
X441565Y340311D01*
X441556Y340310D01*
X441372Y340249D01*
X441190Y340190D01*
X441182Y340186D01*
X441174Y340183D01*
X441005Y340087D01*
X440838Y339994D01*
X440832Y339988D01*
X440824Y339984D01*
X440678Y339857D01*
X440533Y339732D01*
X440527Y339725D01*
X440520Y339719D01*
X440403Y339567D01*
X440284Y339415D01*
X440280Y339407D01*
X440275Y339400D01*
X440123Y339105D01*
X439852Y338449D01*
X436351Y334948D01*
X431776Y333053D01*
X426824Y333053D01*
X422249Y334948D01*
X418748Y338449D01*
X418477Y339105D01*
X418472Y339113D01*
X418470Y339121D01*
X418378Y339290D01*
X418286Y339460D01*
X418281Y339467D01*
X418276Y339475D01*
X418153Y339621D01*
X418030Y339770D01*
X418023Y339776D01*
X418017Y339783D01*
X417866Y339903D01*
X417717Y340024D01*
X417709Y340028D01*
X417702Y340034D01*
X417530Y340122D01*
X417361Y340211D01*
X417352Y340214D01*
X417344Y340218D01*
X417158Y340270D01*
X416974Y340324D01*
X416966Y340325D01*
X416957Y340327D01*
X416765Y340342D01*
X416573Y340359D01*
X416564Y340358D01*
X416555Y340358D01*
X416364Y340335D01*
X416173Y340314D01*
X416165Y340311D01*
X416156Y340310D01*
X415972Y340249D01*
X415790Y340190D01*
X415782Y340186D01*
X415774Y340183D01*
X415605Y340087D01*
X415438Y339994D01*
X415432Y339988D01*
X415424Y339984D01*
X415278Y339857D01*
X415133Y339732D01*
X415127Y339725D01*
X415120Y339719D01*
X415003Y339567D01*
X414884Y339415D01*
X414880Y339407D01*
X414875Y339400D01*
X414723Y339105D01*
X414452Y338449D01*
X410951Y334948D01*
X406376Y333053D01*
X401424Y333053D01*
X396849Y334948D01*
X393348Y338449D01*
X393077Y339105D01*
X393072Y339113D01*
X393070Y339121D01*
X392978Y339290D01*
X392886Y339460D01*
X392881Y339467D01*
X392876Y339475D01*
X392753Y339621D01*
X392630Y339770D01*
X392623Y339776D01*
X392617Y339783D01*
X392466Y339903D01*
X392317Y340024D01*
X392309Y340028D01*
X392302Y340034D01*
X392130Y340122D01*
X391961Y340211D01*
X391952Y340214D01*
X391944Y340218D01*
X391758Y340270D01*
X391574Y340324D01*
X391566Y340325D01*
X391557Y340327D01*
X391365Y340342D01*
X391173Y340359D01*
X391164Y340358D01*
X391155Y340358D01*
X390964Y340335D01*
X390773Y340314D01*
X390765Y340311D01*
X390756Y340310D01*
X390572Y340249D01*
X390390Y340190D01*
X390382Y340186D01*
X390374Y340183D01*
X390205Y340087D01*
X390038Y339994D01*
X390032Y339988D01*
X390024Y339984D01*
X389878Y339857D01*
X389733Y339732D01*
X389727Y339725D01*
X389720Y339719D01*
X389603Y339567D01*
X389484Y339415D01*
X389480Y339407D01*
X389475Y339400D01*
X389323Y339105D01*
X389052Y338449D01*
X385551Y334948D01*
X380976Y333053D01*
X376024Y333053D01*
X371449Y334948D01*
X367948Y338449D01*
X367677Y339105D01*
X367672Y339113D01*
X367670Y339121D01*
X367578Y339290D01*
X367486Y339460D01*
X367481Y339467D01*
X367476Y339475D01*
X367353Y339621D01*
X367230Y339770D01*
X367223Y339776D01*
X367217Y339783D01*
X367066Y339903D01*
X366917Y340024D01*
X366909Y340028D01*
X366902Y340034D01*
X366730Y340122D01*
X366561Y340211D01*
X366552Y340214D01*
X366544Y340218D01*
X366358Y340270D01*
X366174Y340324D01*
X366166Y340325D01*
X366157Y340327D01*
X365965Y340342D01*
X365773Y340359D01*
X365764Y340358D01*
X365755Y340358D01*
X365564Y340335D01*
X365373Y340314D01*
X365365Y340311D01*
X365356Y340310D01*
X365172Y340249D01*
X364990Y340190D01*
X364982Y340186D01*
X364974Y340183D01*
X364805Y340087D01*
X364638Y339994D01*
X364632Y339988D01*
X364624Y339984D01*
X364478Y339857D01*
X364333Y339732D01*
X364327Y339725D01*
X364320Y339719D01*
X364203Y339567D01*
X364084Y339415D01*
X364080Y339407D01*
X364075Y339400D01*
X363923Y339105D01*
X363652Y338449D01*
X360151Y334948D01*
X355576Y333053D01*
X350624Y333053D01*
X346049Y334948D01*
X342548Y338449D01*
X342277Y339105D01*
X342272Y339113D01*
X342270Y339121D01*
X342178Y339290D01*
X342086Y339460D01*
X342081Y339467D01*
X342076Y339475D01*
X341953Y339621D01*
X341830Y339770D01*
X341823Y339776D01*
X341817Y339783D01*
X341666Y339903D01*
X341517Y340024D01*
X341509Y340028D01*
X341502Y340034D01*
X341330Y340122D01*
X341161Y340211D01*
X341152Y340214D01*
X341144Y340218D01*
X340958Y340270D01*
X340774Y340324D01*
X340766Y340325D01*
X340757Y340327D01*
X340565Y340342D01*
X340373Y340359D01*
X340364Y340358D01*
X340355Y340358D01*
X340164Y340335D01*
X339973Y340314D01*
X339965Y340311D01*
X339956Y340310D01*
X339772Y340249D01*
X339590Y340190D01*
X339582Y340186D01*
X339574Y340183D01*
X339405Y340087D01*
X339238Y339994D01*
X339232Y339988D01*
X339224Y339984D01*
X339078Y339857D01*
X338933Y339732D01*
X338927Y339725D01*
X338920Y339719D01*
X338803Y339567D01*
X338684Y339415D01*
X338680Y339407D01*
X338675Y339400D01*
X338523Y339105D01*
X338252Y338449D01*
X334751Y334948D01*
X330176Y333053D01*
X325224Y333053D01*
X320649Y334948D01*
X317148Y338449D01*
X316877Y339105D01*
X316872Y339113D01*
X316870Y339121D01*
X316778Y339290D01*
X316686Y339460D01*
X316681Y339467D01*
X316676Y339475D01*
X316553Y339621D01*
X316430Y339770D01*
X316423Y339776D01*
X316417Y339783D01*
X316266Y339903D01*
X316117Y340024D01*
X316109Y340028D01*
X316102Y340034D01*
X315930Y340122D01*
X315761Y340211D01*
X315752Y340214D01*
X315744Y340218D01*
X315558Y340270D01*
X315374Y340324D01*
X315366Y340325D01*
X315357Y340327D01*
X315165Y340342D01*
X314973Y340359D01*
X314964Y340358D01*
X314955Y340358D01*
X314764Y340335D01*
X314573Y340314D01*
X314565Y340311D01*
X314556Y340310D01*
X314372Y340249D01*
X314190Y340190D01*
X314182Y340186D01*
X314174Y340183D01*
X314005Y340087D01*
X313838Y339994D01*
X313832Y339988D01*
X313824Y339984D01*
X313678Y339857D01*
X313533Y339732D01*
X313527Y339725D01*
X313520Y339719D01*
X313403Y339567D01*
X313284Y339415D01*
X313280Y339407D01*
X313275Y339400D01*
X313123Y339105D01*
X312852Y338449D01*
X309351Y334948D01*
X304776Y333053D01*
X299824Y333053D01*
X295249Y334948D01*
X291748Y338449D01*
X291477Y339105D01*
X291472Y339113D01*
X291470Y339121D01*
X291378Y339290D01*
X291286Y339460D01*
X291281Y339467D01*
X291276Y339475D01*
X291153Y339621D01*
X291030Y339770D01*
X291023Y339776D01*
X291017Y339783D01*
X290866Y339903D01*
X290717Y340024D01*
X290709Y340028D01*
X290702Y340034D01*
X290530Y340122D01*
X290361Y340211D01*
X290352Y340214D01*
X290344Y340218D01*
X290158Y340270D01*
X289974Y340324D01*
X289966Y340325D01*
X289957Y340327D01*
X289765Y340342D01*
X289573Y340359D01*
X289564Y340358D01*
X289555Y340358D01*
X289364Y340335D01*
X289173Y340314D01*
X289165Y340311D01*
X289156Y340310D01*
X288972Y340249D01*
X288790Y340190D01*
X288782Y340186D01*
X288774Y340183D01*
X288605Y340087D01*
X288438Y339994D01*
X288432Y339988D01*
X288424Y339984D01*
X288278Y339857D01*
X288133Y339732D01*
X288127Y339725D01*
X288120Y339719D01*
X288003Y339567D01*
X287884Y339415D01*
X287880Y339407D01*
X287875Y339400D01*
X287723Y339105D01*
X287452Y338449D01*
X283951Y334948D01*
X279376Y333053D01*
X274424Y333053D01*
X269849Y334948D01*
X266348Y338449D01*
X266077Y339105D01*
X266072Y339113D01*
X266070Y339121D01*
X265978Y339290D01*
X265886Y339460D01*
X265881Y339467D01*
X265876Y339475D01*
X265753Y339621D01*
X265630Y339770D01*
X265623Y339776D01*
X265617Y339783D01*
X265466Y339903D01*
X265317Y340024D01*
X265309Y340028D01*
X265302Y340034D01*
X265130Y340122D01*
X264961Y340211D01*
X264952Y340214D01*
X264944Y340218D01*
X264758Y340270D01*
X264574Y340324D01*
X264566Y340325D01*
X264557Y340327D01*
X264365Y340342D01*
X264173Y340359D01*
X264164Y340358D01*
X264155Y340358D01*
X263964Y340335D01*
X263773Y340314D01*
X263765Y340311D01*
X263756Y340310D01*
X263572Y340249D01*
X263390Y340190D01*
X263382Y340186D01*
X263374Y340183D01*
X263205Y340087D01*
X263038Y339994D01*
X263032Y339988D01*
X263024Y339984D01*
X262878Y339857D01*
X262733Y339732D01*
X262727Y339725D01*
X262720Y339719D01*
X262603Y339567D01*
X262484Y339415D01*
X262480Y339407D01*
X262475Y339400D01*
X262323Y339105D01*
X262052Y338449D01*
X258551Y334948D01*
X253976Y333053D01*
X249024Y333053D01*
X244449Y334948D01*
X240948Y338449D01*
X240677Y339105D01*
X240672Y339113D01*
X240670Y339121D01*
X240578Y339290D01*
X240486Y339460D01*
X240481Y339467D01*
X240476Y339475D01*
X240353Y339621D01*
X240230Y339770D01*
X240223Y339776D01*
X240217Y339783D01*
X240066Y339903D01*
X239917Y340024D01*
X239909Y340028D01*
X239902Y340034D01*
X239730Y340122D01*
X239561Y340211D01*
X239552Y340214D01*
X239544Y340218D01*
X239358Y340270D01*
X239174Y340324D01*
X239166Y340325D01*
X239157Y340327D01*
X238965Y340342D01*
X238773Y340359D01*
X238764Y340358D01*
X238755Y340358D01*
X238564Y340335D01*
X238373Y340314D01*
X238365Y340311D01*
X238356Y340310D01*
X238172Y340249D01*
X237990Y340190D01*
X237982Y340186D01*
X237974Y340183D01*
X237805Y340087D01*
X237638Y339994D01*
X237632Y339988D01*
X237624Y339984D01*
X237478Y339857D01*
X237333Y339732D01*
X237327Y339725D01*
X237320Y339719D01*
X237203Y339567D01*
X237084Y339415D01*
X237080Y339407D01*
X237075Y339400D01*
X236923Y339105D01*
X236652Y338449D01*
X233151Y334948D01*
X228576Y333053D01*
X223624Y333053D01*
X219049Y334948D01*
X215548Y338449D01*
X215277Y339105D01*
X215272Y339113D01*
X215270Y339121D01*
X215178Y339290D01*
X215086Y339460D01*
X215081Y339467D01*
X215076Y339475D01*
X214953Y339621D01*
X214830Y339770D01*
X214823Y339776D01*
X214817Y339783D01*
X214666Y339903D01*
X214517Y340024D01*
X214509Y340028D01*
X214502Y340034D01*
X214330Y340122D01*
X214161Y340211D01*
X214152Y340214D01*
X214144Y340218D01*
X213958Y340270D01*
X213774Y340324D01*
X213766Y340325D01*
X213757Y340327D01*
X213565Y340342D01*
X213373Y340359D01*
X213364Y340358D01*
X213355Y340358D01*
X213164Y340335D01*
X212973Y340314D01*
X212965Y340311D01*
X212956Y340310D01*
X212772Y340249D01*
X212590Y340190D01*
X212582Y340186D01*
X212574Y340183D01*
X212405Y340087D01*
X212238Y339994D01*
X212232Y339988D01*
X212224Y339984D01*
X212078Y339857D01*
X211933Y339732D01*
X211927Y339725D01*
X211920Y339719D01*
X211803Y339567D01*
X211684Y339415D01*
X211680Y339407D01*
X211675Y339400D01*
X211523Y339105D01*
X211252Y338449D01*
X207751Y334948D01*
X203176Y333053D01*
X198224Y333053D01*
X193649Y334948D01*
X190148Y338449D01*
X189877Y339105D01*
X189872Y339113D01*
X189870Y339121D01*
X189778Y339290D01*
X189686Y339460D01*
X189681Y339467D01*
X189676Y339475D01*
X189553Y339621D01*
X189430Y339770D01*
X189423Y339776D01*
X189417Y339783D01*
X189266Y339903D01*
X189117Y340024D01*
X189109Y340028D01*
X189102Y340034D01*
X188930Y340122D01*
X188761Y340211D01*
X188752Y340214D01*
X188744Y340218D01*
X188558Y340270D01*
X188374Y340324D01*
X188366Y340325D01*
X188357Y340327D01*
X188165Y340342D01*
X187973Y340359D01*
X187964Y340358D01*
X187955Y340358D01*
X187764Y340335D01*
X187573Y340314D01*
X187565Y340311D01*
X187556Y340310D01*
X187372Y340249D01*
X187190Y340190D01*
X187182Y340186D01*
X187174Y340183D01*
X187005Y340087D01*
X186838Y339994D01*
X186832Y339988D01*
X186824Y339984D01*
X186678Y339857D01*
X186533Y339732D01*
X186527Y339725D01*
X186520Y339719D01*
X186403Y339567D01*
X186284Y339415D01*
X186280Y339407D01*
X186275Y339400D01*
X186123Y339105D01*
X185852Y338449D01*
X182351Y334948D01*
X177776Y333053D01*
X172824Y333053D01*
X168249Y334948D01*
X164748Y338449D01*
X164477Y339105D01*
X164472Y339113D01*
X164470Y339121D01*
X164378Y339290D01*
X164286Y339460D01*
X164281Y339467D01*
X164276Y339475D01*
X164153Y339621D01*
X164030Y339770D01*
X164023Y339776D01*
X164017Y339783D01*
X163866Y339903D01*
X163717Y340024D01*
X163709Y340028D01*
X163702Y340034D01*
X163530Y340122D01*
X163361Y340211D01*
X163352Y340214D01*
X163344Y340218D01*
X163158Y340270D01*
X162974Y340324D01*
X162966Y340325D01*
X162957Y340327D01*
X162765Y340342D01*
X162573Y340359D01*
X162564Y340358D01*
X162555Y340358D01*
X162364Y340335D01*
X162173Y340314D01*
X162165Y340311D01*
X162156Y340310D01*
X161972Y340249D01*
X161790Y340190D01*
X161782Y340186D01*
X161774Y340183D01*
X161605Y340087D01*
X161438Y339994D01*
X161432Y339988D01*
X161424Y339984D01*
X161278Y339857D01*
X161133Y339732D01*
X161127Y339725D01*
X161120Y339719D01*
X161003Y339567D01*
X160884Y339415D01*
X160880Y339407D01*
X160875Y339400D01*
X160723Y339105D01*
X160452Y338449D01*
X156951Y334948D01*
X152376Y333053D01*
X147424Y333053D01*
X142849Y334948D01*
X139348Y338449D01*
X139077Y339105D01*
X139072Y339113D01*
X139070Y339121D01*
X138978Y339290D01*
X138886Y339460D01*
X138881Y339467D01*
X138876Y339475D01*
X138753Y339621D01*
X138630Y339770D01*
X138623Y339776D01*
X138617Y339783D01*
X138466Y339903D01*
X138317Y340024D01*
X138309Y340028D01*
X138302Y340034D01*
X138130Y340122D01*
X137961Y340211D01*
X137952Y340214D01*
X137944Y340218D01*
X137758Y340270D01*
X137574Y340324D01*
X137566Y340325D01*
X137557Y340327D01*
X137365Y340342D01*
X137173Y340359D01*
X137164Y340358D01*
X137155Y340358D01*
X136964Y340335D01*
X136773Y340314D01*
X136765Y340311D01*
X136756Y340310D01*
X136572Y340249D01*
X136390Y340190D01*
X136382Y340186D01*
X136374Y340183D01*
X136205Y340087D01*
X136038Y339994D01*
X136032Y339988D01*
X136024Y339984D01*
X135878Y339857D01*
X135733Y339732D01*
X135727Y339725D01*
X135720Y339719D01*
X135603Y339567D01*
X135484Y339415D01*
X135480Y339407D01*
X135475Y339400D01*
X135323Y339105D01*
X135052Y338449D01*
X131551Y334948D01*
X126976Y333053D01*
X122024Y333053D01*
G37*
%LPD*%
%LPC*%
G36*
X105951Y407495D02*
X105951Y407495D01*
X104458Y408114D01*
X103314Y409258D01*
X102695Y410751D01*
X102695Y427449D01*
X103314Y428942D01*
X104458Y430086D01*
X105951Y430705D01*
X122649Y430705D01*
X124142Y430086D01*
X125286Y428942D01*
X125905Y427449D01*
X125905Y426332D01*
X125905Y426327D01*
X125905Y426323D01*
X125925Y426128D01*
X125945Y425931D01*
X125946Y425927D01*
X125946Y425922D01*
X126005Y425736D01*
X126063Y425546D01*
X126065Y425542D01*
X126066Y425538D01*
X126162Y425363D01*
X126255Y425192D01*
X126257Y425189D01*
X126260Y425185D01*
X126388Y425033D01*
X126512Y424883D01*
X126516Y424880D01*
X126519Y424877D01*
X126674Y424753D01*
X126826Y424631D01*
X126830Y424628D01*
X126834Y424626D01*
X127011Y424535D01*
X127183Y424445D01*
X127188Y424444D01*
X127192Y424442D01*
X127383Y424388D01*
X127570Y424334D01*
X127575Y424333D01*
X127579Y424332D01*
X127774Y424317D01*
X127972Y424301D01*
X127976Y424301D01*
X127980Y424301D01*
X128175Y424325D01*
X128371Y424348D01*
X128376Y424349D01*
X128380Y424350D01*
X128567Y424412D01*
X128754Y424473D01*
X128758Y424475D01*
X128762Y424476D01*
X128934Y424574D01*
X129105Y424670D01*
X129108Y424673D01*
X129112Y424676D01*
X129260Y424805D01*
X129409Y424934D01*
X129412Y424937D01*
X129416Y424940D01*
X129535Y425096D01*
X129656Y425252D01*
X129658Y425256D01*
X129661Y425259D01*
X129813Y425554D01*
X129862Y425674D01*
X133126Y428938D01*
X137392Y430705D01*
X142008Y430705D01*
X146274Y428938D01*
X149538Y425674D01*
X150523Y423295D01*
X150528Y423287D01*
X150530Y423278D01*
X150622Y423110D01*
X150714Y422940D01*
X150719Y422933D01*
X150724Y422925D01*
X150847Y422779D01*
X150970Y422629D01*
X150977Y422624D01*
X150983Y422617D01*
X151133Y422497D01*
X151283Y422376D01*
X151291Y422372D01*
X151297Y422366D01*
X151468Y422278D01*
X151639Y422189D01*
X151648Y422186D01*
X151656Y422182D01*
X151840Y422130D01*
X152026Y422076D01*
X152034Y422075D01*
X152043Y422072D01*
X152234Y422058D01*
X152427Y422041D01*
X152436Y422042D01*
X152444Y422041D01*
X152634Y422064D01*
X152827Y422086D01*
X152835Y422089D01*
X152844Y422090D01*
X153026Y422150D01*
X153210Y422209D01*
X153218Y422214D01*
X153226Y422216D01*
X153394Y422312D01*
X153562Y422406D01*
X153568Y422411D01*
X153576Y422416D01*
X153721Y422542D01*
X153867Y422667D01*
X153873Y422675D01*
X153880Y422680D01*
X153997Y422834D01*
X154116Y422984D01*
X154120Y422992D01*
X154125Y423000D01*
X154277Y423295D01*
X155262Y425674D01*
X158526Y428938D01*
X162792Y430705D01*
X167408Y430705D01*
X171674Y428938D01*
X174938Y425674D01*
X175923Y423295D01*
X175928Y423287D01*
X175930Y423278D01*
X176022Y423110D01*
X176114Y422940D01*
X176119Y422933D01*
X176124Y422925D01*
X176247Y422779D01*
X176370Y422629D01*
X176377Y422624D01*
X176383Y422617D01*
X176533Y422497D01*
X176683Y422376D01*
X176691Y422372D01*
X176697Y422366D01*
X176868Y422278D01*
X177039Y422189D01*
X177048Y422186D01*
X177056Y422182D01*
X177240Y422130D01*
X177426Y422076D01*
X177434Y422075D01*
X177443Y422072D01*
X177634Y422058D01*
X177827Y422041D01*
X177836Y422042D01*
X177844Y422041D01*
X178034Y422064D01*
X178227Y422086D01*
X178235Y422089D01*
X178244Y422090D01*
X178426Y422150D01*
X178610Y422209D01*
X178618Y422214D01*
X178626Y422216D01*
X178794Y422312D01*
X178962Y422406D01*
X178968Y422411D01*
X178976Y422416D01*
X179121Y422542D01*
X179267Y422667D01*
X179273Y422675D01*
X179280Y422680D01*
X179397Y422834D01*
X179516Y422984D01*
X179520Y422992D01*
X179525Y423000D01*
X179677Y423295D01*
X180662Y425674D01*
X183926Y428938D01*
X188192Y430705D01*
X192808Y430705D01*
X197074Y428938D01*
X200338Y425674D01*
X201323Y423295D01*
X201328Y423287D01*
X201330Y423278D01*
X201422Y423110D01*
X201514Y422940D01*
X201519Y422933D01*
X201524Y422925D01*
X201647Y422779D01*
X201770Y422629D01*
X201777Y422624D01*
X201783Y422617D01*
X201933Y422497D01*
X202083Y422376D01*
X202091Y422372D01*
X202097Y422366D01*
X202268Y422278D01*
X202439Y422189D01*
X202448Y422186D01*
X202456Y422182D01*
X202640Y422130D01*
X202826Y422076D01*
X202834Y422075D01*
X202843Y422072D01*
X203034Y422058D01*
X203227Y422041D01*
X203236Y422042D01*
X203244Y422041D01*
X203434Y422064D01*
X203627Y422086D01*
X203635Y422089D01*
X203644Y422090D01*
X203826Y422150D01*
X204010Y422209D01*
X204018Y422214D01*
X204026Y422216D01*
X204194Y422312D01*
X204362Y422406D01*
X204368Y422411D01*
X204376Y422416D01*
X204521Y422542D01*
X204667Y422667D01*
X204673Y422675D01*
X204680Y422680D01*
X204797Y422834D01*
X204916Y422984D01*
X204920Y422992D01*
X204925Y423000D01*
X205077Y423295D01*
X206062Y425674D01*
X209326Y428938D01*
X213592Y430705D01*
X218208Y430705D01*
X222474Y428938D01*
X225738Y425674D01*
X226723Y423295D01*
X226728Y423287D01*
X226730Y423278D01*
X226822Y423110D01*
X226914Y422940D01*
X226919Y422933D01*
X226924Y422925D01*
X227047Y422779D01*
X227170Y422629D01*
X227177Y422624D01*
X227183Y422617D01*
X227333Y422497D01*
X227483Y422376D01*
X227491Y422372D01*
X227497Y422366D01*
X227668Y422278D01*
X227839Y422189D01*
X227848Y422186D01*
X227856Y422182D01*
X228040Y422130D01*
X228226Y422076D01*
X228234Y422075D01*
X228243Y422072D01*
X228434Y422058D01*
X228627Y422041D01*
X228636Y422042D01*
X228644Y422041D01*
X228834Y422064D01*
X229027Y422086D01*
X229035Y422089D01*
X229044Y422090D01*
X229226Y422150D01*
X229410Y422209D01*
X229418Y422214D01*
X229426Y422216D01*
X229594Y422312D01*
X229762Y422406D01*
X229768Y422411D01*
X229776Y422416D01*
X229921Y422542D01*
X230067Y422667D01*
X230073Y422675D01*
X230080Y422680D01*
X230197Y422834D01*
X230316Y422984D01*
X230320Y422992D01*
X230325Y423000D01*
X230477Y423295D01*
X231462Y425674D01*
X234726Y428938D01*
X238992Y430705D01*
X243608Y430705D01*
X247874Y428938D01*
X251138Y425674D01*
X252123Y423295D01*
X252128Y423287D01*
X252130Y423278D01*
X252222Y423110D01*
X252314Y422940D01*
X252319Y422933D01*
X252324Y422925D01*
X252447Y422779D01*
X252570Y422629D01*
X252577Y422624D01*
X252583Y422617D01*
X252733Y422497D01*
X252883Y422376D01*
X252891Y422372D01*
X252897Y422366D01*
X253068Y422278D01*
X253239Y422189D01*
X253248Y422186D01*
X253256Y422182D01*
X253440Y422130D01*
X253626Y422076D01*
X253634Y422075D01*
X253643Y422072D01*
X253834Y422058D01*
X254027Y422041D01*
X254036Y422042D01*
X254044Y422041D01*
X254234Y422064D01*
X254427Y422086D01*
X254435Y422089D01*
X254444Y422090D01*
X254626Y422150D01*
X254810Y422209D01*
X254818Y422214D01*
X254826Y422216D01*
X254994Y422312D01*
X255162Y422406D01*
X255168Y422411D01*
X255176Y422416D01*
X255321Y422542D01*
X255467Y422667D01*
X255473Y422675D01*
X255480Y422680D01*
X255597Y422834D01*
X255716Y422984D01*
X255720Y422992D01*
X255725Y423000D01*
X255877Y423295D01*
X256862Y425674D01*
X260126Y428938D01*
X264392Y430705D01*
X269008Y430705D01*
X273274Y428938D01*
X276538Y425674D01*
X277523Y423295D01*
X277528Y423287D01*
X277530Y423278D01*
X277622Y423110D01*
X277714Y422940D01*
X277719Y422933D01*
X277724Y422925D01*
X277847Y422779D01*
X277970Y422629D01*
X277977Y422624D01*
X277983Y422617D01*
X278133Y422497D01*
X278283Y422376D01*
X278291Y422372D01*
X278297Y422366D01*
X278468Y422278D01*
X278639Y422189D01*
X278648Y422186D01*
X278656Y422182D01*
X278840Y422130D01*
X279026Y422076D01*
X279034Y422075D01*
X279043Y422072D01*
X279234Y422058D01*
X279427Y422041D01*
X279436Y422042D01*
X279444Y422041D01*
X279634Y422064D01*
X279827Y422086D01*
X279835Y422089D01*
X279844Y422090D01*
X280026Y422150D01*
X280210Y422209D01*
X280218Y422214D01*
X280226Y422216D01*
X280394Y422312D01*
X280562Y422406D01*
X280568Y422411D01*
X280576Y422416D01*
X280721Y422542D01*
X280867Y422667D01*
X280873Y422675D01*
X280880Y422680D01*
X280997Y422834D01*
X281116Y422984D01*
X281120Y422992D01*
X281125Y423000D01*
X281277Y423295D01*
X282262Y425674D01*
X285526Y428938D01*
X289792Y430705D01*
X294408Y430705D01*
X298674Y428938D01*
X301938Y425674D01*
X302923Y423295D01*
X302928Y423287D01*
X302930Y423278D01*
X303022Y423110D01*
X303114Y422940D01*
X303119Y422933D01*
X303124Y422925D01*
X303247Y422779D01*
X303370Y422629D01*
X303377Y422624D01*
X303383Y422617D01*
X303533Y422497D01*
X303683Y422376D01*
X303691Y422372D01*
X303697Y422366D01*
X303868Y422278D01*
X304039Y422189D01*
X304048Y422186D01*
X304056Y422182D01*
X304240Y422130D01*
X304426Y422076D01*
X304434Y422075D01*
X304443Y422072D01*
X304634Y422058D01*
X304827Y422041D01*
X304836Y422042D01*
X304844Y422041D01*
X305034Y422064D01*
X305227Y422086D01*
X305235Y422089D01*
X305244Y422090D01*
X305426Y422150D01*
X305610Y422209D01*
X305618Y422214D01*
X305626Y422216D01*
X305794Y422312D01*
X305962Y422406D01*
X305968Y422411D01*
X305976Y422416D01*
X306121Y422542D01*
X306267Y422667D01*
X306273Y422675D01*
X306280Y422680D01*
X306397Y422834D01*
X306516Y422984D01*
X306520Y422992D01*
X306525Y423000D01*
X306677Y423295D01*
X307662Y425674D01*
X310926Y428938D01*
X315192Y430705D01*
X319808Y430705D01*
X324074Y428938D01*
X327338Y425674D01*
X328323Y423295D01*
X328328Y423287D01*
X328330Y423278D01*
X328422Y423110D01*
X328514Y422940D01*
X328519Y422933D01*
X328524Y422925D01*
X328647Y422779D01*
X328770Y422629D01*
X328777Y422624D01*
X328783Y422617D01*
X328933Y422497D01*
X329083Y422376D01*
X329091Y422372D01*
X329097Y422366D01*
X329268Y422278D01*
X329439Y422189D01*
X329448Y422186D01*
X329456Y422182D01*
X329640Y422130D01*
X329826Y422076D01*
X329834Y422075D01*
X329843Y422072D01*
X330034Y422058D01*
X330227Y422041D01*
X330236Y422042D01*
X330244Y422041D01*
X330434Y422064D01*
X330627Y422086D01*
X330635Y422089D01*
X330644Y422090D01*
X330826Y422150D01*
X331010Y422209D01*
X331018Y422214D01*
X331026Y422216D01*
X331194Y422312D01*
X331362Y422406D01*
X331368Y422411D01*
X331376Y422416D01*
X331521Y422542D01*
X331667Y422667D01*
X331673Y422675D01*
X331680Y422680D01*
X331797Y422834D01*
X331916Y422984D01*
X331920Y422992D01*
X331925Y423000D01*
X332077Y423295D01*
X333062Y425674D01*
X336326Y428938D01*
X340592Y430705D01*
X345208Y430705D01*
X349474Y428938D01*
X352738Y425674D01*
X353723Y423295D01*
X353728Y423287D01*
X353730Y423278D01*
X353822Y423110D01*
X353914Y422940D01*
X353919Y422933D01*
X353924Y422925D01*
X354047Y422779D01*
X354170Y422629D01*
X354177Y422624D01*
X354183Y422617D01*
X354333Y422497D01*
X354483Y422376D01*
X354491Y422372D01*
X354497Y422366D01*
X354668Y422278D01*
X354839Y422189D01*
X354848Y422186D01*
X354856Y422182D01*
X355040Y422130D01*
X355226Y422076D01*
X355234Y422075D01*
X355243Y422072D01*
X355434Y422058D01*
X355627Y422041D01*
X355636Y422042D01*
X355644Y422041D01*
X355834Y422064D01*
X356027Y422086D01*
X356035Y422089D01*
X356044Y422090D01*
X356226Y422150D01*
X356410Y422209D01*
X356418Y422214D01*
X356426Y422216D01*
X356594Y422312D01*
X356762Y422406D01*
X356768Y422411D01*
X356776Y422416D01*
X356921Y422542D01*
X357067Y422667D01*
X357073Y422675D01*
X357080Y422680D01*
X357197Y422834D01*
X357316Y422984D01*
X357320Y422992D01*
X357325Y423000D01*
X357477Y423295D01*
X358462Y425674D01*
X361726Y428938D01*
X365992Y430705D01*
X370608Y430705D01*
X374874Y428938D01*
X378138Y425674D01*
X379123Y423295D01*
X379128Y423287D01*
X379130Y423278D01*
X379222Y423110D01*
X379314Y422940D01*
X379319Y422933D01*
X379324Y422925D01*
X379447Y422779D01*
X379570Y422629D01*
X379577Y422624D01*
X379583Y422617D01*
X379733Y422497D01*
X379883Y422376D01*
X379891Y422372D01*
X379897Y422366D01*
X380068Y422278D01*
X380239Y422189D01*
X380248Y422186D01*
X380256Y422182D01*
X380440Y422130D01*
X380626Y422076D01*
X380634Y422075D01*
X380643Y422072D01*
X380834Y422058D01*
X381027Y422041D01*
X381036Y422042D01*
X381044Y422041D01*
X381234Y422064D01*
X381427Y422086D01*
X381435Y422089D01*
X381444Y422090D01*
X381626Y422150D01*
X381810Y422209D01*
X381818Y422214D01*
X381826Y422216D01*
X381994Y422312D01*
X382162Y422406D01*
X382168Y422411D01*
X382176Y422416D01*
X382321Y422542D01*
X382467Y422667D01*
X382473Y422675D01*
X382480Y422680D01*
X382597Y422834D01*
X382716Y422984D01*
X382720Y422992D01*
X382725Y423000D01*
X382877Y423295D01*
X383862Y425674D01*
X387126Y428938D01*
X391392Y430705D01*
X396008Y430705D01*
X400274Y428938D01*
X403538Y425674D01*
X404523Y423295D01*
X404528Y423287D01*
X404530Y423278D01*
X404622Y423110D01*
X404714Y422940D01*
X404719Y422933D01*
X404724Y422925D01*
X404847Y422779D01*
X404970Y422629D01*
X404977Y422624D01*
X404983Y422617D01*
X405133Y422497D01*
X405283Y422376D01*
X405291Y422372D01*
X405297Y422366D01*
X405468Y422278D01*
X405639Y422189D01*
X405648Y422186D01*
X405656Y422182D01*
X405840Y422130D01*
X406026Y422076D01*
X406034Y422075D01*
X406043Y422072D01*
X406234Y422058D01*
X406427Y422041D01*
X406436Y422042D01*
X406444Y422041D01*
X406634Y422064D01*
X406827Y422086D01*
X406835Y422089D01*
X406844Y422090D01*
X407026Y422150D01*
X407210Y422209D01*
X407218Y422214D01*
X407226Y422216D01*
X407394Y422312D01*
X407562Y422406D01*
X407568Y422411D01*
X407576Y422416D01*
X407721Y422542D01*
X407867Y422667D01*
X407873Y422675D01*
X407880Y422680D01*
X407997Y422834D01*
X408116Y422984D01*
X408120Y422992D01*
X408125Y423000D01*
X408277Y423295D01*
X409262Y425674D01*
X412526Y428938D01*
X416792Y430705D01*
X421408Y430705D01*
X425674Y428938D01*
X428938Y425674D01*
X429923Y423295D01*
X429928Y423287D01*
X429930Y423278D01*
X430023Y423109D01*
X430114Y422940D01*
X430119Y422933D01*
X430124Y422925D01*
X430247Y422778D01*
X430370Y422629D01*
X430377Y422624D01*
X430383Y422617D01*
X430534Y422496D01*
X430683Y422376D01*
X430690Y422372D01*
X430698Y422366D01*
X430871Y422277D01*
X431039Y422189D01*
X431048Y422186D01*
X431056Y422182D01*
X431242Y422129D01*
X431426Y422076D01*
X431435Y422075D01*
X431443Y422072D01*
X431634Y422058D01*
X431827Y422041D01*
X431836Y422042D01*
X431844Y422041D01*
X432036Y422065D01*
X432227Y422086D01*
X432235Y422089D01*
X432244Y422090D01*
X432427Y422150D01*
X432610Y422209D01*
X432618Y422214D01*
X432626Y422216D01*
X432793Y422312D01*
X432962Y422406D01*
X432968Y422411D01*
X432976Y422416D01*
X433120Y422541D01*
X433267Y422667D01*
X433273Y422675D01*
X433280Y422680D01*
X433397Y422833D01*
X433516Y422984D01*
X433520Y422992D01*
X433525Y423000D01*
X433677Y423295D01*
X434662Y425674D01*
X437926Y428938D01*
X442192Y430705D01*
X446808Y430705D01*
X451074Y428938D01*
X454338Y425674D01*
X455323Y423295D01*
X455328Y423287D01*
X455330Y423278D01*
X455422Y423110D01*
X455514Y422940D01*
X455519Y422933D01*
X455524Y422925D01*
X455647Y422778D01*
X455770Y422629D01*
X455777Y422624D01*
X455783Y422617D01*
X455933Y422497D01*
X456083Y422376D01*
X456091Y422372D01*
X456097Y422366D01*
X456268Y422278D01*
X456439Y422189D01*
X456448Y422186D01*
X456456Y422182D01*
X456639Y422130D01*
X456825Y422076D01*
X456835Y422075D01*
X456843Y422072D01*
X457034Y422058D01*
X457227Y422041D01*
X457236Y422042D01*
X457244Y422041D01*
X457434Y422064D01*
X457627Y422086D01*
X457635Y422089D01*
X457644Y422090D01*
X457824Y422150D01*
X458010Y422209D01*
X458018Y422214D01*
X458026Y422216D01*
X458192Y422311D01*
X458361Y422406D01*
X458368Y422411D01*
X458376Y422416D01*
X458521Y422542D01*
X458667Y422667D01*
X458673Y422674D01*
X458680Y422680D01*
X458797Y422833D01*
X458916Y422984D01*
X458920Y422992D01*
X458925Y423000D01*
X459077Y423295D01*
X460062Y425674D01*
X463326Y428938D01*
X467592Y430705D01*
X472208Y430705D01*
X476474Y428938D01*
X479738Y425674D01*
X480723Y423295D01*
X480728Y423287D01*
X480730Y423278D01*
X480822Y423110D01*
X480914Y422940D01*
X480919Y422933D01*
X480924Y422925D01*
X481047Y422778D01*
X481170Y422629D01*
X481177Y422624D01*
X481183Y422617D01*
X481333Y422497D01*
X481483Y422376D01*
X481491Y422372D01*
X481497Y422366D01*
X481668Y422278D01*
X481839Y422189D01*
X481848Y422186D01*
X481856Y422182D01*
X482039Y422130D01*
X482225Y422076D01*
X482235Y422075D01*
X482243Y422072D01*
X482434Y422058D01*
X482627Y422041D01*
X482636Y422042D01*
X482644Y422041D01*
X482834Y422064D01*
X483027Y422086D01*
X483035Y422089D01*
X483044Y422090D01*
X483224Y422150D01*
X483410Y422209D01*
X483418Y422214D01*
X483426Y422216D01*
X483592Y422311D01*
X483761Y422406D01*
X483768Y422411D01*
X483776Y422416D01*
X483921Y422542D01*
X484067Y422667D01*
X484073Y422674D01*
X484080Y422680D01*
X484197Y422833D01*
X484316Y422984D01*
X484320Y422992D01*
X484325Y423000D01*
X484477Y423295D01*
X485462Y425674D01*
X488726Y428938D01*
X492992Y430705D01*
X497608Y430705D01*
X501874Y428938D01*
X505138Y425674D01*
X506905Y421408D01*
X506905Y416792D01*
X505138Y412526D01*
X501874Y409262D01*
X497608Y407495D01*
X492992Y407495D01*
X488726Y409262D01*
X485462Y412526D01*
X484477Y414905D01*
X484472Y414913D01*
X484470Y414922D01*
X484377Y415091D01*
X484286Y415260D01*
X484281Y415267D01*
X484276Y415275D01*
X484153Y415422D01*
X484030Y415571D01*
X484023Y415576D01*
X484017Y415583D01*
X483866Y415704D01*
X483717Y415824D01*
X483710Y415828D01*
X483702Y415834D01*
X483529Y415923D01*
X483361Y416011D01*
X483352Y416014D01*
X483344Y416018D01*
X483158Y416071D01*
X482974Y416124D01*
X482965Y416125D01*
X482957Y416128D01*
X482766Y416142D01*
X482573Y416159D01*
X482564Y416158D01*
X482556Y416159D01*
X482364Y416135D01*
X482173Y416114D01*
X482165Y416111D01*
X482156Y416110D01*
X481973Y416050D01*
X481790Y415991D01*
X481782Y415986D01*
X481774Y415984D01*
X481607Y415888D01*
X481438Y415794D01*
X481432Y415789D01*
X481424Y415784D01*
X481280Y415659D01*
X481133Y415533D01*
X481127Y415525D01*
X481120Y415520D01*
X481003Y415367D01*
X480884Y415216D01*
X480880Y415208D01*
X480875Y415200D01*
X480723Y414905D01*
X479738Y412526D01*
X476474Y409262D01*
X472208Y407495D01*
X467592Y407495D01*
X463326Y409262D01*
X460062Y412526D01*
X459077Y414905D01*
X459072Y414913D01*
X459070Y414922D01*
X458977Y415091D01*
X458886Y415260D01*
X458881Y415267D01*
X458876Y415275D01*
X458753Y415422D01*
X458630Y415571D01*
X458623Y415576D01*
X458617Y415583D01*
X458466Y415704D01*
X458317Y415824D01*
X458310Y415828D01*
X458302Y415834D01*
X458129Y415923D01*
X457961Y416011D01*
X457952Y416014D01*
X457944Y416018D01*
X457758Y416071D01*
X457574Y416124D01*
X457565Y416125D01*
X457557Y416128D01*
X457366Y416142D01*
X457173Y416159D01*
X457164Y416158D01*
X457156Y416159D01*
X456964Y416135D01*
X456773Y416114D01*
X456765Y416111D01*
X456756Y416110D01*
X456573Y416050D01*
X456390Y415991D01*
X456382Y415986D01*
X456374Y415984D01*
X456207Y415888D01*
X456038Y415794D01*
X456032Y415789D01*
X456024Y415784D01*
X455880Y415659D01*
X455733Y415533D01*
X455727Y415525D01*
X455720Y415520D01*
X455603Y415367D01*
X455484Y415216D01*
X455480Y415208D01*
X455475Y415200D01*
X455323Y414905D01*
X454338Y412526D01*
X451074Y409262D01*
X446808Y407495D01*
X442192Y407495D01*
X437926Y409262D01*
X434662Y412526D01*
X433677Y414905D01*
X433672Y414913D01*
X433670Y414922D01*
X433578Y415089D01*
X433486Y415260D01*
X433481Y415267D01*
X433476Y415275D01*
X433353Y415422D01*
X433230Y415571D01*
X433223Y415576D01*
X433217Y415583D01*
X433067Y415703D01*
X432917Y415824D01*
X432909Y415828D01*
X432903Y415834D01*
X432732Y415922D01*
X432561Y416011D01*
X432552Y416014D01*
X432544Y416018D01*
X432361Y416070D01*
X432175Y416124D01*
X432165Y416125D01*
X432157Y416128D01*
X431966Y416142D01*
X431773Y416159D01*
X431764Y416158D01*
X431756Y416159D01*
X431566Y416136D01*
X431373Y416114D01*
X431365Y416111D01*
X431356Y416110D01*
X431176Y416050D01*
X430990Y415991D01*
X430982Y415986D01*
X430974Y415984D01*
X430808Y415889D01*
X430639Y415794D01*
X430632Y415789D01*
X430624Y415784D01*
X430479Y415658D01*
X430333Y415533D01*
X430327Y415526D01*
X430320Y415520D01*
X430203Y415367D01*
X430084Y415216D01*
X430080Y415208D01*
X430075Y415200D01*
X429923Y414905D01*
X428938Y412526D01*
X425674Y409262D01*
X421408Y407495D01*
X416792Y407495D01*
X412526Y409262D01*
X409262Y412526D01*
X408277Y414905D01*
X408272Y414913D01*
X408270Y414922D01*
X408177Y415092D01*
X408086Y415260D01*
X408081Y415267D01*
X408076Y415275D01*
X407952Y415423D01*
X407830Y415571D01*
X407823Y415576D01*
X407817Y415583D01*
X407667Y415703D01*
X407517Y415824D01*
X407509Y415828D01*
X407502Y415834D01*
X407333Y415921D01*
X407161Y416011D01*
X407152Y416014D01*
X407144Y416018D01*
X406962Y416070D01*
X406774Y416124D01*
X406765Y416125D01*
X406757Y416128D01*
X406566Y416142D01*
X406373Y416159D01*
X406364Y416158D01*
X406356Y416159D01*
X406165Y416135D01*
X405973Y416114D01*
X405965Y416111D01*
X405956Y416110D01*
X405774Y416050D01*
X405590Y415991D01*
X405582Y415986D01*
X405574Y415984D01*
X405406Y415888D01*
X405238Y415794D01*
X405232Y415789D01*
X405224Y415784D01*
X405077Y415656D01*
X404933Y415533D01*
X404927Y415525D01*
X404920Y415520D01*
X404803Y415367D01*
X404684Y415215D01*
X404680Y415207D01*
X404675Y415200D01*
X404523Y414905D01*
X403538Y412526D01*
X400274Y409262D01*
X396008Y407495D01*
X391392Y407495D01*
X387126Y409262D01*
X383862Y412526D01*
X382877Y414905D01*
X382872Y414913D01*
X382870Y414922D01*
X382777Y415092D01*
X382686Y415260D01*
X382681Y415267D01*
X382676Y415275D01*
X382552Y415423D01*
X382430Y415571D01*
X382423Y415576D01*
X382417Y415583D01*
X382267Y415703D01*
X382117Y415824D01*
X382109Y415828D01*
X382102Y415834D01*
X381933Y415921D01*
X381761Y416011D01*
X381752Y416014D01*
X381744Y416018D01*
X381562Y416070D01*
X381374Y416124D01*
X381365Y416125D01*
X381357Y416128D01*
X381166Y416142D01*
X380973Y416159D01*
X380964Y416158D01*
X380956Y416159D01*
X380765Y416135D01*
X380573Y416114D01*
X380565Y416111D01*
X380556Y416110D01*
X380374Y416050D01*
X380190Y415991D01*
X380182Y415986D01*
X380174Y415984D01*
X380006Y415888D01*
X379838Y415794D01*
X379832Y415789D01*
X379824Y415784D01*
X379677Y415656D01*
X379533Y415533D01*
X379527Y415525D01*
X379520Y415520D01*
X379403Y415367D01*
X379284Y415215D01*
X379280Y415207D01*
X379275Y415200D01*
X379123Y414905D01*
X378138Y412526D01*
X374874Y409262D01*
X370608Y407495D01*
X365992Y407495D01*
X361726Y409262D01*
X358462Y412526D01*
X357477Y414905D01*
X357472Y414913D01*
X357470Y414922D01*
X357377Y415092D01*
X357286Y415260D01*
X357281Y415267D01*
X357276Y415275D01*
X357152Y415423D01*
X357030Y415571D01*
X357023Y415576D01*
X357017Y415583D01*
X356867Y415703D01*
X356717Y415824D01*
X356709Y415828D01*
X356702Y415834D01*
X356533Y415921D01*
X356361Y416011D01*
X356352Y416014D01*
X356344Y416018D01*
X356162Y416070D01*
X355974Y416124D01*
X355965Y416125D01*
X355957Y416128D01*
X355766Y416142D01*
X355573Y416159D01*
X355564Y416158D01*
X355556Y416159D01*
X355365Y416135D01*
X355173Y416114D01*
X355165Y416111D01*
X355156Y416110D01*
X354974Y416050D01*
X354790Y415991D01*
X354782Y415986D01*
X354774Y415984D01*
X354606Y415888D01*
X354438Y415794D01*
X354432Y415789D01*
X354424Y415784D01*
X354277Y415656D01*
X354133Y415533D01*
X354127Y415525D01*
X354120Y415520D01*
X354003Y415367D01*
X353884Y415215D01*
X353880Y415207D01*
X353875Y415200D01*
X353723Y414905D01*
X352738Y412526D01*
X349474Y409262D01*
X345208Y407495D01*
X340592Y407495D01*
X336326Y409262D01*
X333062Y412526D01*
X332077Y414905D01*
X332072Y414913D01*
X332070Y414922D01*
X331977Y415092D01*
X331886Y415260D01*
X331881Y415267D01*
X331876Y415275D01*
X331752Y415423D01*
X331630Y415571D01*
X331623Y415576D01*
X331617Y415583D01*
X331467Y415703D01*
X331317Y415824D01*
X331309Y415828D01*
X331302Y415834D01*
X331133Y415921D01*
X330961Y416011D01*
X330952Y416014D01*
X330944Y416018D01*
X330762Y416070D01*
X330574Y416124D01*
X330565Y416125D01*
X330557Y416128D01*
X330366Y416142D01*
X330173Y416159D01*
X330164Y416158D01*
X330156Y416159D01*
X329965Y416135D01*
X329773Y416114D01*
X329765Y416111D01*
X329756Y416110D01*
X329574Y416050D01*
X329390Y415991D01*
X329382Y415986D01*
X329374Y415984D01*
X329206Y415888D01*
X329038Y415794D01*
X329032Y415789D01*
X329024Y415784D01*
X328877Y415656D01*
X328733Y415533D01*
X328727Y415525D01*
X328720Y415520D01*
X328603Y415367D01*
X328484Y415215D01*
X328480Y415207D01*
X328475Y415200D01*
X328323Y414905D01*
X327338Y412526D01*
X324074Y409262D01*
X319808Y407495D01*
X315192Y407495D01*
X310926Y409262D01*
X307662Y412526D01*
X306677Y414905D01*
X306672Y414913D01*
X306670Y414922D01*
X306577Y415092D01*
X306486Y415260D01*
X306481Y415267D01*
X306476Y415275D01*
X306352Y415423D01*
X306230Y415571D01*
X306223Y415576D01*
X306217Y415583D01*
X306067Y415703D01*
X305917Y415824D01*
X305909Y415828D01*
X305902Y415834D01*
X305733Y415921D01*
X305561Y416011D01*
X305552Y416014D01*
X305544Y416018D01*
X305362Y416070D01*
X305174Y416124D01*
X305165Y416125D01*
X305157Y416128D01*
X304966Y416142D01*
X304773Y416159D01*
X304764Y416158D01*
X304756Y416159D01*
X304565Y416135D01*
X304373Y416114D01*
X304365Y416111D01*
X304356Y416110D01*
X304174Y416050D01*
X303990Y415991D01*
X303982Y415986D01*
X303974Y415984D01*
X303806Y415888D01*
X303638Y415794D01*
X303632Y415789D01*
X303624Y415784D01*
X303477Y415656D01*
X303333Y415533D01*
X303327Y415525D01*
X303320Y415520D01*
X303203Y415367D01*
X303084Y415215D01*
X303080Y415207D01*
X303075Y415200D01*
X302923Y414905D01*
X301938Y412526D01*
X298674Y409262D01*
X294408Y407495D01*
X289792Y407495D01*
X285526Y409262D01*
X282262Y412526D01*
X281277Y414905D01*
X281272Y414913D01*
X281270Y414922D01*
X281177Y415092D01*
X281086Y415260D01*
X281081Y415267D01*
X281076Y415275D01*
X280952Y415423D01*
X280830Y415571D01*
X280823Y415576D01*
X280817Y415583D01*
X280667Y415703D01*
X280517Y415824D01*
X280509Y415828D01*
X280502Y415834D01*
X280333Y415921D01*
X280161Y416011D01*
X280152Y416014D01*
X280144Y416018D01*
X279962Y416070D01*
X279774Y416124D01*
X279765Y416125D01*
X279757Y416128D01*
X279566Y416142D01*
X279373Y416159D01*
X279364Y416158D01*
X279356Y416159D01*
X279165Y416135D01*
X278973Y416114D01*
X278965Y416111D01*
X278956Y416110D01*
X278774Y416050D01*
X278590Y415991D01*
X278582Y415986D01*
X278574Y415984D01*
X278406Y415888D01*
X278238Y415794D01*
X278232Y415789D01*
X278224Y415784D01*
X278077Y415656D01*
X277933Y415533D01*
X277927Y415525D01*
X277920Y415520D01*
X277803Y415367D01*
X277684Y415215D01*
X277680Y415207D01*
X277675Y415200D01*
X277523Y414905D01*
X276538Y412526D01*
X273274Y409262D01*
X269008Y407495D01*
X264392Y407495D01*
X260126Y409262D01*
X256862Y412526D01*
X255877Y414905D01*
X255872Y414913D01*
X255870Y414922D01*
X255777Y415092D01*
X255686Y415260D01*
X255681Y415267D01*
X255676Y415275D01*
X255552Y415423D01*
X255430Y415571D01*
X255423Y415576D01*
X255417Y415583D01*
X255267Y415703D01*
X255117Y415824D01*
X255109Y415828D01*
X255102Y415834D01*
X254933Y415921D01*
X254761Y416011D01*
X254752Y416014D01*
X254744Y416018D01*
X254562Y416070D01*
X254374Y416124D01*
X254365Y416125D01*
X254357Y416128D01*
X254166Y416142D01*
X253973Y416159D01*
X253964Y416158D01*
X253956Y416159D01*
X253765Y416135D01*
X253573Y416114D01*
X253565Y416111D01*
X253556Y416110D01*
X253374Y416050D01*
X253190Y415991D01*
X253182Y415986D01*
X253174Y415984D01*
X253006Y415888D01*
X252838Y415794D01*
X252832Y415789D01*
X252824Y415784D01*
X252677Y415656D01*
X252533Y415533D01*
X252527Y415525D01*
X252520Y415520D01*
X252403Y415367D01*
X252284Y415215D01*
X252280Y415207D01*
X252275Y415200D01*
X252123Y414905D01*
X251138Y412526D01*
X247874Y409262D01*
X243608Y407495D01*
X238992Y407495D01*
X234726Y409262D01*
X231462Y412526D01*
X230477Y414905D01*
X230472Y414913D01*
X230470Y414922D01*
X230377Y415092D01*
X230286Y415260D01*
X230281Y415267D01*
X230276Y415275D01*
X230152Y415423D01*
X230030Y415571D01*
X230023Y415576D01*
X230017Y415583D01*
X229867Y415703D01*
X229717Y415824D01*
X229709Y415828D01*
X229702Y415834D01*
X229533Y415921D01*
X229361Y416011D01*
X229352Y416014D01*
X229344Y416018D01*
X229162Y416070D01*
X228974Y416124D01*
X228965Y416125D01*
X228957Y416128D01*
X228766Y416142D01*
X228573Y416159D01*
X228564Y416158D01*
X228556Y416159D01*
X228365Y416135D01*
X228173Y416114D01*
X228165Y416111D01*
X228156Y416110D01*
X227974Y416050D01*
X227790Y415991D01*
X227782Y415986D01*
X227774Y415984D01*
X227606Y415888D01*
X227438Y415794D01*
X227432Y415789D01*
X227424Y415784D01*
X227277Y415656D01*
X227133Y415533D01*
X227127Y415525D01*
X227120Y415520D01*
X227003Y415367D01*
X226884Y415215D01*
X226880Y415207D01*
X226875Y415200D01*
X226723Y414905D01*
X225738Y412526D01*
X222474Y409262D01*
X218208Y407495D01*
X213592Y407495D01*
X209326Y409262D01*
X206062Y412526D01*
X205077Y414905D01*
X205072Y414913D01*
X205070Y414922D01*
X204977Y415092D01*
X204886Y415260D01*
X204881Y415267D01*
X204876Y415275D01*
X204752Y415423D01*
X204630Y415571D01*
X204623Y415576D01*
X204617Y415583D01*
X204467Y415703D01*
X204317Y415824D01*
X204309Y415828D01*
X204302Y415834D01*
X204133Y415921D01*
X203961Y416011D01*
X203952Y416014D01*
X203944Y416018D01*
X203762Y416070D01*
X203574Y416124D01*
X203565Y416125D01*
X203557Y416128D01*
X203366Y416142D01*
X203173Y416159D01*
X203164Y416158D01*
X203156Y416159D01*
X202965Y416135D01*
X202773Y416114D01*
X202765Y416111D01*
X202756Y416110D01*
X202574Y416050D01*
X202390Y415991D01*
X202382Y415986D01*
X202374Y415984D01*
X202206Y415888D01*
X202038Y415794D01*
X202032Y415789D01*
X202024Y415784D01*
X201877Y415656D01*
X201733Y415533D01*
X201727Y415525D01*
X201720Y415520D01*
X201603Y415367D01*
X201484Y415215D01*
X201480Y415207D01*
X201475Y415200D01*
X201323Y414905D01*
X200338Y412526D01*
X197074Y409262D01*
X192808Y407495D01*
X188192Y407495D01*
X183926Y409262D01*
X180662Y412526D01*
X179677Y414905D01*
X179672Y414913D01*
X179670Y414922D01*
X179577Y415092D01*
X179486Y415260D01*
X179481Y415267D01*
X179476Y415275D01*
X179352Y415423D01*
X179230Y415571D01*
X179223Y415576D01*
X179217Y415583D01*
X179067Y415703D01*
X178917Y415824D01*
X178909Y415828D01*
X178902Y415834D01*
X178733Y415921D01*
X178561Y416011D01*
X178552Y416014D01*
X178544Y416018D01*
X178362Y416070D01*
X178174Y416124D01*
X178165Y416125D01*
X178157Y416128D01*
X177966Y416142D01*
X177773Y416159D01*
X177764Y416158D01*
X177756Y416159D01*
X177565Y416135D01*
X177373Y416114D01*
X177365Y416111D01*
X177356Y416110D01*
X177174Y416050D01*
X176990Y415991D01*
X176982Y415986D01*
X176974Y415984D01*
X176806Y415888D01*
X176638Y415794D01*
X176632Y415789D01*
X176624Y415784D01*
X176477Y415656D01*
X176333Y415533D01*
X176327Y415525D01*
X176320Y415520D01*
X176203Y415367D01*
X176084Y415215D01*
X176080Y415207D01*
X176075Y415200D01*
X175923Y414905D01*
X174938Y412526D01*
X171674Y409262D01*
X167408Y407495D01*
X162792Y407495D01*
X158526Y409262D01*
X155262Y412526D01*
X154277Y414905D01*
X154272Y414913D01*
X154270Y414922D01*
X154177Y415092D01*
X154086Y415260D01*
X154081Y415267D01*
X154076Y415275D01*
X153952Y415423D01*
X153830Y415571D01*
X153823Y415576D01*
X153817Y415583D01*
X153667Y415703D01*
X153517Y415824D01*
X153509Y415828D01*
X153502Y415834D01*
X153333Y415921D01*
X153161Y416011D01*
X153152Y416014D01*
X153144Y416018D01*
X152962Y416070D01*
X152774Y416124D01*
X152765Y416125D01*
X152757Y416128D01*
X152566Y416142D01*
X152373Y416159D01*
X152364Y416158D01*
X152356Y416159D01*
X152165Y416135D01*
X151973Y416114D01*
X151965Y416111D01*
X151956Y416110D01*
X151774Y416050D01*
X151590Y415991D01*
X151582Y415986D01*
X151574Y415984D01*
X151406Y415888D01*
X151238Y415794D01*
X151232Y415789D01*
X151224Y415784D01*
X151077Y415656D01*
X150933Y415533D01*
X150927Y415525D01*
X150920Y415520D01*
X150803Y415367D01*
X150684Y415215D01*
X150680Y415207D01*
X150675Y415200D01*
X150523Y414905D01*
X149538Y412526D01*
X146274Y409262D01*
X142008Y407495D01*
X137392Y407495D01*
X133126Y409262D01*
X129862Y412526D01*
X129813Y412646D01*
X129811Y412649D01*
X129809Y412654D01*
X129715Y412827D01*
X129622Y413000D01*
X129620Y413004D01*
X129617Y413008D01*
X129493Y413158D01*
X129366Y413311D01*
X129363Y413314D01*
X129360Y413317D01*
X129206Y413441D01*
X129053Y413565D01*
X129049Y413567D01*
X129046Y413569D01*
X128873Y413659D01*
X128697Y413752D01*
X128692Y413753D01*
X128689Y413755D01*
X128503Y413808D01*
X128311Y413865D01*
X128306Y413865D01*
X128302Y413866D01*
X128105Y413882D01*
X127909Y413899D01*
X127905Y413899D01*
X127900Y413899D01*
X127705Y413876D01*
X127509Y413854D01*
X127505Y413853D01*
X127501Y413852D01*
X127316Y413792D01*
X127126Y413731D01*
X127122Y413729D01*
X127118Y413727D01*
X126946Y413631D01*
X126775Y413535D01*
X126771Y413532D01*
X126767Y413530D01*
X126617Y413400D01*
X126469Y413273D01*
X126466Y413269D01*
X126462Y413266D01*
X126343Y413113D01*
X126220Y412956D01*
X126218Y412952D01*
X126216Y412948D01*
X126129Y412775D01*
X126040Y412596D01*
X126038Y412592D01*
X126036Y412588D01*
X125985Y412395D01*
X125933Y412208D01*
X125933Y412203D01*
X125932Y412199D01*
X125905Y411868D01*
X125905Y410751D01*
X125286Y409258D01*
X124142Y408114D01*
X122649Y407495D01*
X105951Y407495D01*
G37*
%LPD*%
%LPC*%
G36*
X528981Y395731D02*
X528981Y395731D01*
X522731Y401981D01*
X522731Y410819D01*
X527724Y415812D01*
X527741Y415833D01*
X527762Y415850D01*
X527869Y415988D01*
X527979Y416124D01*
X527992Y416147D01*
X528008Y416168D01*
X528086Y416325D01*
X528168Y416479D01*
X528176Y416505D01*
X528188Y416529D01*
X528233Y416698D01*
X528283Y416865D01*
X528285Y416892D01*
X528292Y416918D01*
X528319Y417248D01*
X528319Y450088D01*
X528317Y450106D01*
X528319Y450124D01*
X528298Y450306D01*
X528279Y450489D01*
X528274Y450506D01*
X528272Y450523D01*
X528215Y450698D01*
X528161Y450874D01*
X528153Y450889D01*
X528147Y450906D01*
X528057Y451066D01*
X527969Y451228D01*
X527958Y451241D01*
X527949Y451257D01*
X527829Y451396D01*
X527712Y451537D01*
X527698Y451548D01*
X527686Y451562D01*
X527541Y451674D01*
X527398Y451789D01*
X527382Y451797D01*
X527368Y451808D01*
X527203Y451890D01*
X527041Y451975D01*
X527024Y451980D01*
X527008Y451988D01*
X526829Y452035D01*
X526654Y452086D01*
X526636Y452088D01*
X526619Y452092D01*
X526288Y452119D01*
X507114Y452119D01*
X507091Y452117D01*
X507069Y452119D01*
X506892Y452097D01*
X506713Y452079D01*
X506692Y452073D01*
X506669Y452070D01*
X506500Y452014D01*
X506328Y451961D01*
X506308Y451951D01*
X506287Y451944D01*
X506132Y451855D01*
X505974Y451769D01*
X505957Y451755D01*
X505938Y451744D01*
X505802Y451626D01*
X505665Y451512D01*
X505651Y451494D01*
X505634Y451480D01*
X505525Y451337D01*
X505412Y451198D01*
X505402Y451178D01*
X505389Y451160D01*
X505237Y450865D01*
X505138Y450626D01*
X501874Y447362D01*
X497608Y445595D01*
X492992Y445595D01*
X488726Y447362D01*
X485462Y450626D01*
X483695Y454892D01*
X483695Y459508D01*
X485462Y463774D01*
X488726Y467038D01*
X491105Y468023D01*
X491113Y468028D01*
X491122Y468030D01*
X491291Y468123D01*
X491460Y468214D01*
X491467Y468219D01*
X491475Y468224D01*
X491622Y468347D01*
X491771Y468470D01*
X491776Y468477D01*
X491783Y468483D01*
X491904Y468634D01*
X492024Y468783D01*
X492028Y468790D01*
X492034Y468798D01*
X492123Y468971D01*
X492211Y469139D01*
X492214Y469148D01*
X492218Y469156D01*
X492271Y469342D01*
X492324Y469526D01*
X492325Y469535D01*
X492328Y469543D01*
X492342Y469734D01*
X492359Y469927D01*
X492358Y469936D01*
X492359Y469944D01*
X492335Y470136D01*
X492314Y470327D01*
X492311Y470335D01*
X492310Y470344D01*
X492250Y470527D01*
X492191Y470710D01*
X492186Y470718D01*
X492184Y470726D01*
X492088Y470893D01*
X491994Y471062D01*
X491989Y471068D01*
X491984Y471076D01*
X491859Y471220D01*
X491733Y471367D01*
X491725Y471373D01*
X491720Y471380D01*
X491567Y471497D01*
X491416Y471616D01*
X491408Y471620D01*
X491400Y471625D01*
X491105Y471777D01*
X488726Y472762D01*
X485462Y476026D01*
X483695Y480292D01*
X483695Y484908D01*
X485462Y489174D01*
X488726Y492438D01*
X491105Y493423D01*
X491113Y493428D01*
X491122Y493430D01*
X491291Y493523D01*
X491460Y493614D01*
X491467Y493619D01*
X491475Y493624D01*
X491622Y493747D01*
X491771Y493870D01*
X491776Y493877D01*
X491783Y493883D01*
X491904Y494034D01*
X492024Y494183D01*
X492028Y494190D01*
X492034Y494198D01*
X492123Y494371D01*
X492211Y494539D01*
X492214Y494548D01*
X492218Y494556D01*
X492271Y494742D01*
X492324Y494926D01*
X492325Y494935D01*
X492328Y494943D01*
X492342Y495134D01*
X492359Y495327D01*
X492358Y495336D01*
X492359Y495344D01*
X492335Y495536D01*
X492314Y495727D01*
X492311Y495735D01*
X492310Y495744D01*
X492250Y495927D01*
X492191Y496110D01*
X492186Y496118D01*
X492184Y496126D01*
X492088Y496293D01*
X491994Y496462D01*
X491989Y496468D01*
X491984Y496476D01*
X491860Y496619D01*
X491733Y496767D01*
X491725Y496773D01*
X491720Y496780D01*
X491567Y496897D01*
X491416Y497016D01*
X491408Y497020D01*
X491400Y497025D01*
X491105Y497177D01*
X488726Y498162D01*
X485462Y501426D01*
X483695Y505692D01*
X483695Y510308D01*
X485462Y514574D01*
X488726Y517838D01*
X488846Y517887D01*
X488850Y517889D01*
X488854Y517891D01*
X489027Y517985D01*
X489200Y518078D01*
X489204Y518080D01*
X489208Y518083D01*
X489359Y518208D01*
X489511Y518334D01*
X489514Y518337D01*
X489517Y518340D01*
X489640Y518493D01*
X489765Y518647D01*
X489767Y518651D01*
X489769Y518654D01*
X489859Y518826D01*
X489952Y519003D01*
X489953Y519007D01*
X489955Y519011D01*
X490010Y519202D01*
X490065Y519389D01*
X490065Y519394D01*
X490066Y519398D01*
X490083Y519597D01*
X490099Y519791D01*
X490099Y519795D01*
X490099Y519800D01*
X490076Y519996D01*
X490054Y520191D01*
X490053Y520195D01*
X490052Y520199D01*
X489991Y520386D01*
X489931Y520574D01*
X489929Y520578D01*
X489928Y520582D01*
X489830Y520755D01*
X489735Y520925D01*
X489732Y520929D01*
X489730Y520933D01*
X489602Y521081D01*
X489473Y521231D01*
X489469Y521234D01*
X489466Y521238D01*
X489312Y521357D01*
X489156Y521480D01*
X489152Y521482D01*
X489148Y521484D01*
X488972Y521572D01*
X488796Y521660D01*
X488792Y521662D01*
X488788Y521664D01*
X488595Y521716D01*
X488408Y521767D01*
X488403Y521767D01*
X488399Y521768D01*
X488068Y521795D01*
X486951Y521795D01*
X485458Y522414D01*
X484314Y523558D01*
X483695Y525051D01*
X483695Y541749D01*
X484314Y543242D01*
X485458Y544386D01*
X486951Y545005D01*
X503649Y545005D01*
X505142Y544386D01*
X506286Y543242D01*
X506905Y541749D01*
X506905Y525051D01*
X506286Y523558D01*
X505142Y522414D01*
X503649Y521795D01*
X502532Y521795D01*
X502527Y521795D01*
X502523Y521795D01*
X502327Y521775D01*
X502131Y521755D01*
X502127Y521754D01*
X502122Y521754D01*
X501934Y521695D01*
X501746Y521637D01*
X501742Y521635D01*
X501738Y521634D01*
X501566Y521539D01*
X501392Y521445D01*
X501389Y521443D01*
X501385Y521440D01*
X501233Y521313D01*
X501083Y521188D01*
X501080Y521184D01*
X501077Y521181D01*
X500953Y521027D01*
X500831Y520874D01*
X500828Y520870D01*
X500826Y520866D01*
X500735Y520689D01*
X500645Y520517D01*
X500644Y520512D01*
X500642Y520508D01*
X500586Y520313D01*
X500534Y520130D01*
X500533Y520125D01*
X500532Y520121D01*
X500517Y519926D01*
X500501Y519728D01*
X500501Y519724D01*
X500501Y519719D01*
X500525Y519524D01*
X500548Y519329D01*
X500549Y519324D01*
X500550Y519320D01*
X500612Y519133D01*
X500672Y518946D01*
X500675Y518942D01*
X500676Y518938D01*
X500773Y518768D01*
X500870Y518595D01*
X500873Y518592D01*
X500876Y518588D01*
X501004Y518440D01*
X501134Y518291D01*
X501137Y518288D01*
X501140Y518284D01*
X501297Y518164D01*
X501452Y518044D01*
X501456Y518042D01*
X501459Y518039D01*
X501754Y517887D01*
X501874Y517838D01*
X505138Y514574D01*
X506905Y510308D01*
X506905Y505692D01*
X505138Y501426D01*
X501874Y498162D01*
X499495Y497177D01*
X499487Y497172D01*
X499478Y497170D01*
X499311Y497078D01*
X499140Y496986D01*
X499133Y496981D01*
X499125Y496976D01*
X498978Y496853D01*
X498829Y496730D01*
X498824Y496723D01*
X498817Y496717D01*
X498697Y496567D01*
X498576Y496417D01*
X498572Y496409D01*
X498566Y496403D01*
X498478Y496231D01*
X498389Y496061D01*
X498386Y496052D01*
X498382Y496044D01*
X498330Y495861D01*
X498276Y495675D01*
X498275Y495665D01*
X498272Y495657D01*
X498258Y495466D01*
X498241Y495273D01*
X498242Y495264D01*
X498241Y495256D01*
X498264Y495066D01*
X498286Y494873D01*
X498289Y494865D01*
X498290Y494856D01*
X498350Y494676D01*
X498409Y494490D01*
X498414Y494482D01*
X498416Y494474D01*
X498511Y494308D01*
X498606Y494139D01*
X498611Y494132D01*
X498616Y494124D01*
X498742Y493979D01*
X498867Y493833D01*
X498874Y493827D01*
X498880Y493820D01*
X499033Y493703D01*
X499184Y493584D01*
X499192Y493580D01*
X499200Y493575D01*
X499495Y493423D01*
X501874Y492438D01*
X505138Y489174D01*
X506905Y484908D01*
X506905Y480292D01*
X505138Y476026D01*
X501874Y472762D01*
X499495Y471777D01*
X499487Y471772D01*
X499478Y471770D01*
X499311Y471678D01*
X499140Y471586D01*
X499133Y471581D01*
X499125Y471576D01*
X498978Y471453D01*
X498829Y471330D01*
X498824Y471323D01*
X498817Y471317D01*
X498697Y471167D01*
X498576Y471017D01*
X498572Y471009D01*
X498566Y471003D01*
X498478Y470832D01*
X498389Y470661D01*
X498386Y470652D01*
X498382Y470644D01*
X498330Y470461D01*
X498276Y470275D01*
X498275Y470265D01*
X498272Y470257D01*
X498258Y470066D01*
X498241Y469873D01*
X498242Y469864D01*
X498241Y469856D01*
X498264Y469665D01*
X498286Y469473D01*
X498289Y469465D01*
X498290Y469456D01*
X498350Y469276D01*
X498409Y469090D01*
X498414Y469082D01*
X498416Y469074D01*
X498511Y468908D01*
X498606Y468739D01*
X498611Y468732D01*
X498616Y468724D01*
X498742Y468579D01*
X498867Y468433D01*
X498874Y468427D01*
X498880Y468420D01*
X499033Y468303D01*
X499184Y468184D01*
X499192Y468180D01*
X499200Y468175D01*
X499495Y468023D01*
X501874Y467038D01*
X505138Y463774D01*
X505237Y463535D01*
X505247Y463515D01*
X505254Y463494D01*
X505343Y463338D01*
X505427Y463180D01*
X505441Y463163D01*
X505452Y463143D01*
X505570Y463007D01*
X505684Y462869D01*
X505701Y462855D01*
X505715Y462838D01*
X505856Y462729D01*
X505996Y462616D01*
X506016Y462605D01*
X506034Y462592D01*
X506194Y462512D01*
X506353Y462429D01*
X506374Y462422D01*
X506394Y462412D01*
X506567Y462366D01*
X506739Y462316D01*
X506761Y462314D01*
X506783Y462308D01*
X507114Y462281D01*
X604011Y462281D01*
X604029Y462283D01*
X604047Y462281D01*
X604229Y462302D01*
X604412Y462321D01*
X604429Y462326D01*
X604446Y462328D01*
X604621Y462385D01*
X604797Y462439D01*
X604812Y462447D01*
X604829Y462453D01*
X604989Y462543D01*
X605151Y462631D01*
X605164Y462642D01*
X605180Y462651D01*
X605319Y462771D01*
X605460Y462888D01*
X605471Y462902D01*
X605485Y462914D01*
X605597Y463059D01*
X605712Y463202D01*
X605720Y463218D01*
X605731Y463232D01*
X605813Y463397D01*
X605898Y463559D01*
X605903Y463576D01*
X605911Y463592D01*
X605958Y463771D01*
X606009Y463946D01*
X606011Y463964D01*
X606015Y463981D01*
X606042Y464312D01*
X606042Y497642D01*
X606040Y497668D01*
X606042Y497695D01*
X606020Y497869D01*
X606002Y498042D01*
X605995Y498068D01*
X605991Y498094D01*
X605936Y498260D01*
X605884Y498427D01*
X605871Y498451D01*
X605863Y498476D01*
X605776Y498628D01*
X605692Y498781D01*
X605675Y498802D01*
X605662Y498825D01*
X605447Y499078D01*
X604770Y499755D01*
X603629Y502509D01*
X603629Y505491D01*
X604770Y508245D01*
X606878Y510353D01*
X609632Y511494D01*
X612614Y511494D01*
X615368Y510353D01*
X617476Y508245D01*
X618617Y505491D01*
X618617Y502509D01*
X617476Y499755D01*
X616799Y499078D01*
X616782Y499057D01*
X616761Y499040D01*
X616654Y498902D01*
X616544Y498766D01*
X616531Y498743D01*
X616515Y498722D01*
X616437Y498565D01*
X616355Y498411D01*
X616347Y498385D01*
X616335Y498361D01*
X616290Y498192D01*
X616240Y498025D01*
X616238Y497998D01*
X616231Y497972D01*
X616204Y497642D01*
X616204Y456189D01*
X615430Y454322D01*
X614001Y452893D01*
X612134Y452119D01*
X591312Y452119D01*
X591294Y452117D01*
X591276Y452119D01*
X591094Y452098D01*
X590911Y452079D01*
X590894Y452074D01*
X590877Y452072D01*
X590702Y452015D01*
X590526Y451961D01*
X590511Y451953D01*
X590494Y451947D01*
X590334Y451857D01*
X590172Y451769D01*
X590159Y451758D01*
X590143Y451749D01*
X590004Y451629D01*
X589863Y451512D01*
X589852Y451498D01*
X589838Y451486D01*
X589726Y451341D01*
X589611Y451198D01*
X589603Y451182D01*
X589592Y451168D01*
X589510Y451003D01*
X589425Y450841D01*
X589420Y450824D01*
X589412Y450808D01*
X589364Y450629D01*
X589314Y450454D01*
X589312Y450436D01*
X589308Y450419D01*
X589281Y450088D01*
X589281Y417248D01*
X589283Y417222D01*
X589281Y417195D01*
X589303Y417021D01*
X589321Y416848D01*
X589328Y416822D01*
X589332Y416796D01*
X589387Y416630D01*
X589439Y416463D01*
X589452Y416439D01*
X589460Y416414D01*
X589547Y416262D01*
X589631Y416109D01*
X589648Y416088D01*
X589661Y416065D01*
X589876Y415812D01*
X594869Y410819D01*
X594869Y401981D01*
X588619Y395731D01*
X579781Y395731D01*
X573531Y401981D01*
X573531Y410819D01*
X578524Y415812D01*
X578541Y415833D01*
X578562Y415850D01*
X578669Y415988D01*
X578779Y416124D01*
X578792Y416147D01*
X578808Y416168D01*
X578886Y416325D01*
X578968Y416479D01*
X578976Y416505D01*
X578988Y416529D01*
X579033Y416698D01*
X579083Y416865D01*
X579085Y416892D01*
X579092Y416918D01*
X579119Y417248D01*
X579119Y450088D01*
X579117Y450106D01*
X579119Y450124D01*
X579098Y450306D01*
X579079Y450489D01*
X579074Y450506D01*
X579072Y450523D01*
X579015Y450698D01*
X578961Y450874D01*
X578953Y450889D01*
X578947Y450906D01*
X578857Y451066D01*
X578769Y451228D01*
X578758Y451241D01*
X578749Y451257D01*
X578629Y451396D01*
X578512Y451537D01*
X578498Y451548D01*
X578486Y451562D01*
X578341Y451674D01*
X578198Y451789D01*
X578182Y451797D01*
X578168Y451808D01*
X578003Y451890D01*
X577841Y451975D01*
X577824Y451980D01*
X577808Y451988D01*
X577629Y452035D01*
X577454Y452086D01*
X577436Y452088D01*
X577419Y452092D01*
X577088Y452119D01*
X540512Y452119D01*
X540494Y452117D01*
X540476Y452119D01*
X540294Y452098D01*
X540111Y452079D01*
X540094Y452074D01*
X540077Y452072D01*
X539902Y452015D01*
X539726Y451961D01*
X539711Y451953D01*
X539694Y451947D01*
X539534Y451857D01*
X539372Y451769D01*
X539359Y451758D01*
X539343Y451749D01*
X539204Y451629D01*
X539063Y451512D01*
X539052Y451498D01*
X539038Y451486D01*
X538926Y451341D01*
X538811Y451198D01*
X538803Y451182D01*
X538792Y451168D01*
X538710Y451003D01*
X538625Y450841D01*
X538620Y450824D01*
X538612Y450808D01*
X538564Y450629D01*
X538514Y450454D01*
X538512Y450436D01*
X538508Y450419D01*
X538481Y450088D01*
X538481Y417248D01*
X538483Y417222D01*
X538481Y417195D01*
X538503Y417021D01*
X538521Y416848D01*
X538528Y416822D01*
X538532Y416796D01*
X538588Y416630D01*
X538639Y416463D01*
X538652Y416439D01*
X538660Y416414D01*
X538747Y416262D01*
X538831Y416109D01*
X538848Y416088D01*
X538861Y416065D01*
X539076Y415812D01*
X544069Y410819D01*
X544069Y401981D01*
X537819Y395731D01*
X528981Y395731D01*
G37*
%LPD*%
%LPC*%
G36*
X814800Y749685D02*
X814800Y749685D01*
X810274Y751560D01*
X806810Y755024D01*
X804935Y759550D01*
X804935Y764450D01*
X806810Y768976D01*
X810274Y772440D01*
X811200Y772823D01*
X811208Y772828D01*
X811216Y772830D01*
X811387Y772924D01*
X811555Y773014D01*
X811562Y773019D01*
X811570Y773024D01*
X811718Y773148D01*
X811865Y773270D01*
X811871Y773277D01*
X811878Y773283D01*
X811998Y773433D01*
X812119Y773583D01*
X812123Y773591D01*
X812129Y773598D01*
X812216Y773768D01*
X812306Y773939D01*
X812309Y773948D01*
X812313Y773956D01*
X812365Y774141D01*
X812419Y774326D01*
X812420Y774334D01*
X812422Y774343D01*
X812437Y774536D01*
X812454Y774727D01*
X812453Y774736D01*
X812453Y774744D01*
X812430Y774936D01*
X812409Y775127D01*
X812406Y775135D01*
X812405Y775144D01*
X812344Y775326D01*
X812285Y775510D01*
X812281Y775518D01*
X812278Y775526D01*
X812184Y775691D01*
X812089Y775862D01*
X812083Y775868D01*
X812079Y775876D01*
X811952Y776021D01*
X811827Y776167D01*
X811820Y776173D01*
X811814Y776180D01*
X811662Y776297D01*
X811510Y776416D01*
X811502Y776420D01*
X811495Y776425D01*
X811200Y776577D01*
X810274Y776960D01*
X806810Y780424D01*
X804935Y784950D01*
X804935Y789850D01*
X806810Y794376D01*
X810274Y797840D01*
X811200Y798223D01*
X811208Y798228D01*
X811216Y798230D01*
X811387Y798324D01*
X811555Y798414D01*
X811562Y798419D01*
X811570Y798424D01*
X811718Y798548D01*
X811865Y798670D01*
X811871Y798677D01*
X811878Y798683D01*
X811998Y798833D01*
X812119Y798983D01*
X812123Y798991D01*
X812129Y798998D01*
X812216Y799168D01*
X812306Y799339D01*
X812309Y799348D01*
X812313Y799356D01*
X812365Y799541D01*
X812419Y799726D01*
X812420Y799734D01*
X812422Y799743D01*
X812437Y799936D01*
X812454Y800127D01*
X812453Y800136D01*
X812453Y800144D01*
X812430Y800336D01*
X812409Y800527D01*
X812406Y800535D01*
X812405Y800544D01*
X812344Y800726D01*
X812285Y800910D01*
X812281Y800918D01*
X812278Y800926D01*
X812184Y801091D01*
X812089Y801262D01*
X812083Y801268D01*
X812079Y801276D01*
X811952Y801421D01*
X811827Y801567D01*
X811820Y801573D01*
X811814Y801580D01*
X811662Y801697D01*
X811510Y801816D01*
X811502Y801820D01*
X811495Y801825D01*
X811200Y801977D01*
X810274Y802360D01*
X806810Y805824D01*
X804935Y810350D01*
X804935Y815250D01*
X806810Y819776D01*
X810274Y823240D01*
X814156Y824848D01*
X814800Y825115D01*
X836200Y825115D01*
X840726Y823240D01*
X844190Y819776D01*
X846065Y815250D01*
X846065Y810350D01*
X844190Y805824D01*
X840726Y802360D01*
X839800Y801977D01*
X839792Y801972D01*
X839784Y801970D01*
X839616Y801878D01*
X839445Y801786D01*
X839438Y801781D01*
X839430Y801776D01*
X839283Y801653D01*
X839135Y801530D01*
X839129Y801523D01*
X839122Y801517D01*
X839003Y801368D01*
X838881Y801217D01*
X838877Y801209D01*
X838871Y801203D01*
X838784Y801032D01*
X838694Y800861D01*
X838692Y800852D01*
X838687Y800844D01*
X838635Y800661D01*
X838581Y800475D01*
X838580Y800465D01*
X838578Y800457D01*
X838563Y800266D01*
X838546Y800073D01*
X838547Y800064D01*
X838547Y800056D01*
X838570Y799866D01*
X838591Y799673D01*
X838594Y799665D01*
X838595Y799656D01*
X838656Y799473D01*
X838715Y799290D01*
X838719Y799282D01*
X838722Y799274D01*
X838818Y799106D01*
X838911Y798939D01*
X838917Y798932D01*
X838921Y798924D01*
X839048Y798779D01*
X839173Y798633D01*
X839180Y798627D01*
X839186Y798620D01*
X839339Y798502D01*
X839490Y798384D01*
X839498Y798380D01*
X839505Y798375D01*
X839800Y798223D01*
X840726Y797840D01*
X844190Y794376D01*
X846065Y789850D01*
X846065Y784950D01*
X844190Y780424D01*
X840726Y776960D01*
X839800Y776577D01*
X839792Y776572D01*
X839784Y776570D01*
X839616Y776478D01*
X839445Y776386D01*
X839438Y776381D01*
X839430Y776376D01*
X839283Y776253D01*
X839135Y776130D01*
X839129Y776123D01*
X839122Y776117D01*
X839002Y775967D01*
X838881Y775817D01*
X838877Y775809D01*
X838871Y775803D01*
X838784Y775632D01*
X838694Y775461D01*
X838692Y775452D01*
X838687Y775444D01*
X838635Y775261D01*
X838581Y775075D01*
X838580Y775065D01*
X838578Y775057D01*
X838563Y774866D01*
X838546Y774673D01*
X838547Y774664D01*
X838547Y774656D01*
X838570Y774466D01*
X838591Y774273D01*
X838594Y774265D01*
X838595Y774256D01*
X838656Y774073D01*
X838715Y773890D01*
X838719Y773882D01*
X838722Y773874D01*
X838818Y773706D01*
X838911Y773539D01*
X838917Y773532D01*
X838921Y773524D01*
X839048Y773379D01*
X839173Y773233D01*
X839180Y773227D01*
X839186Y773220D01*
X839339Y773102D01*
X839490Y772984D01*
X839498Y772980D01*
X839505Y772975D01*
X839800Y772823D01*
X840726Y772440D01*
X844190Y768976D01*
X846065Y764450D01*
X846065Y759550D01*
X844190Y755024D01*
X840726Y751560D01*
X836200Y749685D01*
X814800Y749685D01*
G37*
%LPD*%
%LPC*%
G36*
X528402Y483234D02*
X528402Y483234D01*
X521334Y490302D01*
X521334Y500298D01*
X527600Y506564D01*
X527612Y506578D01*
X527625Y506589D01*
X527739Y506733D01*
X527855Y506875D01*
X527864Y506891D01*
X527875Y506905D01*
X527958Y507069D01*
X528044Y507231D01*
X528049Y507248D01*
X528057Y507264D01*
X528107Y507441D01*
X528159Y507617D01*
X528160Y507635D01*
X528165Y507652D01*
X528178Y507835D01*
X528195Y508018D01*
X528193Y508036D01*
X528194Y508053D01*
X528171Y508235D01*
X528152Y508418D01*
X528146Y508435D01*
X528144Y508453D01*
X528086Y508627D01*
X528030Y508802D01*
X528021Y508818D01*
X528016Y508834D01*
X527924Y508994D01*
X527835Y509154D01*
X527824Y509168D01*
X527815Y509183D01*
X527600Y509436D01*
X521334Y515702D01*
X521334Y525698D01*
X528402Y532766D01*
X538398Y532766D01*
X545466Y525698D01*
X545466Y515702D01*
X539200Y509436D01*
X539188Y509423D01*
X539175Y509411D01*
X539061Y509267D01*
X538945Y509125D01*
X538936Y509109D01*
X538925Y509095D01*
X538842Y508931D01*
X538756Y508769D01*
X538751Y508752D01*
X538743Y508736D01*
X538694Y508559D01*
X538641Y508383D01*
X538640Y508365D01*
X538635Y508348D01*
X538621Y508164D01*
X538605Y507982D01*
X538607Y507964D01*
X538606Y507947D01*
X538629Y507765D01*
X538648Y507582D01*
X538654Y507565D01*
X538656Y507547D01*
X538714Y507374D01*
X538770Y507198D01*
X538779Y507182D01*
X538784Y507166D01*
X538876Y507006D01*
X538965Y506846D01*
X538976Y506832D01*
X538985Y506817D01*
X539200Y506564D01*
X545466Y500298D01*
X545466Y490302D01*
X538398Y483234D01*
X528402Y483234D01*
G37*
%LPD*%
%LPC*%
G36*
X732181Y675131D02*
X732181Y675131D01*
X725931Y681381D01*
X725931Y690219D01*
X731788Y696076D01*
X731799Y696090D01*
X731813Y696101D01*
X731927Y696245D01*
X732043Y696387D01*
X732051Y696403D01*
X732063Y696417D01*
X732146Y696581D01*
X732232Y696743D01*
X732237Y696760D01*
X732245Y696776D01*
X732294Y696953D01*
X732347Y697129D01*
X732348Y697147D01*
X732353Y697164D01*
X732366Y697347D01*
X732383Y697530D01*
X732381Y697548D01*
X732382Y697565D01*
X732359Y697747D01*
X732340Y697930D01*
X732334Y697947D01*
X732332Y697965D01*
X732274Y698139D01*
X732218Y698314D01*
X732209Y698330D01*
X732204Y698347D01*
X732112Y698506D01*
X732023Y698666D01*
X732012Y698680D01*
X732003Y698695D01*
X731788Y698948D01*
X724534Y706202D01*
X724534Y716198D01*
X731602Y723266D01*
X741598Y723266D01*
X748666Y716198D01*
X748666Y706202D01*
X741412Y698948D01*
X741401Y698935D01*
X741387Y698923D01*
X741273Y698779D01*
X741157Y698637D01*
X741149Y698621D01*
X741137Y698607D01*
X741054Y698443D01*
X740968Y698281D01*
X740963Y698264D01*
X740955Y698248D01*
X740906Y698071D01*
X740853Y697895D01*
X740852Y697878D01*
X740847Y697860D01*
X740834Y697677D01*
X740817Y697494D01*
X740819Y697477D01*
X740818Y697459D01*
X740841Y697277D01*
X740860Y697094D01*
X740866Y697077D01*
X740868Y697059D01*
X740926Y696886D01*
X740982Y696710D01*
X740991Y696695D01*
X740996Y696678D01*
X741088Y696518D01*
X741177Y696358D01*
X741188Y696344D01*
X741197Y696329D01*
X741412Y696076D01*
X747269Y690219D01*
X747269Y681381D01*
X741019Y675131D01*
X732181Y675131D01*
G37*
%LPD*%
%LPC*%
G36*
X731602Y597534D02*
X731602Y597534D01*
X724534Y604602D01*
X724534Y614598D01*
X731788Y621852D01*
X731799Y621865D01*
X731813Y621877D01*
X731926Y622021D01*
X732043Y622163D01*
X732051Y622179D01*
X732063Y622193D01*
X732146Y622357D01*
X732232Y622519D01*
X732237Y622536D01*
X732245Y622552D01*
X732294Y622729D01*
X732347Y622905D01*
X732348Y622922D01*
X732353Y622940D01*
X732366Y623123D01*
X732383Y623306D01*
X732381Y623323D01*
X732382Y623341D01*
X732359Y623523D01*
X732340Y623706D01*
X732334Y623723D01*
X732332Y623741D01*
X732274Y623914D01*
X732218Y624090D01*
X732209Y624105D01*
X732204Y624122D01*
X732112Y624282D01*
X732023Y624442D01*
X732012Y624456D01*
X732003Y624471D01*
X731788Y624724D01*
X725931Y630581D01*
X725931Y639419D01*
X732181Y645669D01*
X741019Y645669D01*
X747269Y639419D01*
X747269Y630581D01*
X741412Y624724D01*
X741401Y624710D01*
X741387Y624699D01*
X741273Y624555D01*
X741157Y624413D01*
X741149Y624397D01*
X741137Y624383D01*
X741054Y624219D01*
X740968Y624057D01*
X740963Y624040D01*
X740955Y624024D01*
X740906Y623847D01*
X740853Y623671D01*
X740852Y623653D01*
X740847Y623636D01*
X740834Y623453D01*
X740817Y623270D01*
X740819Y623252D01*
X740818Y623235D01*
X740841Y623052D01*
X740860Y622870D01*
X740866Y622853D01*
X740868Y622835D01*
X740926Y622661D01*
X740982Y622486D01*
X740991Y622470D01*
X740996Y622453D01*
X741088Y622294D01*
X741177Y622134D01*
X741188Y622120D01*
X741197Y622105D01*
X741412Y621852D01*
X748666Y614598D01*
X748666Y604602D01*
X741598Y597534D01*
X731602Y597534D01*
G37*
%LPD*%
%LPC*%
G36*
X66205Y18935D02*
X66205Y18935D01*
X60117Y21457D01*
X55457Y26117D01*
X52935Y32205D01*
X52935Y38795D01*
X55457Y44883D01*
X60117Y49543D01*
X66205Y52065D01*
X72795Y52065D01*
X78883Y49543D01*
X83543Y44883D01*
X86065Y38795D01*
X86065Y32205D01*
X83543Y26117D01*
X78883Y21457D01*
X72795Y18935D01*
X66205Y18935D01*
G37*
%LPD*%
%LPC*%
G36*
X816205Y18935D02*
X816205Y18935D01*
X810117Y21457D01*
X805457Y26117D01*
X802935Y32205D01*
X802935Y38795D01*
X805457Y44883D01*
X810117Y49543D01*
X816205Y52065D01*
X822795Y52065D01*
X828883Y49543D01*
X833543Y44883D01*
X836065Y38795D01*
X836065Y32205D01*
X833543Y26117D01*
X828883Y21457D01*
X822795Y18935D01*
X816205Y18935D01*
G37*
%LPD*%
%LPC*%
G36*
X66205Y328935D02*
X66205Y328935D01*
X60117Y331457D01*
X55457Y336117D01*
X52935Y342205D01*
X52935Y348795D01*
X55457Y354883D01*
X60117Y359543D01*
X65379Y361723D01*
X66205Y362065D01*
X72795Y362065D01*
X78883Y359543D01*
X83543Y354883D01*
X86065Y348795D01*
X86065Y342205D01*
X83543Y336117D01*
X78883Y331457D01*
X72795Y328935D01*
X66205Y328935D01*
G37*
%LPD*%
%LPC*%
G36*
X816205Y328935D02*
X816205Y328935D01*
X810117Y331457D01*
X805457Y336117D01*
X802935Y342205D01*
X802935Y348795D01*
X805457Y354883D01*
X810117Y359543D01*
X815379Y361723D01*
X816205Y362065D01*
X822795Y362065D01*
X828883Y359543D01*
X833543Y354883D01*
X836065Y348795D01*
X836065Y342205D01*
X833543Y336117D01*
X828883Y331457D01*
X822795Y328935D01*
X816205Y328935D01*
G37*
%LPD*%
%LPC*%
G36*
X389344Y836421D02*
X389344Y836421D01*
X385049Y838200D01*
X381762Y841487D01*
X379983Y845782D01*
X379983Y850430D01*
X381762Y854725D01*
X385049Y858012D01*
X389344Y859791D01*
X409232Y859791D01*
X413527Y858012D01*
X416814Y854725D01*
X418593Y850430D01*
X418593Y845782D01*
X416814Y841487D01*
X413527Y838200D01*
X409232Y836421D01*
X389344Y836421D01*
G37*
%LPD*%
%LPC*%
G36*
X503644Y836421D02*
X503644Y836421D01*
X499349Y838200D01*
X496062Y841487D01*
X494283Y845782D01*
X494283Y850430D01*
X496062Y854725D01*
X499349Y858012D01*
X503644Y859791D01*
X523532Y859791D01*
X527827Y858012D01*
X531114Y854725D01*
X532893Y850430D01*
X532893Y845782D01*
X531114Y841487D01*
X527827Y838200D01*
X523532Y836421D01*
X503644Y836421D01*
G37*
%LPD*%
%LPC*%
G36*
X275044Y836421D02*
X275044Y836421D01*
X270749Y838200D01*
X267462Y841487D01*
X265683Y845782D01*
X265683Y850430D01*
X267462Y854725D01*
X270749Y858012D01*
X275044Y859791D01*
X294932Y859791D01*
X299227Y858012D01*
X302514Y854725D01*
X304293Y850430D01*
X304293Y845782D01*
X302514Y841487D01*
X299227Y838200D01*
X294932Y836421D01*
X275044Y836421D01*
G37*
%LPD*%
%LPC*%
G36*
X46444Y836421D02*
X46444Y836421D01*
X42149Y838200D01*
X38862Y841487D01*
X37083Y845782D01*
X37083Y850430D01*
X38862Y854725D01*
X42149Y858012D01*
X46444Y859791D01*
X66332Y859791D01*
X70627Y858012D01*
X73914Y854725D01*
X75693Y850430D01*
X75693Y845782D01*
X73914Y841487D01*
X70627Y838200D01*
X66332Y836421D01*
X46444Y836421D01*
G37*
%LPD*%
%LPC*%
G36*
X617944Y836421D02*
X617944Y836421D01*
X613649Y838200D01*
X610362Y841487D01*
X608583Y845782D01*
X608583Y850430D01*
X610362Y854725D01*
X613649Y858012D01*
X617944Y859791D01*
X637832Y859791D01*
X642127Y858012D01*
X645414Y854725D01*
X647193Y850430D01*
X647193Y845782D01*
X645414Y841487D01*
X642127Y838200D01*
X637832Y836421D01*
X617944Y836421D01*
G37*
%LPD*%
%LPC*%
G36*
X241770Y633983D02*
X241770Y633983D01*
X237475Y635762D01*
X234188Y639049D01*
X232409Y643344D01*
X232409Y663232D01*
X234188Y667527D01*
X237475Y670814D01*
X241770Y672593D01*
X246418Y672593D01*
X250713Y670814D01*
X254000Y667527D01*
X255779Y663232D01*
X255779Y643344D01*
X254000Y639049D01*
X250713Y635762D01*
X246418Y633983D01*
X241770Y633983D01*
G37*
%LPD*%
%LPC*%
G36*
X286982Y633983D02*
X286982Y633983D01*
X282687Y635762D01*
X279400Y639049D01*
X277621Y643344D01*
X277621Y663232D01*
X279400Y667527D01*
X282687Y670814D01*
X286982Y672593D01*
X291630Y672593D01*
X295925Y670814D01*
X299212Y667527D01*
X300991Y663232D01*
X300991Y643344D01*
X299212Y639049D01*
X295925Y635762D01*
X291630Y633983D01*
X286982Y633983D01*
G37*
%LPD*%
%LPC*%
G36*
X483070Y633983D02*
X483070Y633983D01*
X478775Y635762D01*
X475488Y639049D01*
X473709Y643344D01*
X473709Y663232D01*
X475488Y667527D01*
X478775Y670814D01*
X483070Y672593D01*
X487718Y672593D01*
X492013Y670814D01*
X495300Y667527D01*
X497079Y663232D01*
X497079Y643344D01*
X495300Y639049D01*
X492013Y635762D01*
X487718Y633983D01*
X483070Y633983D01*
G37*
%LPD*%
%LPC*%
G36*
X528282Y633983D02*
X528282Y633983D01*
X523987Y635762D01*
X520700Y639049D01*
X518921Y643344D01*
X518921Y663232D01*
X520700Y667527D01*
X523987Y670814D01*
X528282Y672593D01*
X532930Y672593D01*
X537225Y670814D01*
X540512Y667527D01*
X542291Y663232D01*
X542291Y643344D01*
X540512Y639049D01*
X537225Y635762D01*
X532930Y633983D01*
X528282Y633983D01*
G37*
%LPD*%
%LPC*%
G36*
X528282Y699007D02*
X528282Y699007D01*
X523987Y700786D01*
X520700Y704073D01*
X518921Y708368D01*
X518921Y728256D01*
X520700Y732551D01*
X523987Y735838D01*
X528282Y737617D01*
X532930Y737617D01*
X537225Y735838D01*
X540512Y732551D01*
X542291Y728256D01*
X542291Y708368D01*
X540512Y704073D01*
X537225Y700786D01*
X532930Y699007D01*
X528282Y699007D01*
G37*
%LPD*%
%LPC*%
G36*
X454368Y791209D02*
X454368Y791209D01*
X450073Y792988D01*
X446786Y796275D01*
X445007Y800570D01*
X445007Y805218D01*
X446786Y809513D01*
X450073Y812800D01*
X454368Y814579D01*
X474256Y814579D01*
X478551Y812800D01*
X481838Y809513D01*
X483617Y805218D01*
X483617Y800570D01*
X481838Y796275D01*
X478551Y792988D01*
X476242Y792032D01*
X474256Y791209D01*
X454368Y791209D01*
G37*
%LPD*%
%LPC*%
G36*
X503644Y791209D02*
X503644Y791209D01*
X499349Y792988D01*
X496062Y796275D01*
X494283Y800570D01*
X494283Y805218D01*
X496062Y809513D01*
X499349Y812800D01*
X503644Y814579D01*
X523532Y814579D01*
X527827Y812800D01*
X531114Y809513D01*
X532893Y805218D01*
X532893Y800570D01*
X531114Y796275D01*
X527827Y792988D01*
X525518Y792032D01*
X523532Y791209D01*
X503644Y791209D01*
G37*
%LPD*%
%LPC*%
G36*
X617944Y791209D02*
X617944Y791209D01*
X613649Y792988D01*
X610362Y796275D01*
X608583Y800570D01*
X608583Y805218D01*
X610362Y809513D01*
X613649Y812800D01*
X617944Y814579D01*
X637832Y814579D01*
X642127Y812800D01*
X645414Y809513D01*
X647193Y805218D01*
X647193Y800570D01*
X645414Y796275D01*
X642127Y792988D01*
X639818Y792032D01*
X637832Y791209D01*
X617944Y791209D01*
G37*
%LPD*%
%LPC*%
G36*
X568668Y791209D02*
X568668Y791209D01*
X564373Y792988D01*
X561086Y796275D01*
X559307Y800570D01*
X559307Y805218D01*
X561086Y809513D01*
X564373Y812800D01*
X568668Y814579D01*
X588556Y814579D01*
X592851Y812800D01*
X596138Y809513D01*
X597917Y805218D01*
X597917Y800570D01*
X596138Y796275D01*
X592851Y792988D01*
X590542Y792032D01*
X588556Y791209D01*
X568668Y791209D01*
G37*
%LPD*%
%LPC*%
G36*
X46444Y791209D02*
X46444Y791209D01*
X42149Y792988D01*
X38862Y796275D01*
X37083Y800570D01*
X37083Y805218D01*
X38862Y809513D01*
X42149Y812800D01*
X46444Y814579D01*
X66332Y814579D01*
X70627Y812800D01*
X73914Y809513D01*
X75693Y805218D01*
X75693Y800570D01*
X73914Y796275D01*
X70627Y792988D01*
X68318Y792032D01*
X66332Y791209D01*
X46444Y791209D01*
G37*
%LPD*%
%LPC*%
G36*
X682968Y791209D02*
X682968Y791209D01*
X678673Y792988D01*
X675386Y796275D01*
X673607Y800570D01*
X673607Y805218D01*
X675386Y809513D01*
X678673Y812800D01*
X682968Y814579D01*
X702856Y814579D01*
X707151Y812800D01*
X710438Y809513D01*
X712217Y805218D01*
X712217Y800570D01*
X710438Y796275D01*
X707151Y792988D01*
X704842Y792032D01*
X702856Y791209D01*
X682968Y791209D01*
G37*
%LPD*%
%LPC*%
G36*
X389344Y791209D02*
X389344Y791209D01*
X385049Y792988D01*
X381762Y796275D01*
X379983Y800570D01*
X379983Y805218D01*
X381762Y809513D01*
X385049Y812800D01*
X389344Y814579D01*
X409232Y814579D01*
X413527Y812800D01*
X416814Y809513D01*
X418593Y805218D01*
X418593Y800570D01*
X416814Y796275D01*
X413527Y792988D01*
X411218Y792032D01*
X409232Y791209D01*
X389344Y791209D01*
G37*
%LPD*%
%LPC*%
G36*
X340068Y791209D02*
X340068Y791209D01*
X335773Y792988D01*
X332486Y796275D01*
X330707Y800570D01*
X330707Y805218D01*
X332486Y809513D01*
X335773Y812800D01*
X340068Y814579D01*
X359956Y814579D01*
X364251Y812800D01*
X367538Y809513D01*
X369317Y805218D01*
X369317Y800570D01*
X367538Y796275D01*
X364251Y792988D01*
X361942Y792032D01*
X359956Y791209D01*
X340068Y791209D01*
G37*
%LPD*%
%LPC*%
G36*
X275044Y791209D02*
X275044Y791209D01*
X270749Y792988D01*
X267462Y796275D01*
X265683Y800570D01*
X265683Y805218D01*
X267462Y809513D01*
X270749Y812800D01*
X275044Y814579D01*
X294932Y814579D01*
X299227Y812800D01*
X302514Y809513D01*
X304293Y805218D01*
X304293Y800570D01*
X302514Y796275D01*
X299227Y792988D01*
X296918Y792032D01*
X294932Y791209D01*
X275044Y791209D01*
G37*
%LPD*%
%LPC*%
G36*
X225768Y791209D02*
X225768Y791209D01*
X221473Y792988D01*
X218186Y796275D01*
X216407Y800570D01*
X216407Y805218D01*
X218186Y809513D01*
X221473Y812800D01*
X225768Y814579D01*
X245656Y814579D01*
X249951Y812800D01*
X253238Y809513D01*
X255017Y805218D01*
X255017Y800570D01*
X253238Y796275D01*
X249951Y792988D01*
X247642Y792032D01*
X245656Y791209D01*
X225768Y791209D01*
G37*
%LPD*%
%LPC*%
G36*
X111468Y791209D02*
X111468Y791209D01*
X107173Y792988D01*
X103886Y796275D01*
X102107Y800570D01*
X102107Y805218D01*
X103886Y809513D01*
X107173Y812800D01*
X111468Y814579D01*
X131356Y814579D01*
X135651Y812800D01*
X138938Y809513D01*
X140717Y805218D01*
X140717Y800570D01*
X138938Y796275D01*
X135651Y792988D01*
X133342Y792032D01*
X131356Y791209D01*
X111468Y791209D01*
G37*
%LPD*%
%LPC*%
G36*
X579202Y597534D02*
X579202Y597534D01*
X572134Y604602D01*
X572134Y614598D01*
X579202Y621666D01*
X589198Y621666D01*
X596266Y614598D01*
X596266Y604602D01*
X589198Y597534D01*
X579202Y597534D01*
G37*
%LPD*%
%LPC*%
G36*
X591902Y534034D02*
X591902Y534034D01*
X584834Y541102D01*
X584834Y551098D01*
X591902Y558166D01*
X601898Y558166D01*
X608966Y551098D01*
X608966Y541102D01*
X601898Y534034D01*
X591902Y534034D01*
G37*
%LPD*%
%LPC*%
G36*
X807802Y699134D02*
X807802Y699134D01*
X800734Y706202D01*
X800734Y716198D01*
X807802Y723266D01*
X817798Y723266D01*
X824866Y716198D01*
X824866Y706202D01*
X817798Y699134D01*
X807802Y699134D01*
G37*
%LPD*%
%LPC*%
G36*
X795102Y407034D02*
X795102Y407034D01*
X788034Y414102D01*
X788034Y424098D01*
X795102Y431166D01*
X805098Y431166D01*
X812166Y424098D01*
X812166Y414102D01*
X805098Y407034D01*
X795102Y407034D01*
G37*
%LPD*%
%LPC*%
G36*
X516281Y954531D02*
X516281Y954531D01*
X510031Y960781D01*
X510031Y969619D01*
X516281Y975869D01*
X525119Y975869D01*
X531369Y969619D01*
X531369Y960781D01*
X525119Y954531D01*
X516281Y954531D01*
G37*
%LPD*%
%LPC*%
G36*
X287681Y954531D02*
X287681Y954531D01*
X281431Y960781D01*
X281431Y969619D01*
X287681Y975869D01*
X296519Y975869D01*
X302769Y969619D01*
X302769Y960781D01*
X296519Y954531D01*
X287681Y954531D01*
G37*
%LPD*%
%LPC*%
G36*
X427381Y687831D02*
X427381Y687831D01*
X421131Y694081D01*
X421131Y702919D01*
X427381Y709169D01*
X436219Y709169D01*
X442469Y702919D01*
X442469Y694081D01*
X436219Y687831D01*
X427381Y687831D01*
G37*
%LPD*%
%LPC*%
G36*
X186081Y687831D02*
X186081Y687831D01*
X179831Y694081D01*
X179831Y702919D01*
X186081Y709169D01*
X194919Y709169D01*
X201169Y702919D01*
X201169Y694081D01*
X194919Y687831D01*
X186081Y687831D01*
G37*
%LPD*%
%LPC*%
G36*
X427381Y662431D02*
X427381Y662431D01*
X421131Y668681D01*
X421131Y677519D01*
X427381Y683769D01*
X436219Y683769D01*
X442469Y677519D01*
X442469Y668681D01*
X436219Y662431D01*
X427381Y662431D01*
G37*
%LPD*%
%LPC*%
G36*
X186081Y662431D02*
X186081Y662431D01*
X179831Y668681D01*
X179831Y677519D01*
X186081Y683769D01*
X194919Y683769D01*
X201169Y677519D01*
X201169Y668681D01*
X194919Y662431D01*
X186081Y662431D01*
G37*
%LPD*%
%LPC*%
G36*
X173381Y954531D02*
X173381Y954531D01*
X167131Y960781D01*
X167131Y969619D01*
X173381Y975869D01*
X182219Y975869D01*
X188469Y969619D01*
X188469Y960781D01*
X182219Y954531D01*
X173381Y954531D01*
G37*
%LPD*%
%LPC*%
G36*
X59081Y954531D02*
X59081Y954531D01*
X52831Y960781D01*
X52831Y969619D01*
X59081Y975869D01*
X67919Y975869D01*
X74169Y969619D01*
X74169Y960781D01*
X67919Y954531D01*
X59081Y954531D01*
G37*
%LPD*%
%LPC*%
G36*
X528981Y891031D02*
X528981Y891031D01*
X522731Y897281D01*
X522731Y906119D01*
X528981Y912369D01*
X537819Y912369D01*
X544069Y906119D01*
X544069Y897281D01*
X537819Y891031D01*
X528981Y891031D01*
G37*
%LPD*%
%LPC*%
G36*
X325781Y891031D02*
X325781Y891031D01*
X319531Y897281D01*
X319531Y906119D01*
X325781Y912369D01*
X334619Y912369D01*
X340869Y906119D01*
X340869Y897281D01*
X334619Y891031D01*
X325781Y891031D01*
G37*
%LPD*%
%LPC*%
G36*
X363881Y649731D02*
X363881Y649731D01*
X357631Y655981D01*
X357631Y664819D01*
X363881Y671069D01*
X372719Y671069D01*
X378969Y664819D01*
X378969Y655981D01*
X372719Y649731D01*
X363881Y649731D01*
G37*
%LPD*%
%LPC*%
G36*
X122581Y649731D02*
X122581Y649731D01*
X116331Y655981D01*
X116331Y664819D01*
X122581Y671069D01*
X131419Y671069D01*
X137669Y664819D01*
X137669Y655981D01*
X131419Y649731D01*
X122581Y649731D01*
G37*
%LPD*%
%LPC*%
G36*
X414681Y891031D02*
X414681Y891031D01*
X408431Y897281D01*
X408431Y906119D01*
X414681Y912369D01*
X423519Y912369D01*
X429769Y906119D01*
X429769Y897281D01*
X423519Y891031D01*
X414681Y891031D01*
G37*
%LPD*%
%LPC*%
G36*
X300381Y891031D02*
X300381Y891031D01*
X294131Y897281D01*
X294131Y906119D01*
X300381Y912369D01*
X309219Y912369D01*
X315469Y906119D01*
X315469Y897281D01*
X309219Y891031D01*
X300381Y891031D01*
G37*
%LPD*%
%LPC*%
G36*
X211481Y891031D02*
X211481Y891031D01*
X205231Y897281D01*
X205231Y906119D01*
X211481Y912369D01*
X220319Y912369D01*
X226569Y906119D01*
X226569Y897281D01*
X220319Y891031D01*
X211481Y891031D01*
G37*
%LPD*%
%LPC*%
G36*
X554381Y891031D02*
X554381Y891031D01*
X548131Y897281D01*
X548131Y906119D01*
X554381Y912369D01*
X563219Y912369D01*
X569469Y906119D01*
X569469Y897281D01*
X563219Y891031D01*
X554381Y891031D01*
G37*
%LPD*%
%LPC*%
G36*
X186081Y891031D02*
X186081Y891031D01*
X179831Y897281D01*
X179831Y906119D01*
X186081Y912369D01*
X194919Y912369D01*
X201169Y906119D01*
X201169Y897281D01*
X194919Y891031D01*
X186081Y891031D01*
G37*
%LPD*%
%LPC*%
G36*
X97181Y891031D02*
X97181Y891031D01*
X90931Y897281D01*
X90931Y906119D01*
X97181Y912369D01*
X106019Y912369D01*
X112269Y906119D01*
X112269Y897281D01*
X106019Y891031D01*
X97181Y891031D01*
G37*
%LPD*%
%LPC*%
G36*
X71781Y891031D02*
X71781Y891031D01*
X65531Y897281D01*
X65531Y906119D01*
X71781Y912369D01*
X80619Y912369D01*
X86869Y906119D01*
X86869Y897281D01*
X80619Y891031D01*
X71781Y891031D01*
G37*
%LPD*%
%LPC*%
G36*
X643281Y891031D02*
X643281Y891031D01*
X637031Y897281D01*
X637031Y906119D01*
X643281Y912369D01*
X652119Y912369D01*
X658369Y906119D01*
X658369Y897281D01*
X652119Y891031D01*
X643281Y891031D01*
G37*
%LPD*%
%LPC*%
G36*
X554381Y395731D02*
X554381Y395731D01*
X548131Y401981D01*
X548131Y410819D01*
X554381Y417069D01*
X563219Y417069D01*
X569469Y410819D01*
X569469Y401981D01*
X563219Y395731D01*
X554381Y395731D01*
G37*
%LPD*%
%LPC*%
G36*
X605181Y395731D02*
X605181Y395731D01*
X598931Y401981D01*
X598931Y410819D01*
X605181Y417069D01*
X614019Y417069D01*
X620269Y410819D01*
X620269Y401981D01*
X614019Y395731D01*
X605181Y395731D01*
G37*
%LPD*%
%LPC*%
G36*
X668681Y891031D02*
X668681Y891031D01*
X662431Y897281D01*
X662431Y906119D01*
X668681Y912369D01*
X677519Y912369D01*
X683769Y906119D01*
X683769Y897281D01*
X677519Y891031D01*
X668681Y891031D01*
G37*
%LPD*%
%LPC*%
G36*
X440081Y891031D02*
X440081Y891031D01*
X433831Y897281D01*
X433831Y906119D01*
X440081Y912369D01*
X448919Y912369D01*
X455169Y906119D01*
X455169Y897281D01*
X448919Y891031D01*
X440081Y891031D01*
G37*
%LPD*%
%LPC*%
G36*
X401981Y954531D02*
X401981Y954531D01*
X395731Y960781D01*
X395731Y969619D01*
X401981Y975869D01*
X410819Y975869D01*
X417069Y969619D01*
X417069Y960781D01*
X410819Y954531D01*
X401981Y954531D01*
G37*
%LPD*%
%LPC*%
G36*
X630581Y954531D02*
X630581Y954531D01*
X624331Y960781D01*
X624331Y969619D01*
X630581Y975869D01*
X639419Y975869D01*
X645669Y969619D01*
X645669Y960781D01*
X639419Y954531D01*
X630581Y954531D01*
G37*
%LPD*%
%LPC*%
G36*
X720508Y395731D02*
X720508Y395731D01*
X716587Y397355D01*
X713585Y400357D01*
X711961Y404278D01*
X711961Y408522D01*
X713585Y412443D01*
X716587Y415445D01*
X720508Y417069D01*
X724752Y417069D01*
X728673Y415445D01*
X731675Y412443D01*
X733299Y408522D01*
X733299Y404278D01*
X731675Y400357D01*
X728673Y397355D01*
X724752Y395731D01*
X720508Y395731D01*
G37*
%LPD*%
%LPC*%
G36*
X672248Y395731D02*
X672248Y395731D01*
X668327Y397355D01*
X665325Y400357D01*
X663701Y404278D01*
X663701Y408522D01*
X665325Y412443D01*
X668327Y415445D01*
X672248Y417069D01*
X676492Y417069D01*
X680413Y415445D01*
X683415Y412443D01*
X685039Y408522D01*
X685039Y404278D01*
X683415Y400357D01*
X680413Y397355D01*
X676492Y395731D01*
X672248Y395731D01*
G37*
%LPD*%
G36*
X838236Y487268D02*
X838236Y487268D01*
X838253Y487267D01*
X838435Y487290D01*
X838618Y487310D01*
X838635Y487315D01*
X838653Y487317D01*
X838826Y487375D01*
X839002Y487431D01*
X839018Y487440D01*
X839034Y487445D01*
X839194Y487537D01*
X839354Y487626D01*
X839368Y487637D01*
X839383Y487646D01*
X839636Y487861D01*
X845639Y493864D01*
X845650Y493877D01*
X845664Y493889D01*
X845778Y494033D01*
X845894Y494175D01*
X845902Y494191D01*
X845914Y494205D01*
X845997Y494369D01*
X846083Y494531D01*
X846088Y494548D01*
X846096Y494564D01*
X846145Y494741D01*
X846197Y494917D01*
X846199Y494935D01*
X846204Y494952D01*
X846217Y495135D01*
X846234Y495318D01*
X846232Y495336D01*
X846233Y495353D01*
X846210Y495535D01*
X846190Y495718D01*
X846185Y495735D01*
X846183Y495753D01*
X846125Y495926D01*
X846069Y496102D01*
X846060Y496118D01*
X846055Y496134D01*
X845963Y496294D01*
X845874Y496454D01*
X845863Y496468D01*
X845854Y496483D01*
X845639Y496736D01*
X839636Y502739D01*
X839622Y502750D01*
X839611Y502764D01*
X839467Y502877D01*
X839325Y502994D01*
X839309Y503002D01*
X839295Y503014D01*
X839131Y503097D01*
X838969Y503183D01*
X838952Y503188D01*
X838936Y503196D01*
X838759Y503245D01*
X838583Y503297D01*
X838565Y503299D01*
X838548Y503304D01*
X838365Y503317D01*
X838182Y503334D01*
X838164Y503332D01*
X838147Y503333D01*
X837965Y503310D01*
X837782Y503290D01*
X837765Y503285D01*
X837747Y503283D01*
X837573Y503224D01*
X837398Y503169D01*
X837382Y503160D01*
X837366Y503155D01*
X837206Y503063D01*
X837046Y502974D01*
X837032Y502963D01*
X837017Y502954D01*
X836764Y502739D01*
X830761Y496736D01*
X830750Y496722D01*
X830736Y496711D01*
X830622Y496567D01*
X830506Y496425D01*
X830498Y496409D01*
X830486Y496395D01*
X830403Y496231D01*
X830317Y496069D01*
X830312Y496052D01*
X830304Y496036D01*
X830255Y495859D01*
X830203Y495683D01*
X830201Y495665D01*
X830196Y495648D01*
X830183Y495465D01*
X830166Y495282D01*
X830168Y495264D01*
X830167Y495247D01*
X830190Y495064D01*
X830210Y494882D01*
X830215Y494865D01*
X830217Y494847D01*
X830276Y494673D01*
X830331Y494498D01*
X830340Y494482D01*
X830345Y494466D01*
X830437Y494306D01*
X830526Y494146D01*
X830537Y494132D01*
X830546Y494117D01*
X830761Y493864D01*
X836764Y487861D01*
X836777Y487850D01*
X836789Y487836D01*
X836933Y487722D01*
X837075Y487606D01*
X837091Y487598D01*
X837105Y487586D01*
X837269Y487503D01*
X837431Y487417D01*
X837448Y487412D01*
X837464Y487404D01*
X837641Y487355D01*
X837817Y487303D01*
X837835Y487301D01*
X837852Y487296D01*
X838035Y487283D01*
X838218Y487266D01*
X838236Y487268D01*
G37*
G36*
X837211Y462883D02*
X837211Y462883D01*
X837220Y462882D01*
X837409Y462905D01*
X837602Y462925D01*
X837611Y462928D01*
X837619Y462929D01*
X837801Y462989D01*
X837986Y463047D01*
X837994Y463051D01*
X838002Y463054D01*
X838171Y463149D01*
X838338Y463242D01*
X838345Y463248D01*
X838353Y463252D01*
X838499Y463378D01*
X838645Y463502D01*
X838651Y463509D01*
X838658Y463515D01*
X838775Y463667D01*
X838895Y463818D01*
X838899Y463826D01*
X838904Y463833D01*
X838990Y464005D01*
X839077Y464177D01*
X839080Y464186D01*
X839084Y464194D01*
X839134Y464380D01*
X839185Y464565D01*
X839186Y464574D01*
X839188Y464583D01*
X839215Y464913D01*
X839215Y465629D01*
X839834Y467122D01*
X840978Y468266D01*
X842471Y468885D01*
X843187Y468885D01*
X843196Y468886D01*
X843205Y468885D01*
X843396Y468906D01*
X843587Y468925D01*
X843596Y468927D01*
X843605Y468928D01*
X843787Y468986D01*
X843972Y469043D01*
X843980Y469047D01*
X843989Y469050D01*
X844157Y469143D01*
X844326Y469235D01*
X844333Y469240D01*
X844341Y469245D01*
X844488Y469369D01*
X844636Y469492D01*
X844641Y469499D01*
X844648Y469505D01*
X844767Y469656D01*
X844888Y469806D01*
X844892Y469814D01*
X844898Y469821D01*
X844985Y469994D01*
X845073Y470163D01*
X845076Y470172D01*
X845080Y470180D01*
X845132Y470366D01*
X845185Y470550D01*
X845186Y470559D01*
X845188Y470568D01*
X845202Y470761D01*
X845218Y470952D01*
X845217Y470960D01*
X845217Y470969D01*
X845193Y471162D01*
X845171Y471351D01*
X845168Y471360D01*
X845167Y471369D01*
X845106Y471551D01*
X845046Y471734D01*
X845041Y471742D01*
X845039Y471750D01*
X844943Y471917D01*
X844848Y472085D01*
X844842Y472092D01*
X844838Y472099D01*
X844623Y472352D01*
X839636Y477339D01*
X839622Y477350D01*
X839611Y477364D01*
X839468Y477477D01*
X839325Y477594D01*
X839309Y477603D01*
X839295Y477614D01*
X839131Y477697D01*
X838969Y477783D01*
X838952Y477788D01*
X838936Y477796D01*
X838759Y477845D01*
X838583Y477897D01*
X838565Y477899D01*
X838548Y477904D01*
X838365Y477917D01*
X838182Y477934D01*
X838164Y477932D01*
X838147Y477933D01*
X837964Y477910D01*
X837782Y477890D01*
X837765Y477885D01*
X837747Y477883D01*
X837572Y477824D01*
X837398Y477769D01*
X837382Y477760D01*
X837366Y477755D01*
X837206Y477663D01*
X837046Y477574D01*
X837032Y477563D01*
X837017Y477554D01*
X836764Y477339D01*
X830761Y471336D01*
X830750Y471322D01*
X830736Y471311D01*
X830622Y471167D01*
X830506Y471025D01*
X830498Y471009D01*
X830486Y470995D01*
X830403Y470831D01*
X830317Y470669D01*
X830312Y470652D01*
X830304Y470636D01*
X830255Y470459D01*
X830203Y470283D01*
X830201Y470265D01*
X830196Y470248D01*
X830183Y470065D01*
X830166Y469882D01*
X830168Y469864D01*
X830167Y469847D01*
X830190Y469664D01*
X830210Y469482D01*
X830215Y469465D01*
X830217Y469447D01*
X830276Y469273D01*
X830331Y469098D01*
X830340Y469082D01*
X830345Y469066D01*
X830437Y468906D01*
X830526Y468746D01*
X830537Y468732D01*
X830546Y468717D01*
X830761Y468464D01*
X835748Y463477D01*
X835755Y463471D01*
X835760Y463464D01*
X835910Y463344D01*
X836059Y463222D01*
X836067Y463218D01*
X836074Y463212D01*
X836245Y463123D01*
X836415Y463033D01*
X836423Y463031D01*
X836431Y463027D01*
X836617Y462973D01*
X836801Y462918D01*
X836810Y462918D01*
X836818Y462915D01*
X837010Y462900D01*
X837202Y462882D01*
X837211Y462883D01*
G37*
G36*
X814241Y463264D02*
X814241Y463264D01*
X814250Y463264D01*
X814443Y463288D01*
X814632Y463310D01*
X814641Y463313D01*
X814650Y463314D01*
X814832Y463375D01*
X815015Y463435D01*
X815023Y463440D01*
X815031Y463442D01*
X815198Y463538D01*
X815366Y463633D01*
X815373Y463639D01*
X815380Y463643D01*
X815633Y463858D01*
X820239Y468464D01*
X820250Y468477D01*
X820264Y468489D01*
X820378Y468633D01*
X820494Y468775D01*
X820502Y468791D01*
X820514Y468805D01*
X820597Y468969D01*
X820683Y469131D01*
X820688Y469148D01*
X820696Y469164D01*
X820745Y469342D01*
X820797Y469517D01*
X820799Y469535D01*
X820804Y469552D01*
X820817Y469735D01*
X820834Y469918D01*
X820832Y469936D01*
X820833Y469953D01*
X820810Y470135D01*
X820790Y470318D01*
X820785Y470335D01*
X820783Y470353D01*
X820725Y470526D01*
X820669Y470702D01*
X820660Y470718D01*
X820655Y470734D01*
X820563Y470894D01*
X820474Y471054D01*
X820463Y471068D01*
X820454Y471083D01*
X820239Y471336D01*
X815633Y475942D01*
X815626Y475948D01*
X815621Y475955D01*
X815471Y476075D01*
X815322Y476197D01*
X815314Y476201D01*
X815307Y476207D01*
X815137Y476295D01*
X814966Y476386D01*
X814957Y476388D01*
X814950Y476392D01*
X814765Y476446D01*
X814580Y476501D01*
X814571Y476501D01*
X814563Y476504D01*
X814371Y476519D01*
X814179Y476537D01*
X814170Y476536D01*
X814161Y476537D01*
X813972Y476514D01*
X813779Y476494D01*
X813770Y476491D01*
X813762Y476490D01*
X813580Y476430D01*
X813395Y476372D01*
X813387Y476368D01*
X813379Y476365D01*
X813210Y476270D01*
X813043Y476177D01*
X813036Y476171D01*
X813028Y476167D01*
X812882Y476041D01*
X812736Y475917D01*
X812730Y475910D01*
X812723Y475904D01*
X812606Y475752D01*
X812486Y475601D01*
X812482Y475593D01*
X812477Y475586D01*
X812391Y475414D01*
X812304Y475242D01*
X812301Y475233D01*
X812297Y475225D01*
X812247Y475039D01*
X812196Y474854D01*
X812195Y474845D01*
X812193Y474836D01*
X812166Y474506D01*
X812166Y465294D01*
X812167Y465285D01*
X812166Y465276D01*
X812187Y465083D01*
X812206Y464894D01*
X812208Y464885D01*
X812209Y464876D01*
X812268Y464692D01*
X812324Y464509D01*
X812328Y464501D01*
X812331Y464492D01*
X812424Y464324D01*
X812516Y464155D01*
X812521Y464148D01*
X812526Y464140D01*
X812650Y463993D01*
X812773Y463845D01*
X812780Y463840D01*
X812786Y463833D01*
X812938Y463713D01*
X813087Y463593D01*
X813095Y463589D01*
X813102Y463583D01*
X813275Y463496D01*
X813444Y463408D01*
X813453Y463405D01*
X813461Y463401D01*
X813648Y463349D01*
X813831Y463296D01*
X813840Y463295D01*
X813849Y463293D01*
X814042Y463279D01*
X814233Y463263D01*
X814241Y463264D01*
G37*
G36*
X814246Y543931D02*
X814246Y543931D01*
X814259Y543930D01*
X814445Y543954D01*
X814632Y543976D01*
X814645Y543980D01*
X814658Y543982D01*
X814974Y544084D01*
X815312Y544223D01*
X815320Y544228D01*
X815328Y544230D01*
X815496Y544322D01*
X815667Y544414D01*
X815674Y544419D01*
X815681Y544424D01*
X815829Y544547D01*
X815977Y544670D01*
X815983Y544677D01*
X815990Y544683D01*
X816110Y544834D01*
X816231Y544983D01*
X816235Y544991D01*
X816240Y544998D01*
X816329Y545170D01*
X816418Y545339D01*
X816420Y545348D01*
X816424Y545356D01*
X816477Y545543D01*
X816531Y545726D01*
X816532Y545734D01*
X816534Y545743D01*
X816549Y545936D01*
X816565Y546127D01*
X816564Y546136D01*
X816565Y546145D01*
X816542Y546335D01*
X816520Y546527D01*
X816518Y546535D01*
X816517Y546544D01*
X816456Y546727D01*
X816397Y546910D01*
X816393Y546918D01*
X816390Y546926D01*
X816294Y547094D01*
X816201Y547262D01*
X816195Y547268D01*
X816191Y547276D01*
X816063Y547422D01*
X815939Y547567D01*
X815932Y547573D01*
X815926Y547580D01*
X815773Y547697D01*
X815622Y547816D01*
X815614Y547820D01*
X815607Y547825D01*
X815312Y547977D01*
X814974Y548116D01*
X814961Y548120D01*
X814950Y548126D01*
X814769Y548178D01*
X814589Y548233D01*
X814576Y548234D01*
X814563Y548238D01*
X814374Y548253D01*
X814188Y548271D01*
X814175Y548270D01*
X814161Y548271D01*
X813975Y548249D01*
X813788Y548229D01*
X813775Y548225D01*
X813762Y548224D01*
X813583Y548166D01*
X813403Y548109D01*
X813392Y548103D01*
X813379Y548099D01*
X813214Y548006D01*
X813050Y547916D01*
X813040Y547908D01*
X813028Y547901D01*
X812886Y547778D01*
X812742Y547657D01*
X812734Y547647D01*
X812723Y547638D01*
X812608Y547490D01*
X812491Y547342D01*
X812485Y547330D01*
X812477Y547320D01*
X812393Y547151D01*
X812307Y546984D01*
X812303Y546971D01*
X812297Y546959D01*
X812248Y546777D01*
X812197Y546597D01*
X812196Y546583D01*
X812193Y546570D01*
X812166Y546240D01*
X812166Y545960D01*
X812167Y545947D01*
X812166Y545934D01*
X812187Y545747D01*
X812206Y545560D01*
X812210Y545547D01*
X812211Y545533D01*
X812269Y545355D01*
X812324Y545175D01*
X812330Y545163D01*
X812334Y545150D01*
X812426Y544986D01*
X812516Y544821D01*
X812524Y544810D01*
X812531Y544799D01*
X812653Y544656D01*
X812773Y544511D01*
X812784Y544503D01*
X812792Y544493D01*
X812941Y544377D01*
X813087Y544259D01*
X813099Y544253D01*
X813109Y544245D01*
X813279Y544160D01*
X813444Y544074D01*
X813457Y544070D01*
X813469Y544064D01*
X813651Y544014D01*
X813831Y543962D01*
X813845Y543961D01*
X813858Y543958D01*
X814044Y543945D01*
X814233Y543929D01*
X814246Y543931D01*
G37*
D10*
X124500Y345500D03*
X149900Y345500D03*
X175300Y345500D03*
X200700Y345500D03*
X226100Y345500D03*
X251500Y345500D03*
X276900Y345500D03*
X302300Y345500D03*
X327700Y345500D03*
X353100Y345500D03*
X378500Y345500D03*
X403900Y345500D03*
X429300Y345500D03*
X454700Y345500D03*
X480100Y345500D03*
X505500Y345500D03*
D11*
X114300Y419100D03*
D12*
X139700Y419100D03*
X165100Y419100D03*
X190500Y419100D03*
X215900Y419100D03*
X241300Y419100D03*
X266700Y419100D03*
X292100Y419100D03*
X317500Y419100D03*
X342900Y419100D03*
X368300Y419100D03*
X393700Y419100D03*
X419100Y419100D03*
X444500Y419100D03*
X469900Y419100D03*
X495300Y419100D03*
D11*
X495300Y533400D03*
D12*
X495300Y508000D03*
X495300Y482600D03*
X495300Y457200D03*
D13*
X825500Y457200D03*
X825500Y482600D03*
X825500Y508000D03*
D14*
X850900Y457200D03*
D13*
X850900Y482600D03*
X850900Y508000D03*
D15*
X457200Y965200D03*
X406400Y965200D03*
D16*
X63500Y965200D03*
X114300Y965200D03*
D17*
X368300Y711200D03*
X368300Y660400D03*
X127000Y711200D03*
X127000Y660400D03*
D15*
X228600Y965200D03*
X177800Y965200D03*
X571500Y965200D03*
X520700Y965200D03*
D16*
X292100Y965200D03*
X342900Y965200D03*
D15*
X685800Y965200D03*
X635000Y965200D03*
D18*
X533400Y520700D03*
X533400Y495300D03*
D15*
X609600Y406400D03*
X584200Y406400D03*
X558800Y406400D03*
X533400Y406400D03*
D19*
X722630Y406400D03*
X674370Y406400D03*
D20*
X584200Y609600D03*
X736600Y609600D03*
D21*
X818388Y584200D02*
X832612Y584200D01*
X832612Y558800D02*
X818388Y558800D01*
X818388Y533400D02*
X832612Y533400D01*
D22*
X812800Y711200D03*
X736600Y711200D03*
X800100Y546100D03*
X596900Y546100D03*
D23*
X817250Y812800D02*
X833750Y812800D01*
X833750Y787400D02*
X817250Y787400D01*
X817250Y762000D02*
X833750Y762000D01*
D10*
X876300Y812800D03*
X876300Y762000D03*
D18*
X800100Y469900D03*
X800100Y419100D03*
D24*
X736600Y635000D03*
X736600Y685800D03*
D25*
X64008Y848106D02*
X48768Y848106D01*
X48768Y802894D02*
X64008Y802894D01*
X113792Y848106D02*
X129032Y848106D01*
X129032Y802894D02*
X113792Y802894D01*
X163068Y848106D02*
X178308Y848106D01*
X178308Y802894D02*
X163068Y802894D01*
X228092Y848106D02*
X243332Y848106D01*
X243332Y802894D02*
X228092Y802894D01*
X277368Y848106D02*
X292608Y848106D01*
X292608Y802894D02*
X277368Y802894D01*
X342392Y848106D02*
X357632Y848106D01*
X357632Y802894D02*
X342392Y802894D01*
X620268Y848106D02*
X635508Y848106D01*
X635508Y802894D02*
X620268Y802894D01*
X685292Y848106D02*
X700532Y848106D01*
X700532Y802894D02*
X685292Y802894D01*
X521208Y848106D02*
X505968Y848106D01*
X505968Y802894D02*
X521208Y802894D01*
X570992Y848106D02*
X586232Y848106D01*
X586232Y802894D02*
X570992Y802894D01*
X244094Y660908D02*
X244094Y645668D01*
X289306Y645668D02*
X289306Y660908D01*
X244094Y710692D02*
X244094Y725932D01*
X289306Y725932D02*
X289306Y710692D01*
X391668Y848106D02*
X406908Y848106D01*
X406908Y802894D02*
X391668Y802894D01*
X456692Y848106D02*
X471932Y848106D01*
X471932Y802894D02*
X456692Y802894D01*
X485394Y660908D02*
X485394Y645668D01*
X530606Y645668D02*
X530606Y660908D01*
X485394Y710692D02*
X485394Y725932D01*
X530606Y725932D02*
X530606Y710692D01*
D16*
X76200Y901700D03*
X101600Y901700D03*
X190500Y901700D03*
X215900Y901700D03*
X304800Y901700D03*
X330200Y901700D03*
X647700Y901700D03*
X673100Y901700D03*
X533400Y901700D03*
X558800Y901700D03*
D24*
X431800Y673100D03*
X431800Y698500D03*
X190500Y673100D03*
X190500Y698500D03*
D16*
X419100Y901700D03*
X444500Y901700D03*
D26*
X114300Y927100D02*
X114300Y965200D01*
X114300Y927100D02*
X121412Y927100D01*
X152400Y927100D01*
X228600Y927100D01*
X228600Y965200D01*
X228600Y927100D02*
X235712Y927100D01*
X342900Y927100D01*
X342900Y965200D01*
X342900Y927100D02*
X350012Y927100D01*
X457200Y927100D01*
X457200Y965200D01*
X457200Y927100D02*
X464312Y927100D01*
X571500Y927100D01*
X571500Y965200D01*
X368300Y736600D02*
X244094Y736600D01*
X152400Y736600D02*
X152400Y927100D01*
X571500Y927100D02*
X578612Y927100D01*
X685800Y927100D01*
X685800Y965200D01*
X685800Y927100D02*
X698500Y927100D01*
X698500Y848106D01*
X692912Y848106D01*
X762000Y848106D01*
X762000Y558800D01*
X825500Y558800D01*
D27*
X736600Y512000D03*
D26*
X762000Y512000D01*
X762000Y558800D01*
D27*
X611123Y504000D03*
D26*
X611123Y457200D01*
X533400Y457200D02*
X495300Y457200D01*
X533400Y457200D02*
X584200Y457200D01*
X611123Y457200D01*
X533400Y457200D02*
X533400Y406400D01*
X584200Y406400D02*
X584200Y457200D01*
X485394Y718312D02*
X485394Y736600D01*
X368300Y736600D01*
X244094Y736600D02*
X244094Y718312D01*
X152400Y736600D02*
X127000Y736600D01*
X152400Y736600D02*
X244094Y736600D01*
X235712Y848106D02*
X235712Y927100D01*
X121412Y927100D02*
X121412Y848106D01*
X350012Y848106D02*
X350012Y927100D01*
X464312Y927100D02*
X464312Y848106D01*
X578612Y848106D02*
X578612Y927100D01*
X368300Y736600D02*
X368300Y711200D01*
X127000Y711200D02*
X127000Y736600D01*
D27*
X787400Y584200D03*
D26*
X774700Y584200D01*
X774700Y930400D01*
D27*
X825500Y930400D03*
D26*
X774700Y930400D01*
M02*
