G04 EAGLE Gerber RS-274X export*
G75*
%MOMM*%
%FSLAX34Y34*%
%LPD*%
%INSoldermask Bottom*%
%IPPOS*%
%AMOC8*
5,1,8,0,0,1.08239X$1,22.5*%
G01*
%ADD10C,1.778000*%
%ADD11C,2.601600*%
%ADD12R,1.609600X1.609600*%
%ADD13C,1.609600*%
%ADD14P,1.759533X8X112.500000*%
%ADD15R,1.625600X1.625600*%
%ADD16P,1.539592X8X202.500000*%
%ADD17P,1.539592X8X22.500000*%
%ADD18P,1.539592X8X292.500000*%
%ADD19C,1.001600*%
%ADD20P,1.842011X8X292.500000*%
%ADD21C,1.422400*%
%ADD22P,1.842011X8X22.500000*%
%ADD23C,1.524000*%
%ADD24P,1.842011X8X202.500000*%
%ADD25C,1.751600*%
%ADD26P,1.539592X8X112.500000*%
%ADD27C,1.625600*%


D10*
X124500Y345500D03*
X149900Y345500D03*
X175300Y345500D03*
X200700Y345500D03*
X226100Y345500D03*
X251500Y345500D03*
X276900Y345500D03*
X302300Y345500D03*
X327700Y345500D03*
X353100Y345500D03*
X378500Y345500D03*
X403900Y345500D03*
X429300Y345500D03*
X454700Y345500D03*
X480100Y345500D03*
X505500Y345500D03*
D11*
X69500Y35500D03*
X819500Y35500D03*
X69500Y345500D03*
X819500Y345500D03*
D12*
X114300Y419100D03*
D13*
X139700Y419100D03*
X165100Y419100D03*
X190500Y419100D03*
X215900Y419100D03*
X241300Y419100D03*
X266700Y419100D03*
X292100Y419100D03*
X317500Y419100D03*
X342900Y419100D03*
X368300Y419100D03*
X393700Y419100D03*
X419100Y419100D03*
X444500Y419100D03*
X469900Y419100D03*
X495300Y419100D03*
D12*
X495300Y533400D03*
D13*
X495300Y508000D03*
X495300Y482600D03*
X495300Y457200D03*
D14*
X825500Y457200D03*
X825500Y482600D03*
X825500Y508000D03*
D15*
X850900Y457200D03*
D14*
X850900Y482600D03*
X850900Y508000D03*
D16*
X457200Y965200D03*
X406400Y965200D03*
D17*
X63500Y965200D03*
X114300Y965200D03*
D18*
X368300Y711200D03*
X368300Y660400D03*
X127000Y711200D03*
X127000Y660400D03*
D16*
X228600Y965200D03*
X177800Y965200D03*
X571500Y965200D03*
X520700Y965200D03*
D17*
X292100Y965200D03*
X342900Y965200D03*
D16*
X685800Y965200D03*
X635000Y965200D03*
D19*
X889000Y892400D03*
X889000Y936400D03*
D20*
X533400Y520700D03*
X533400Y495300D03*
D16*
X609600Y406400D03*
X584200Y406400D03*
X558800Y406400D03*
X533400Y406400D03*
D21*
X722630Y406400D03*
X674370Y406400D03*
D22*
X584200Y609600D03*
X736600Y609600D03*
D23*
X818388Y584200D02*
X832612Y584200D01*
X832612Y558800D02*
X818388Y558800D01*
X818388Y533400D02*
X832612Y533400D01*
D24*
X812800Y711200D03*
X736600Y711200D03*
X800100Y546100D03*
X596900Y546100D03*
D25*
X817250Y812800D02*
X833750Y812800D01*
X833750Y787400D02*
X817250Y787400D01*
X817250Y762000D02*
X833750Y762000D01*
D10*
X876300Y812800D03*
X876300Y762000D03*
D20*
X800100Y469900D03*
X800100Y419100D03*
D26*
X736600Y635000D03*
X736600Y685800D03*
D27*
X64008Y848106D02*
X48768Y848106D01*
X48768Y802894D02*
X64008Y802894D01*
X113792Y848106D02*
X129032Y848106D01*
X129032Y802894D02*
X113792Y802894D01*
X163068Y848106D02*
X178308Y848106D01*
X178308Y802894D02*
X163068Y802894D01*
X228092Y848106D02*
X243332Y848106D01*
X243332Y802894D02*
X228092Y802894D01*
X277368Y848106D02*
X292608Y848106D01*
X292608Y802894D02*
X277368Y802894D01*
X342392Y848106D02*
X357632Y848106D01*
X357632Y802894D02*
X342392Y802894D01*
X620268Y848106D02*
X635508Y848106D01*
X635508Y802894D02*
X620268Y802894D01*
X685292Y848106D02*
X700532Y848106D01*
X700532Y802894D02*
X685292Y802894D01*
X521208Y848106D02*
X505968Y848106D01*
X505968Y802894D02*
X521208Y802894D01*
X570992Y848106D02*
X586232Y848106D01*
X586232Y802894D02*
X570992Y802894D01*
X244094Y660908D02*
X244094Y645668D01*
X289306Y645668D02*
X289306Y660908D01*
X244094Y710692D02*
X244094Y725932D01*
X289306Y725932D02*
X289306Y710692D01*
X391668Y848106D02*
X406908Y848106D01*
X406908Y802894D02*
X391668Y802894D01*
X456692Y848106D02*
X471932Y848106D01*
X471932Y802894D02*
X456692Y802894D01*
X485394Y660908D02*
X485394Y645668D01*
X530606Y645668D02*
X530606Y660908D01*
X485394Y710692D02*
X485394Y725932D01*
X530606Y725932D02*
X530606Y710692D01*
D17*
X76200Y901700D03*
X101600Y901700D03*
X190500Y901700D03*
X215900Y901700D03*
X304800Y901700D03*
X330200Y901700D03*
X647700Y901700D03*
X673100Y901700D03*
X533400Y901700D03*
X558800Y901700D03*
D26*
X431800Y673100D03*
X431800Y698500D03*
X190500Y673100D03*
X190500Y698500D03*
D17*
X419100Y901700D03*
X444500Y901700D03*
M02*
