G04 EAGLE Gerber RS-274X export*
G75*
%MOMM*%
%FSLAX34Y34*%
%LPD*%
%INTop Copper*%
%IPPOS*%
%AMOC8*
5,1,8,0,0,1.08239X$1,22.5*%
G01*
%ADD10R,1.500000X1.500000*%
%ADD11C,1.676400*%
%ADD12R,1.508000X1.508000*%
%ADD13C,1.508000*%
%ADD14R,1.600000X0.550000*%
%ADD15R,0.550000X1.600000*%
%ADD16P,1.649562X8X112.500000*%
%ADD17R,1.524000X1.524000*%
%ADD18P,1.429621X8X292.500000*%
%ADD19P,1.429621X8X112.500000*%
%ADD20R,2.500000X2.000000*%
%ADD21R,3.300000X2.000000*%
%ADD22R,3.100000X0.500000*%
%ADD23P,1.732040X8X112.500000*%
%ADD24P,1.732040X8X292.500000*%
%ADD25P,1.429621X8X202.500000*%
%ADD26C,1.320800*%
%ADD27P,1.732040X8X22.500000*%
%ADD28C,1.422400*%
%ADD29P,1.732040X8X202.500000*%
%ADD30C,1.650000*%
%ADD31C,0.152400*%
%ADD32C,0.756400*%


D10*
X266700Y825500D03*
X266700Y774700D03*
X342900Y774700D03*
X342900Y825500D03*
X266700Y723900D03*
X342900Y723900D03*
X266700Y1041400D03*
X266700Y990600D03*
X342900Y990600D03*
X342900Y1041400D03*
X266700Y939800D03*
X342900Y939800D03*
X457200Y1041400D03*
X457200Y990600D03*
X533400Y990600D03*
X533400Y1041400D03*
X457200Y939800D03*
X533400Y939800D03*
X457200Y825500D03*
X457200Y774700D03*
X533400Y774700D03*
X533400Y825500D03*
X457200Y723900D03*
X533400Y723900D03*
X635000Y1041400D03*
X635000Y990600D03*
X711200Y990600D03*
X711200Y1041400D03*
X635000Y939800D03*
X711200Y939800D03*
X635000Y825500D03*
X635000Y774700D03*
X711200Y774700D03*
X711200Y825500D03*
X635000Y723900D03*
X711200Y723900D03*
X76200Y1041400D03*
X76200Y990600D03*
X152400Y990600D03*
X152400Y1041400D03*
X76200Y939800D03*
X152400Y939800D03*
X76200Y825500D03*
X76200Y774700D03*
X152400Y774700D03*
X152400Y825500D03*
X76200Y723900D03*
X152400Y723900D03*
D11*
X111800Y345500D03*
X137200Y345500D03*
X162600Y345500D03*
X188000Y345500D03*
X213400Y345500D03*
X238800Y345500D03*
X264200Y345500D03*
X289600Y345500D03*
X315000Y345500D03*
X340400Y345500D03*
X365800Y345500D03*
X391200Y345500D03*
X416600Y345500D03*
X442000Y345500D03*
X467400Y345500D03*
X492800Y345500D03*
D12*
X76200Y419100D03*
D13*
X101600Y419100D03*
X127000Y419100D03*
X152400Y419100D03*
X177800Y419100D03*
X203200Y419100D03*
X228600Y419100D03*
X254000Y419100D03*
X279400Y419100D03*
X304800Y419100D03*
X330200Y419100D03*
X355600Y419100D03*
X381000Y419100D03*
X406400Y419100D03*
X431800Y419100D03*
X457200Y419100D03*
D12*
X457200Y533400D03*
D13*
X457200Y508000D03*
X457200Y482600D03*
X457200Y457200D03*
D14*
X631300Y548700D03*
X631300Y540700D03*
X631300Y532700D03*
X631300Y524700D03*
X631300Y516700D03*
X631300Y508700D03*
X631300Y500700D03*
X631300Y492700D03*
D15*
X645100Y478900D03*
X653100Y478900D03*
X661100Y478900D03*
X669100Y478900D03*
X677100Y478900D03*
X685100Y478900D03*
X693100Y478900D03*
X701100Y478900D03*
D14*
X714900Y492700D03*
X714900Y500700D03*
X714900Y508700D03*
X714900Y516700D03*
X714900Y524700D03*
X714900Y532700D03*
X714900Y540700D03*
X714900Y548700D03*
D15*
X701100Y562500D03*
X693100Y562500D03*
X685100Y562500D03*
X677100Y562500D03*
X669100Y562500D03*
X661100Y562500D03*
X653100Y562500D03*
X645100Y562500D03*
D16*
X825500Y457200D03*
X825500Y482600D03*
X825500Y508000D03*
D17*
X850900Y457200D03*
D16*
X850900Y482600D03*
X850900Y508000D03*
D18*
X393700Y825500D03*
X393700Y774700D03*
D19*
X203200Y990600D03*
X203200Y1041400D03*
D18*
X584200Y825500D03*
X584200Y774700D03*
X584200Y1041400D03*
X584200Y990600D03*
X203200Y825500D03*
X203200Y774700D03*
X774700Y1041400D03*
X774700Y990600D03*
D19*
X393700Y990600D03*
X393700Y1041400D03*
D18*
X762000Y825500D03*
X762000Y774700D03*
D20*
X906300Y920800D03*
X906300Y831800D03*
D21*
X847300Y920800D03*
X847300Y831800D03*
D22*
X846300Y860300D03*
X846300Y868300D03*
X846300Y876300D03*
X846300Y884300D03*
X846300Y892300D03*
D23*
X546100Y457200D03*
X546100Y482600D03*
D24*
X495300Y520700D03*
X495300Y495300D03*
D25*
X635000Y406400D03*
X609600Y406400D03*
X558800Y406400D03*
X533400Y406400D03*
D26*
X748030Y393700D03*
X699770Y393700D03*
D27*
X584200Y622300D03*
X736600Y622300D03*
D28*
X792988Y571500D02*
X807212Y571500D01*
X807212Y546100D02*
X792988Y546100D01*
X792988Y520700D02*
X807212Y520700D01*
D29*
X812800Y647700D03*
X736600Y647700D03*
X762000Y546100D03*
X558800Y546100D03*
D30*
X791850Y774700D02*
X808350Y774700D01*
X808350Y749300D02*
X791850Y749300D01*
X791850Y723900D02*
X808350Y723900D01*
D11*
X850900Y774700D03*
X850900Y723900D03*
D24*
X800100Y469900D03*
X800100Y419100D03*
D31*
X266700Y723900D02*
X266700Y774700D01*
X457200Y774700D02*
X457200Y723900D01*
X635000Y723900D02*
X635000Y774700D01*
X635000Y939800D02*
X635000Y990600D01*
X457200Y990600D02*
X457200Y939800D01*
X266700Y939800D02*
X266700Y990600D01*
X76200Y990600D02*
X76200Y939800D01*
X76200Y774700D02*
X76200Y723900D01*
X225686Y949586D02*
X266700Y990600D01*
X225686Y949586D02*
X160847Y949586D01*
X266700Y990600D02*
X324667Y990600D01*
X414982Y990600D02*
X457200Y990600D01*
X334453Y1000386D02*
X324667Y990600D01*
X334453Y1000386D02*
X405196Y1000386D01*
X414982Y990600D01*
X457200Y990600D02*
X515167Y990600D01*
X605482Y990600D02*
X635000Y990600D01*
X524953Y1000386D02*
X515167Y990600D01*
X524953Y1000386D02*
X595696Y1000386D01*
X605482Y990600D01*
X160847Y949586D02*
X143953Y949586D01*
X160847Y949586D02*
X162186Y948247D01*
X76200Y807267D02*
X76200Y774700D01*
X76200Y939800D02*
X134167Y939800D01*
X143953Y949586D01*
X162186Y948247D02*
X162186Y893253D01*
X76200Y807267D01*
X334453Y949586D02*
X351347Y949586D01*
X352686Y948247D01*
X266700Y807267D02*
X266700Y774700D01*
X352686Y893253D02*
X352686Y948247D01*
X352686Y893253D02*
X266700Y807267D01*
X266700Y939800D02*
X324667Y939800D01*
X334453Y949586D01*
X524953Y949586D02*
X541847Y949586D01*
X543186Y948247D01*
X457200Y807267D02*
X457200Y774700D01*
X543186Y893253D02*
X543186Y948247D01*
X543186Y893253D02*
X457200Y807267D01*
X457200Y939800D02*
X515167Y939800D01*
X524953Y949586D01*
X702753Y949586D02*
X719647Y949586D01*
X720986Y948247D01*
X635000Y807267D02*
X635000Y774700D01*
X720986Y893253D02*
X720986Y948247D01*
X720986Y893253D02*
X635000Y807267D01*
X635000Y939800D02*
X692967Y939800D01*
X702753Y949586D01*
X714900Y524700D02*
X677100Y524700D01*
X669100Y516700D02*
X631300Y516700D01*
X669100Y516700D02*
X677100Y524700D01*
X631300Y516700D02*
X577738Y516700D01*
X546100Y485063D02*
X546100Y482600D01*
X546100Y485063D02*
X577738Y516700D01*
X714900Y524700D02*
X732600Y524700D01*
X749300Y508000D02*
X762000Y508000D01*
X749300Y508000D02*
X732600Y524700D01*
X762000Y508000D02*
X800100Y546100D01*
X609600Y406400D02*
X596900Y406400D01*
X571500Y381000D02*
X533400Y381000D01*
X533400Y406400D01*
X571500Y381000D02*
X596900Y406400D01*
X453130Y447374D02*
X447374Y453130D01*
X447374Y486670D02*
X453130Y492426D01*
X461270Y492426D01*
X492426Y447374D02*
X533400Y406400D01*
X492426Y447374D02*
X453130Y447374D01*
X470498Y483198D02*
X461270Y492426D01*
X447374Y486670D02*
X447374Y453130D01*
X470498Y483198D02*
X545502Y483198D01*
X546100Y482600D01*
X635000Y723900D02*
X673100Y762000D01*
X733552Y762000D02*
X771652Y723900D01*
X751713Y550361D02*
X751713Y543813D01*
X732600Y524700D01*
X771652Y570300D02*
X771652Y723900D01*
X771652Y570300D02*
X751713Y550361D01*
X733552Y762000D02*
X673100Y762000D01*
X584200Y990600D02*
X533400Y990600D01*
X533400Y774700D02*
X584200Y774700D01*
X393700Y990600D02*
X342900Y990600D01*
X342900Y774700D02*
X393700Y774700D01*
X711200Y990600D02*
X774700Y990600D01*
X264200Y383500D02*
X264200Y345500D01*
X264200Y383500D02*
X228600Y419100D01*
X289600Y383500D02*
X289600Y345500D01*
X289600Y383500D02*
X254000Y419100D01*
X315000Y383500D02*
X315000Y345500D01*
X315000Y383500D02*
X279400Y419100D01*
X340400Y383500D02*
X340400Y345500D01*
X340400Y383500D02*
X304800Y419100D01*
X365800Y383500D02*
X365800Y345500D01*
X365800Y383500D02*
X330200Y419100D01*
X391200Y383500D02*
X391200Y345500D01*
X391200Y383500D02*
X355600Y419100D01*
X416600Y383500D02*
X416600Y345500D01*
X416600Y383500D02*
X381000Y419100D01*
X442000Y383500D02*
X442000Y345500D01*
X442000Y383500D02*
X406400Y419100D01*
X188000Y383500D02*
X188000Y345500D01*
X188000Y383500D02*
X152400Y419100D01*
X213400Y383500D02*
X213400Y345500D01*
X213400Y383500D02*
X177800Y419100D01*
X238800Y383500D02*
X238800Y345500D01*
X238800Y383500D02*
X203200Y419100D01*
X701100Y562500D02*
X701100Y619700D01*
X647700Y673100D01*
X622300Y673100D01*
X596900Y698500D01*
X711200Y901700D02*
X711200Y939800D01*
X711200Y901700D02*
X698500Y889000D01*
X609600Y889000D01*
X596900Y876300D01*
X596900Y698500D01*
X714900Y548700D02*
X726500Y548700D01*
X736600Y558800D01*
X736600Y596900D01*
X711200Y622300D02*
X711200Y723900D01*
X711200Y622300D02*
X736600Y596900D01*
X693100Y615000D02*
X693100Y562500D01*
X693100Y615000D02*
X647700Y660400D01*
X558800Y660400D01*
X533400Y685800D01*
X533400Y723900D01*
X653100Y578800D02*
X653100Y562500D01*
X653100Y578800D02*
X635000Y596900D01*
X622300Y596900D01*
X609600Y584200D01*
X482600Y584200D02*
X469900Y596900D01*
X482600Y584200D02*
X609600Y584200D01*
X469900Y596900D02*
X177800Y596900D01*
X152400Y622300D01*
X152400Y723900D01*
X266700Y609600D02*
X469900Y609600D01*
X266700Y609600D02*
X228600Y647700D01*
X661100Y583500D02*
X661100Y562500D01*
X661100Y583500D02*
X635000Y609600D01*
X622300Y609600D01*
X609600Y596900D01*
X482600Y596900D02*
X469900Y609600D01*
X482600Y596900D02*
X609600Y596900D01*
X342900Y901700D02*
X342900Y939800D01*
X342900Y901700D02*
X330200Y889000D01*
X241300Y889000D01*
X228600Y876300D01*
X228600Y647700D01*
X714900Y540700D02*
X731200Y540700D01*
X749300Y558800D01*
X749300Y673100D01*
X762000Y685800D01*
X762000Y711200D01*
X723900Y749300D02*
X698500Y749300D01*
X723900Y749300D02*
X762000Y711200D01*
X646612Y686888D02*
X641802Y682078D01*
X628198Y682078D01*
X618578Y691698D01*
X635000Y811578D02*
X635000Y825500D01*
X618578Y795156D02*
X618578Y691698D01*
X618578Y795156D02*
X635000Y811578D01*
X651422Y702222D02*
X651422Y691698D01*
X646612Y686888D01*
X651422Y702222D02*
X698500Y749300D01*
X850900Y609600D02*
X850900Y508000D01*
X850900Y609600D02*
X812800Y647700D01*
X685100Y610300D02*
X647700Y647700D01*
X685100Y610300D02*
X685100Y562500D01*
X533400Y901700D02*
X533400Y939800D01*
X533400Y901700D02*
X520700Y889000D01*
X431800Y889000D01*
X419100Y876300D01*
X431800Y647700D02*
X647700Y647700D01*
X431800Y647700D02*
X419100Y660400D01*
X419100Y876300D01*
X714900Y492700D02*
X726500Y492700D01*
X736600Y482600D01*
X821397Y492506D02*
X829603Y492506D01*
X811491Y482600D02*
X736600Y482600D01*
X839509Y482600D02*
X850900Y482600D01*
X821397Y492506D02*
X811491Y482600D01*
X829603Y492506D02*
X839509Y482600D01*
X693100Y478900D02*
X693100Y449900D01*
X711200Y431800D01*
X787400Y431800D02*
X800100Y419100D01*
X787400Y431800D02*
X711200Y431800D01*
X701100Y467300D02*
X701100Y478900D01*
X839509Y457200D02*
X850900Y457200D01*
X839509Y457200D02*
X829603Y447294D01*
X721106Y447294D01*
X701100Y467300D01*
X631300Y508700D02*
X630600Y508000D01*
X573348Y508000D01*
X469900Y469900D02*
X457200Y482600D01*
X556387Y491039D02*
X573348Y508000D01*
X556387Y491039D02*
X556387Y478339D01*
X547948Y469900D02*
X469900Y469900D01*
X547948Y469900D02*
X556387Y478339D01*
X50800Y584200D02*
X38100Y596900D01*
X50800Y584200D02*
X469900Y584200D01*
X645100Y574100D02*
X645100Y562500D01*
X645100Y574100D02*
X635000Y584200D01*
X622300Y584200D01*
X482600Y571500D02*
X469900Y584200D01*
X609600Y571500D02*
X622300Y584200D01*
X609600Y571500D02*
X482600Y571500D01*
X152400Y901700D02*
X152400Y939800D01*
X152400Y901700D02*
X139700Y889000D01*
X50800Y889000D01*
X38100Y876300D01*
X38100Y596900D01*
X647700Y635000D02*
X677100Y605600D01*
X677100Y562500D01*
X342900Y660400D02*
X342900Y723900D01*
X368300Y635000D02*
X647700Y635000D01*
X368300Y635000D02*
X342900Y660400D01*
X457200Y457200D02*
X546100Y457200D01*
X619700Y492700D02*
X631300Y492700D01*
X619700Y492700D02*
X609600Y482600D01*
X609600Y469900D01*
X635000Y444500D02*
X635000Y406400D01*
X635000Y444500D02*
X609600Y469900D01*
X647700Y393700D02*
X699770Y393700D01*
X647700Y393700D02*
X635000Y406400D01*
X631300Y500700D02*
X589600Y500700D01*
X558800Y469900D01*
X558800Y406400D01*
X722630Y368300D02*
X748030Y393700D01*
X626110Y415290D02*
X609600Y431800D01*
X626110Y415290D02*
X626110Y402718D01*
X660528Y368300D01*
X609600Y431800D02*
X584200Y431800D01*
X558800Y406400D01*
X660528Y368300D02*
X722630Y368300D01*
X669100Y588200D02*
X635000Y622300D01*
X622300Y622300D01*
X609600Y609600D01*
X596900Y609600D01*
X584200Y622300D01*
X669100Y588200D02*
X669100Y562500D01*
X812800Y520700D02*
X825500Y508000D01*
X812800Y520700D02*
X800100Y520700D01*
X815801Y482600D02*
X825500Y482600D01*
X815801Y482600D02*
X812753Y479552D01*
X809752Y479552D02*
X800100Y469900D01*
X809752Y479552D02*
X812753Y479552D01*
X736600Y622300D02*
X736600Y647700D01*
D32*
X406400Y990600D03*
X596900Y990600D03*
X660400Y609600D03*
X711200Y609600D03*
X711200Y596900D03*
X711200Y584200D03*
X723900Y596900D03*
X723900Y584200D03*
X571500Y495300D03*
X546100Y508000D03*
X571500Y431800D03*
X622300Y431800D03*
X711200Y444500D03*
X723900Y457200D03*
D31*
X203200Y1041400D02*
X152400Y1041400D01*
X152400Y990600D02*
X203200Y990600D01*
X203200Y825500D02*
X152400Y825500D01*
X152400Y774700D02*
X203200Y774700D01*
X342900Y1041400D02*
X393700Y1041400D01*
X533400Y825500D02*
X584200Y825500D01*
X711200Y774700D02*
X762000Y774700D01*
X762000Y825500D02*
X711200Y825500D01*
X711200Y1041400D02*
X774700Y1041400D01*
X584200Y1041400D02*
X533400Y1041400D01*
X393700Y825500D02*
X342900Y825500D01*
X714900Y500700D02*
X743900Y500700D01*
X749300Y495300D01*
X860806Y486703D02*
X860806Y478497D01*
X857905Y475595D01*
X855003Y472694D01*
X820134Y495554D02*
X819880Y495300D01*
X840994Y472694D02*
X825500Y457200D01*
X840994Y472694D02*
X855003Y472694D01*
X851955Y495554D02*
X820134Y495554D01*
X851955Y495554D02*
X860806Y486703D01*
X819880Y495300D02*
X749300Y495300D01*
X558800Y546100D02*
X451587Y546100D01*
X495300Y495300D02*
X520700Y495300D01*
X543052Y517652D02*
X560763Y517652D01*
X567811Y524700D01*
X543052Y517652D02*
X520700Y495300D01*
X567811Y524700D02*
X631300Y524700D01*
X495300Y495300D02*
X488348Y495300D01*
X453130Y498174D02*
X447374Y503930D01*
X485474Y498174D02*
X488348Y495300D01*
X485474Y498174D02*
X453130Y498174D01*
X447374Y503930D02*
X447374Y541887D01*
X451587Y546100D01*
X857905Y475595D02*
X863600Y469900D01*
X863600Y444500D01*
X788022Y368922D01*
X771698Y368922D01*
X758376Y355600D01*
X508000Y419100D02*
X495300Y431800D01*
X444500Y431800D01*
X431800Y444500D01*
X431800Y488356D02*
X447374Y503930D01*
X533400Y355600D02*
X758376Y355600D01*
X533400Y355600D02*
X508000Y381000D01*
X508000Y419100D01*
X431800Y444500D02*
X431800Y488356D01*
X790700Y892300D02*
X846300Y892300D01*
X790700Y892300D02*
X774700Y876300D01*
X774700Y596900D01*
X800100Y571500D01*
X800100Y774700D02*
X787400Y787400D01*
X796800Y860300D02*
X846300Y860300D01*
X796800Y860300D02*
X787400Y850900D01*
X787400Y787400D01*
X774700Y546100D02*
X762000Y546100D01*
X800100Y685800D02*
X800100Y723900D01*
X800100Y685800D02*
X787400Y673100D01*
X787400Y622300D01*
X812800Y596900D01*
X825500Y596900D01*
X838200Y584200D01*
X838200Y571500D01*
X825500Y558800D01*
X787400Y558800D01*
X774700Y546100D01*
X111800Y383500D02*
X111800Y345500D01*
X111800Y383500D02*
X76200Y419100D01*
X101600Y419100D02*
X137200Y383500D01*
X137200Y345500D01*
X162600Y383500D02*
X127000Y419100D01*
X162600Y383500D02*
X162600Y345500D01*
X532700Y532700D02*
X631300Y532700D01*
X532700Y532700D02*
X508000Y508000D01*
X457200Y508000D01*
X457200Y533400D02*
X482600Y533400D01*
X495300Y520700D01*
M02*
