G04 EAGLE Gerber RS-274X export*
G75*
%MOMM*%
%FSLAX34Y34*%
%LPD*%
%IN*%
%IPPOS*%
%AMOC8*
5,1,8,0,0,1.08239X$1,22.5*%
G01*
%ADD10C,0.254000*%


D10*
X0Y0D02*
X876100Y0D01*
X876100Y1127000D01*
X0Y1127000D01*
X0Y0D01*
X27150Y1104728D02*
X27083Y1104390D01*
X26951Y1104071D01*
X26759Y1103784D01*
X26516Y1103541D01*
X26229Y1103349D01*
X25910Y1103217D01*
X25572Y1103150D01*
X25228Y1103150D01*
X24890Y1103217D01*
X24571Y1103349D01*
X24284Y1103541D01*
X24041Y1103784D01*
X23849Y1104071D01*
X23717Y1104390D01*
X23650Y1104728D01*
X23650Y1105072D01*
X23717Y1105410D01*
X23849Y1105729D01*
X24041Y1106016D01*
X24284Y1106259D01*
X24571Y1106451D01*
X24890Y1106583D01*
X25228Y1106650D01*
X25572Y1106650D01*
X25910Y1106583D01*
X26229Y1106451D01*
X26516Y1106259D01*
X26759Y1106016D01*
X26951Y1105729D01*
X27083Y1105410D01*
X27150Y1105072D01*
X27150Y1104728D01*
X852650Y1104728D02*
X852583Y1104390D01*
X852451Y1104071D01*
X852259Y1103784D01*
X852016Y1103541D01*
X851729Y1103349D01*
X851410Y1103217D01*
X851072Y1103150D01*
X850728Y1103150D01*
X850390Y1103217D01*
X850071Y1103349D01*
X849784Y1103541D01*
X849541Y1103784D01*
X849349Y1104071D01*
X849217Y1104390D01*
X849150Y1104728D01*
X849150Y1105072D01*
X849217Y1105410D01*
X849349Y1105729D01*
X849541Y1106016D01*
X849784Y1106259D01*
X850071Y1106451D01*
X850390Y1106583D01*
X850728Y1106650D01*
X851072Y1106650D01*
X851410Y1106583D01*
X851729Y1106451D01*
X852016Y1106259D01*
X852259Y1106016D01*
X852451Y1105729D01*
X852583Y1105410D01*
X852650Y1105072D01*
X852650Y1104728D01*
X103350Y876128D02*
X103283Y875790D01*
X103151Y875471D01*
X102959Y875184D01*
X102716Y874941D01*
X102429Y874749D01*
X102110Y874617D01*
X101772Y874550D01*
X101428Y874550D01*
X101090Y874617D01*
X100771Y874749D01*
X100484Y874941D01*
X100241Y875184D01*
X100049Y875471D01*
X99917Y875790D01*
X99850Y876128D01*
X99850Y876472D01*
X99917Y876810D01*
X100049Y877129D01*
X100241Y877416D01*
X100484Y877659D01*
X100771Y877851D01*
X101090Y877983D01*
X101428Y878050D01*
X101772Y878050D01*
X102110Y877983D01*
X102429Y877851D01*
X102716Y877659D01*
X102959Y877416D01*
X103151Y877129D01*
X103283Y876810D01*
X103350Y876472D01*
X103350Y876128D01*
X267009Y704000D02*
X267623Y703931D01*
X268225Y703793D01*
X268808Y703589D01*
X269365Y703321D01*
X269888Y702993D01*
X270371Y702608D01*
X270808Y702171D01*
X271193Y701688D01*
X271521Y701165D01*
X271789Y700608D01*
X271993Y700025D01*
X272131Y699423D01*
X272200Y698809D01*
X272200Y698191D01*
X272131Y697577D01*
X271993Y696975D01*
X271789Y696392D01*
X271521Y695835D01*
X271193Y695312D01*
X270808Y694829D01*
X270371Y694393D01*
X269888Y694007D01*
X269365Y693679D01*
X268808Y693411D01*
X268225Y693207D01*
X267623Y693069D01*
X267009Y693000D01*
X266391Y693000D01*
X265777Y693069D01*
X265175Y693207D01*
X264592Y693411D01*
X264035Y693679D01*
X263512Y694007D01*
X263029Y694393D01*
X262593Y694829D01*
X262207Y695312D01*
X261879Y695835D01*
X261611Y696392D01*
X261407Y696975D01*
X261269Y697577D01*
X261200Y698191D01*
X261200Y698809D01*
X261269Y699423D01*
X261407Y700025D01*
X261611Y700608D01*
X261879Y701165D01*
X262207Y701688D01*
X262593Y702171D01*
X263029Y702608D01*
X263512Y702993D01*
X264035Y703321D01*
X264592Y703589D01*
X265175Y703793D01*
X265777Y703931D01*
X266391Y704000D01*
X267009Y704000D01*
X343209Y856400D02*
X343823Y856331D01*
X344425Y856193D01*
X345008Y855989D01*
X345565Y855721D01*
X346088Y855393D01*
X346571Y855008D01*
X347008Y854571D01*
X347393Y854088D01*
X347721Y853565D01*
X347989Y853008D01*
X348193Y852425D01*
X348331Y851823D01*
X348400Y851209D01*
X348400Y850591D01*
X348331Y849977D01*
X348193Y849375D01*
X347989Y848792D01*
X347721Y848235D01*
X347393Y847712D01*
X347008Y847229D01*
X346571Y846793D01*
X346088Y846407D01*
X345565Y846079D01*
X345008Y845811D01*
X344425Y845607D01*
X343823Y845469D01*
X343209Y845400D01*
X342591Y845400D01*
X341977Y845469D01*
X341375Y845607D01*
X340792Y845811D01*
X340235Y846079D01*
X339712Y846407D01*
X339229Y846793D01*
X338793Y847229D01*
X338407Y847712D01*
X338079Y848235D01*
X337811Y848792D01*
X337607Y849375D01*
X337469Y849977D01*
X337400Y850591D01*
X337400Y851209D01*
X337469Y851823D01*
X337607Y852425D01*
X337811Y853008D01*
X338079Y853565D01*
X338407Y854088D01*
X338793Y854571D01*
X339229Y855008D01*
X339712Y855393D01*
X340235Y855721D01*
X340792Y855989D01*
X341375Y856193D01*
X341977Y856331D01*
X342591Y856400D01*
X343209Y856400D01*
X267009Y919900D02*
X267623Y919831D01*
X268225Y919693D01*
X268808Y919489D01*
X269365Y919221D01*
X269888Y918893D01*
X270371Y918508D01*
X270808Y918071D01*
X271193Y917588D01*
X271521Y917065D01*
X271789Y916508D01*
X271993Y915925D01*
X272131Y915323D01*
X272200Y914709D01*
X272200Y914091D01*
X272131Y913477D01*
X271993Y912875D01*
X271789Y912292D01*
X271521Y911735D01*
X271193Y911212D01*
X270808Y910729D01*
X270371Y910293D01*
X269888Y909907D01*
X269365Y909579D01*
X268808Y909311D01*
X268225Y909107D01*
X267623Y908969D01*
X267009Y908900D01*
X266391Y908900D01*
X265777Y908969D01*
X265175Y909107D01*
X264592Y909311D01*
X264035Y909579D01*
X263512Y909907D01*
X263029Y910293D01*
X262593Y910729D01*
X262207Y911212D01*
X261879Y911735D01*
X261611Y912292D01*
X261407Y912875D01*
X261269Y913477D01*
X261200Y914091D01*
X261200Y914709D01*
X261269Y915323D01*
X261407Y915925D01*
X261611Y916508D01*
X261879Y917065D01*
X262207Y917588D01*
X262593Y918071D01*
X263029Y918508D01*
X263512Y918893D01*
X264035Y919221D01*
X264592Y919489D01*
X265175Y919693D01*
X265777Y919831D01*
X266391Y919900D01*
X267009Y919900D01*
X343209Y1072300D02*
X343823Y1072231D01*
X344425Y1072093D01*
X345008Y1071889D01*
X345565Y1071621D01*
X346088Y1071293D01*
X346571Y1070908D01*
X347008Y1070471D01*
X347393Y1069988D01*
X347721Y1069465D01*
X347989Y1068908D01*
X348193Y1068325D01*
X348331Y1067723D01*
X348400Y1067109D01*
X348400Y1066491D01*
X348331Y1065877D01*
X348193Y1065275D01*
X347989Y1064692D01*
X347721Y1064135D01*
X347393Y1063612D01*
X347008Y1063129D01*
X346571Y1062693D01*
X346088Y1062307D01*
X345565Y1061979D01*
X345008Y1061711D01*
X344425Y1061507D01*
X343823Y1061369D01*
X343209Y1061300D01*
X342591Y1061300D01*
X341977Y1061369D01*
X341375Y1061507D01*
X340792Y1061711D01*
X340235Y1061979D01*
X339712Y1062307D01*
X339229Y1062693D01*
X338793Y1063129D01*
X338407Y1063612D01*
X338079Y1064135D01*
X337811Y1064692D01*
X337607Y1065275D01*
X337469Y1065877D01*
X337400Y1066491D01*
X337400Y1067109D01*
X337469Y1067723D01*
X337607Y1068325D01*
X337811Y1068908D01*
X338079Y1069465D01*
X338407Y1069988D01*
X338793Y1070471D01*
X339229Y1070908D01*
X339712Y1071293D01*
X340235Y1071621D01*
X340792Y1071889D01*
X341375Y1072093D01*
X341977Y1072231D01*
X342591Y1072300D01*
X343209Y1072300D01*
X457509Y919900D02*
X458123Y919831D01*
X458725Y919693D01*
X459308Y919489D01*
X459865Y919221D01*
X460388Y918893D01*
X460871Y918508D01*
X461308Y918071D01*
X461693Y917588D01*
X462021Y917065D01*
X462289Y916508D01*
X462493Y915925D01*
X462631Y915323D01*
X462700Y914709D01*
X462700Y914091D01*
X462631Y913477D01*
X462493Y912875D01*
X462289Y912292D01*
X462021Y911735D01*
X461693Y911212D01*
X461308Y910729D01*
X460871Y910293D01*
X460388Y909907D01*
X459865Y909579D01*
X459308Y909311D01*
X458725Y909107D01*
X458123Y908969D01*
X457509Y908900D01*
X456891Y908900D01*
X456277Y908969D01*
X455675Y909107D01*
X455092Y909311D01*
X454535Y909579D01*
X454012Y909907D01*
X453529Y910293D01*
X453093Y910729D01*
X452707Y911212D01*
X452379Y911735D01*
X452111Y912292D01*
X451907Y912875D01*
X451769Y913477D01*
X451700Y914091D01*
X451700Y914709D01*
X451769Y915323D01*
X451907Y915925D01*
X452111Y916508D01*
X452379Y917065D01*
X452707Y917588D01*
X453093Y918071D01*
X453529Y918508D01*
X454012Y918893D01*
X454535Y919221D01*
X455092Y919489D01*
X455675Y919693D01*
X456277Y919831D01*
X456891Y919900D01*
X457509Y919900D01*
X533709Y1072300D02*
X534323Y1072231D01*
X534925Y1072093D01*
X535508Y1071889D01*
X536065Y1071621D01*
X536588Y1071293D01*
X537071Y1070908D01*
X537508Y1070471D01*
X537893Y1069988D01*
X538221Y1069465D01*
X538489Y1068908D01*
X538693Y1068325D01*
X538831Y1067723D01*
X538900Y1067109D01*
X538900Y1066491D01*
X538831Y1065877D01*
X538693Y1065275D01*
X538489Y1064692D01*
X538221Y1064135D01*
X537893Y1063612D01*
X537508Y1063129D01*
X537071Y1062693D01*
X536588Y1062307D01*
X536065Y1061979D01*
X535508Y1061711D01*
X534925Y1061507D01*
X534323Y1061369D01*
X533709Y1061300D01*
X533091Y1061300D01*
X532477Y1061369D01*
X531875Y1061507D01*
X531292Y1061711D01*
X530735Y1061979D01*
X530212Y1062307D01*
X529729Y1062693D01*
X529293Y1063129D01*
X528907Y1063612D01*
X528579Y1064135D01*
X528311Y1064692D01*
X528107Y1065275D01*
X527969Y1065877D01*
X527900Y1066491D01*
X527900Y1067109D01*
X527969Y1067723D01*
X528107Y1068325D01*
X528311Y1068908D01*
X528579Y1069465D01*
X528907Y1069988D01*
X529293Y1070471D01*
X529729Y1070908D01*
X530212Y1071293D01*
X530735Y1071621D01*
X531292Y1071889D01*
X531875Y1072093D01*
X532477Y1072231D01*
X533091Y1072300D01*
X533709Y1072300D01*
X457509Y704000D02*
X458123Y703931D01*
X458725Y703793D01*
X459308Y703589D01*
X459865Y703321D01*
X460388Y702993D01*
X460871Y702608D01*
X461308Y702171D01*
X461693Y701688D01*
X462021Y701165D01*
X462289Y700608D01*
X462493Y700025D01*
X462631Y699423D01*
X462700Y698809D01*
X462700Y698191D01*
X462631Y697577D01*
X462493Y696975D01*
X462289Y696392D01*
X462021Y695835D01*
X461693Y695312D01*
X461308Y694829D01*
X460871Y694393D01*
X460388Y694007D01*
X459865Y693679D01*
X459308Y693411D01*
X458725Y693207D01*
X458123Y693069D01*
X457509Y693000D01*
X456891Y693000D01*
X456277Y693069D01*
X455675Y693207D01*
X455092Y693411D01*
X454535Y693679D01*
X454012Y694007D01*
X453529Y694393D01*
X453093Y694829D01*
X452707Y695312D01*
X452379Y695835D01*
X452111Y696392D01*
X451907Y696975D01*
X451769Y697577D01*
X451700Y698191D01*
X451700Y698809D01*
X451769Y699423D01*
X451907Y700025D01*
X452111Y700608D01*
X452379Y701165D01*
X452707Y701688D01*
X453093Y702171D01*
X453529Y702608D01*
X454012Y702993D01*
X454535Y703321D01*
X455092Y703589D01*
X455675Y703793D01*
X456277Y703931D01*
X456891Y704000D01*
X457509Y704000D01*
X533709Y856400D02*
X534323Y856331D01*
X534925Y856193D01*
X535508Y855989D01*
X536065Y855721D01*
X536588Y855393D01*
X537071Y855008D01*
X537508Y854571D01*
X537893Y854088D01*
X538221Y853565D01*
X538489Y853008D01*
X538693Y852425D01*
X538831Y851823D01*
X538900Y851209D01*
X538900Y850591D01*
X538831Y849977D01*
X538693Y849375D01*
X538489Y848792D01*
X538221Y848235D01*
X537893Y847712D01*
X537508Y847229D01*
X537071Y846793D01*
X536588Y846407D01*
X536065Y846079D01*
X535508Y845811D01*
X534925Y845607D01*
X534323Y845469D01*
X533709Y845400D01*
X533091Y845400D01*
X532477Y845469D01*
X531875Y845607D01*
X531292Y845811D01*
X530735Y846079D01*
X530212Y846407D01*
X529729Y846793D01*
X529293Y847229D01*
X528907Y847712D01*
X528579Y848235D01*
X528311Y848792D01*
X528107Y849375D01*
X527969Y849977D01*
X527900Y850591D01*
X527900Y851209D01*
X527969Y851823D01*
X528107Y852425D01*
X528311Y853008D01*
X528579Y853565D01*
X528907Y854088D01*
X529293Y854571D01*
X529729Y855008D01*
X530212Y855393D01*
X530735Y855721D01*
X531292Y855989D01*
X531875Y856193D01*
X532477Y856331D01*
X533091Y856400D01*
X533709Y856400D01*
X635309Y919900D02*
X635923Y919831D01*
X636525Y919693D01*
X637108Y919489D01*
X637665Y919221D01*
X638188Y918893D01*
X638671Y918508D01*
X639108Y918071D01*
X639493Y917588D01*
X639821Y917065D01*
X640089Y916508D01*
X640293Y915925D01*
X640431Y915323D01*
X640500Y914709D01*
X640500Y914091D01*
X640431Y913477D01*
X640293Y912875D01*
X640089Y912292D01*
X639821Y911735D01*
X639493Y911212D01*
X639108Y910729D01*
X638671Y910293D01*
X638188Y909907D01*
X637665Y909579D01*
X637108Y909311D01*
X636525Y909107D01*
X635923Y908969D01*
X635309Y908900D01*
X634691Y908900D01*
X634077Y908969D01*
X633475Y909107D01*
X632892Y909311D01*
X632335Y909579D01*
X631812Y909907D01*
X631329Y910293D01*
X630893Y910729D01*
X630507Y911212D01*
X630179Y911735D01*
X629911Y912292D01*
X629707Y912875D01*
X629569Y913477D01*
X629500Y914091D01*
X629500Y914709D01*
X629569Y915323D01*
X629707Y915925D01*
X629911Y916508D01*
X630179Y917065D01*
X630507Y917588D01*
X630893Y918071D01*
X631329Y918508D01*
X631812Y918893D01*
X632335Y919221D01*
X632892Y919489D01*
X633475Y919693D01*
X634077Y919831D01*
X634691Y919900D01*
X635309Y919900D01*
X711509Y1072300D02*
X712123Y1072231D01*
X712725Y1072093D01*
X713308Y1071889D01*
X713865Y1071621D01*
X714388Y1071293D01*
X714871Y1070908D01*
X715308Y1070471D01*
X715693Y1069988D01*
X716021Y1069465D01*
X716289Y1068908D01*
X716493Y1068325D01*
X716631Y1067723D01*
X716700Y1067109D01*
X716700Y1066491D01*
X716631Y1065877D01*
X716493Y1065275D01*
X716289Y1064692D01*
X716021Y1064135D01*
X715693Y1063612D01*
X715308Y1063129D01*
X714871Y1062693D01*
X714388Y1062307D01*
X713865Y1061979D01*
X713308Y1061711D01*
X712725Y1061507D01*
X712123Y1061369D01*
X711509Y1061300D01*
X710891Y1061300D01*
X710277Y1061369D01*
X709675Y1061507D01*
X709092Y1061711D01*
X708535Y1061979D01*
X708012Y1062307D01*
X707529Y1062693D01*
X707093Y1063129D01*
X706707Y1063612D01*
X706379Y1064135D01*
X706111Y1064692D01*
X705907Y1065275D01*
X705769Y1065877D01*
X705700Y1066491D01*
X705700Y1067109D01*
X705769Y1067723D01*
X705907Y1068325D01*
X706111Y1068908D01*
X706379Y1069465D01*
X706707Y1069988D01*
X707093Y1070471D01*
X707529Y1070908D01*
X708012Y1071293D01*
X708535Y1071621D01*
X709092Y1071889D01*
X709675Y1072093D01*
X710277Y1072231D01*
X710891Y1072300D01*
X711509Y1072300D01*
X635309Y704000D02*
X635923Y703931D01*
X636525Y703793D01*
X637108Y703589D01*
X637665Y703321D01*
X638188Y702993D01*
X638671Y702608D01*
X639108Y702171D01*
X639493Y701688D01*
X639821Y701165D01*
X640089Y700608D01*
X640293Y700025D01*
X640431Y699423D01*
X640500Y698809D01*
X640500Y698191D01*
X640431Y697577D01*
X640293Y696975D01*
X640089Y696392D01*
X639821Y695835D01*
X639493Y695312D01*
X639108Y694829D01*
X638671Y694393D01*
X638188Y694007D01*
X637665Y693679D01*
X637108Y693411D01*
X636525Y693207D01*
X635923Y693069D01*
X635309Y693000D01*
X634691Y693000D01*
X634077Y693069D01*
X633475Y693207D01*
X632892Y693411D01*
X632335Y693679D01*
X631812Y694007D01*
X631329Y694393D01*
X630893Y694829D01*
X630507Y695312D01*
X630179Y695835D01*
X629911Y696392D01*
X629707Y696975D01*
X629569Y697577D01*
X629500Y698191D01*
X629500Y698809D01*
X629569Y699423D01*
X629707Y700025D01*
X629911Y700608D01*
X630179Y701165D01*
X630507Y701688D01*
X630893Y702171D01*
X631329Y702608D01*
X631812Y702993D01*
X632335Y703321D01*
X632892Y703589D01*
X633475Y703793D01*
X634077Y703931D01*
X634691Y704000D01*
X635309Y704000D01*
X711509Y856400D02*
X712123Y856331D01*
X712725Y856193D01*
X713308Y855989D01*
X713865Y855721D01*
X714388Y855393D01*
X714871Y855008D01*
X715308Y854571D01*
X715693Y854088D01*
X716021Y853565D01*
X716289Y853008D01*
X716493Y852425D01*
X716631Y851823D01*
X716700Y851209D01*
X716700Y850591D01*
X716631Y849977D01*
X716493Y849375D01*
X716289Y848792D01*
X716021Y848235D01*
X715693Y847712D01*
X715308Y847229D01*
X714871Y846793D01*
X714388Y846407D01*
X713865Y846079D01*
X713308Y845811D01*
X712725Y845607D01*
X712123Y845469D01*
X711509Y845400D01*
X710891Y845400D01*
X710277Y845469D01*
X709675Y845607D01*
X709092Y845811D01*
X708535Y846079D01*
X708012Y846407D01*
X707529Y846793D01*
X707093Y847229D01*
X706707Y847712D01*
X706379Y848235D01*
X706111Y848792D01*
X705907Y849375D01*
X705769Y849977D01*
X705700Y850591D01*
X705700Y851209D01*
X705769Y851823D01*
X705907Y852425D01*
X706111Y853008D01*
X706379Y853565D01*
X706707Y854088D01*
X707093Y854571D01*
X707529Y855008D01*
X708012Y855393D01*
X708535Y855721D01*
X709092Y855989D01*
X709675Y856193D01*
X710277Y856331D01*
X710891Y856400D01*
X711509Y856400D01*
X76509Y919900D02*
X77123Y919831D01*
X77725Y919693D01*
X78308Y919489D01*
X78865Y919221D01*
X79388Y918893D01*
X79871Y918508D01*
X80308Y918071D01*
X80693Y917588D01*
X81021Y917065D01*
X81289Y916508D01*
X81493Y915925D01*
X81631Y915323D01*
X81700Y914709D01*
X81700Y914091D01*
X81631Y913477D01*
X81493Y912875D01*
X81289Y912292D01*
X81021Y911735D01*
X80693Y911212D01*
X80308Y910729D01*
X79871Y910293D01*
X79388Y909907D01*
X78865Y909579D01*
X78308Y909311D01*
X77725Y909107D01*
X77123Y908969D01*
X76509Y908900D01*
X75891Y908900D01*
X75277Y908969D01*
X74675Y909107D01*
X74092Y909311D01*
X73535Y909579D01*
X73012Y909907D01*
X72529Y910293D01*
X72093Y910729D01*
X71707Y911212D01*
X71379Y911735D01*
X71111Y912292D01*
X70907Y912875D01*
X70769Y913477D01*
X70700Y914091D01*
X70700Y914709D01*
X70769Y915323D01*
X70907Y915925D01*
X71111Y916508D01*
X71379Y917065D01*
X71707Y917588D01*
X72093Y918071D01*
X72529Y918508D01*
X73012Y918893D01*
X73535Y919221D01*
X74092Y919489D01*
X74675Y919693D01*
X75277Y919831D01*
X75891Y919900D01*
X76509Y919900D01*
X152709Y1072300D02*
X153323Y1072231D01*
X153925Y1072093D01*
X154508Y1071889D01*
X155065Y1071621D01*
X155588Y1071293D01*
X156071Y1070908D01*
X156508Y1070471D01*
X156893Y1069988D01*
X157221Y1069465D01*
X157489Y1068908D01*
X157693Y1068325D01*
X157831Y1067723D01*
X157900Y1067109D01*
X157900Y1066491D01*
X157831Y1065877D01*
X157693Y1065275D01*
X157489Y1064692D01*
X157221Y1064135D01*
X156893Y1063612D01*
X156508Y1063129D01*
X156071Y1062693D01*
X155588Y1062307D01*
X155065Y1061979D01*
X154508Y1061711D01*
X153925Y1061507D01*
X153323Y1061369D01*
X152709Y1061300D01*
X152091Y1061300D01*
X151477Y1061369D01*
X150875Y1061507D01*
X150292Y1061711D01*
X149735Y1061979D01*
X149212Y1062307D01*
X148729Y1062693D01*
X148293Y1063129D01*
X147907Y1063612D01*
X147579Y1064135D01*
X147311Y1064692D01*
X147107Y1065275D01*
X146969Y1065877D01*
X146900Y1066491D01*
X146900Y1067109D01*
X146969Y1067723D01*
X147107Y1068325D01*
X147311Y1068908D01*
X147579Y1069465D01*
X147907Y1069988D01*
X148293Y1070471D01*
X148729Y1070908D01*
X149212Y1071293D01*
X149735Y1071621D01*
X150292Y1071889D01*
X150875Y1072093D01*
X151477Y1072231D01*
X152091Y1072300D01*
X152709Y1072300D01*
X76509Y704000D02*
X77123Y703931D01*
X77725Y703793D01*
X78308Y703589D01*
X78865Y703321D01*
X79388Y702993D01*
X79871Y702608D01*
X80308Y702171D01*
X80693Y701688D01*
X81021Y701165D01*
X81289Y700608D01*
X81493Y700025D01*
X81631Y699423D01*
X81700Y698809D01*
X81700Y698191D01*
X81631Y697577D01*
X81493Y696975D01*
X81289Y696392D01*
X81021Y695835D01*
X80693Y695312D01*
X80308Y694829D01*
X79871Y694393D01*
X79388Y694007D01*
X78865Y693679D01*
X78308Y693411D01*
X77725Y693207D01*
X77123Y693069D01*
X76509Y693000D01*
X75891Y693000D01*
X75277Y693069D01*
X74675Y693207D01*
X74092Y693411D01*
X73535Y693679D01*
X73012Y694007D01*
X72529Y694393D01*
X72093Y694829D01*
X71707Y695312D01*
X71379Y695835D01*
X71111Y696392D01*
X70907Y696975D01*
X70769Y697577D01*
X70700Y698191D01*
X70700Y698809D01*
X70769Y699423D01*
X70907Y700025D01*
X71111Y700608D01*
X71379Y701165D01*
X71707Y701688D01*
X72093Y702171D01*
X72529Y702608D01*
X73012Y702993D01*
X73535Y703321D01*
X74092Y703589D01*
X74675Y703793D01*
X75277Y703931D01*
X75891Y704000D01*
X76509Y704000D01*
X152709Y856400D02*
X153323Y856331D01*
X153925Y856193D01*
X154508Y855989D01*
X155065Y855721D01*
X155588Y855393D01*
X156071Y855008D01*
X156508Y854571D01*
X156893Y854088D01*
X157221Y853565D01*
X157489Y853008D01*
X157693Y852425D01*
X157831Y851823D01*
X157900Y851209D01*
X157900Y850591D01*
X157831Y849977D01*
X157693Y849375D01*
X157489Y848792D01*
X157221Y848235D01*
X156893Y847712D01*
X156508Y847229D01*
X156071Y846793D01*
X155588Y846407D01*
X155065Y846079D01*
X154508Y845811D01*
X153925Y845607D01*
X153323Y845469D01*
X152709Y845400D01*
X152091Y845400D01*
X151477Y845469D01*
X150875Y845607D01*
X150292Y845811D01*
X149735Y846079D01*
X149212Y846407D01*
X148729Y846793D01*
X148293Y847229D01*
X147907Y847712D01*
X147579Y848235D01*
X147311Y848792D01*
X147107Y849375D01*
X146969Y849977D01*
X146900Y850591D01*
X146900Y851209D01*
X146969Y851823D01*
X147107Y852425D01*
X147311Y853008D01*
X147579Y853565D01*
X147907Y854088D01*
X148293Y854571D01*
X148729Y855008D01*
X149212Y855393D01*
X149735Y855721D01*
X150292Y855989D01*
X150875Y856193D01*
X151477Y856331D01*
X152091Y856400D01*
X152709Y856400D01*
X69300Y35009D02*
X69223Y34030D01*
X69069Y33060D01*
X68840Y32104D01*
X68536Y31170D01*
X68161Y30263D01*
X67715Y29388D01*
X67201Y28550D01*
X66624Y27755D01*
X65986Y27008D01*
X65292Y26314D01*
X64545Y25676D01*
X63750Y25099D01*
X62912Y24585D01*
X62037Y24139D01*
X61130Y23764D01*
X60196Y23460D01*
X59241Y23231D01*
X58270Y23077D01*
X57291Y23000D01*
X56309Y23000D01*
X55330Y23077D01*
X54360Y23231D01*
X53404Y23460D01*
X52470Y23764D01*
X51563Y24139D01*
X50688Y24585D01*
X49850Y25099D01*
X49055Y25676D01*
X48308Y26314D01*
X47614Y27008D01*
X46976Y27755D01*
X46399Y28550D01*
X45885Y29388D01*
X45439Y30263D01*
X45064Y31170D01*
X44760Y32104D01*
X44531Y33060D01*
X44377Y34030D01*
X44300Y35009D01*
X44300Y35991D01*
X44377Y36970D01*
X44531Y37941D01*
X44760Y38896D01*
X45064Y39830D01*
X45439Y40737D01*
X45885Y41612D01*
X46399Y42450D01*
X46976Y43245D01*
X47614Y43992D01*
X48308Y44686D01*
X49055Y45324D01*
X49850Y45901D01*
X50688Y46415D01*
X51563Y46861D01*
X52470Y47236D01*
X53404Y47540D01*
X54360Y47769D01*
X55330Y47923D01*
X56309Y48000D01*
X57291Y48000D01*
X58270Y47923D01*
X59241Y47769D01*
X60196Y47540D01*
X61130Y47236D01*
X62037Y46861D01*
X62912Y46415D01*
X63750Y45901D01*
X64545Y45324D01*
X65292Y44686D01*
X65986Y43992D01*
X66624Y43245D01*
X67201Y42450D01*
X67715Y41612D01*
X68161Y40737D01*
X68536Y39830D01*
X68840Y38896D01*
X69069Y37941D01*
X69223Y36970D01*
X69300Y35991D01*
X69300Y35009D01*
X819300Y35009D02*
X819223Y34030D01*
X819069Y33060D01*
X818840Y32104D01*
X818536Y31170D01*
X818161Y30263D01*
X817715Y29388D01*
X817201Y28550D01*
X816624Y27755D01*
X815986Y27008D01*
X815292Y26314D01*
X814545Y25676D01*
X813750Y25099D01*
X812912Y24585D01*
X812037Y24139D01*
X811130Y23764D01*
X810196Y23460D01*
X809241Y23231D01*
X808270Y23077D01*
X807291Y23000D01*
X806309Y23000D01*
X805330Y23077D01*
X804360Y23231D01*
X803404Y23460D01*
X802470Y23764D01*
X801563Y24139D01*
X800688Y24585D01*
X799850Y25099D01*
X799055Y25676D01*
X798308Y26314D01*
X797614Y27008D01*
X796976Y27755D01*
X796399Y28550D01*
X795885Y29388D01*
X795439Y30263D01*
X795064Y31170D01*
X794760Y32104D01*
X794531Y33060D01*
X794377Y34030D01*
X794300Y35009D01*
X794300Y35991D01*
X794377Y36970D01*
X794531Y37941D01*
X794760Y38896D01*
X795064Y39830D01*
X795439Y40737D01*
X795885Y41612D01*
X796399Y42450D01*
X796976Y43245D01*
X797614Y43992D01*
X798308Y44686D01*
X799055Y45324D01*
X799850Y45901D01*
X800688Y46415D01*
X801563Y46861D01*
X802470Y47236D01*
X803404Y47540D01*
X804360Y47769D01*
X805330Y47923D01*
X806309Y48000D01*
X807291Y48000D01*
X808270Y47923D01*
X809241Y47769D01*
X810196Y47540D01*
X811130Y47236D01*
X812037Y46861D01*
X812912Y46415D01*
X813750Y45901D01*
X814545Y45324D01*
X815292Y44686D01*
X815986Y43992D01*
X816624Y43245D01*
X817201Y42450D01*
X817715Y41612D01*
X818161Y40737D01*
X818536Y39830D01*
X818840Y38896D01*
X819069Y37941D01*
X819223Y36970D01*
X819300Y35991D01*
X819300Y35009D01*
X69300Y345009D02*
X69223Y344030D01*
X69069Y343060D01*
X68840Y342104D01*
X68536Y341170D01*
X68161Y340263D01*
X67715Y339388D01*
X67201Y338550D01*
X66624Y337755D01*
X65986Y337008D01*
X65292Y336314D01*
X64545Y335676D01*
X63750Y335099D01*
X62912Y334585D01*
X62037Y334139D01*
X61130Y333764D01*
X60196Y333460D01*
X59241Y333231D01*
X58270Y333077D01*
X57291Y333000D01*
X56309Y333000D01*
X55330Y333077D01*
X54360Y333231D01*
X53404Y333460D01*
X52470Y333764D01*
X51563Y334139D01*
X50688Y334585D01*
X49850Y335099D01*
X49055Y335676D01*
X48308Y336314D01*
X47614Y337008D01*
X46976Y337755D01*
X46399Y338550D01*
X45885Y339388D01*
X45439Y340263D01*
X45064Y341170D01*
X44760Y342104D01*
X44531Y343060D01*
X44377Y344030D01*
X44300Y345009D01*
X44300Y345991D01*
X44377Y346970D01*
X44531Y347941D01*
X44760Y348896D01*
X45064Y349830D01*
X45439Y350737D01*
X45885Y351612D01*
X46399Y352450D01*
X46976Y353245D01*
X47614Y353992D01*
X48308Y354686D01*
X49055Y355324D01*
X49850Y355901D01*
X50688Y356415D01*
X51563Y356861D01*
X52470Y357236D01*
X53404Y357540D01*
X54360Y357769D01*
X55330Y357923D01*
X56309Y358000D01*
X57291Y358000D01*
X58270Y357923D01*
X59241Y357769D01*
X60196Y357540D01*
X61130Y357236D01*
X62037Y356861D01*
X62912Y356415D01*
X63750Y355901D01*
X64545Y355324D01*
X65292Y354686D01*
X65986Y353992D01*
X66624Y353245D01*
X67201Y352450D01*
X67715Y351612D01*
X68161Y350737D01*
X68536Y349830D01*
X68840Y348896D01*
X69069Y347941D01*
X69223Y346970D01*
X69300Y345991D01*
X69300Y345009D01*
X819300Y345009D02*
X819223Y344030D01*
X819069Y343060D01*
X818840Y342104D01*
X818536Y341170D01*
X818161Y340263D01*
X817715Y339388D01*
X817201Y338550D01*
X816624Y337755D01*
X815986Y337008D01*
X815292Y336314D01*
X814545Y335676D01*
X813750Y335099D01*
X812912Y334585D01*
X812037Y334139D01*
X811130Y333764D01*
X810196Y333460D01*
X809241Y333231D01*
X808270Y333077D01*
X807291Y333000D01*
X806309Y333000D01*
X805330Y333077D01*
X804360Y333231D01*
X803404Y333460D01*
X802470Y333764D01*
X801563Y334139D01*
X800688Y334585D01*
X799850Y335099D01*
X799055Y335676D01*
X798308Y336314D01*
X797614Y337008D01*
X796976Y337755D01*
X796399Y338550D01*
X795885Y339388D01*
X795439Y340263D01*
X795064Y341170D01*
X794760Y342104D01*
X794531Y343060D01*
X794377Y344030D01*
X794300Y345009D01*
X794300Y345991D01*
X794377Y346970D01*
X794531Y347941D01*
X794760Y348896D01*
X795064Y349830D01*
X795439Y350737D01*
X795885Y351612D01*
X796399Y352450D01*
X796976Y353245D01*
X797614Y353992D01*
X798308Y354686D01*
X799055Y355324D01*
X799850Y355901D01*
X800688Y356415D01*
X801563Y356861D01*
X802470Y357236D01*
X803404Y357540D01*
X804360Y357769D01*
X805330Y357923D01*
X806309Y358000D01*
X807291Y358000D01*
X808270Y357923D01*
X809241Y357769D01*
X810196Y357540D01*
X811130Y357236D01*
X812037Y356861D01*
X812912Y356415D01*
X813750Y355901D01*
X814545Y355324D01*
X815292Y354686D01*
X815986Y353992D01*
X816624Y353245D01*
X817201Y352450D01*
X817715Y351612D01*
X818161Y350737D01*
X818536Y349830D01*
X818840Y348896D01*
X819069Y347941D01*
X819223Y346970D01*
X819300Y345991D01*
X819300Y345009D01*
X871800Y854595D02*
X871877Y855180D01*
X872030Y855750D01*
X872255Y856295D01*
X872550Y856805D01*
X872909Y857273D01*
X873327Y857691D01*
X873795Y858050D01*
X874305Y858345D01*
X874850Y858570D01*
X875420Y858723D01*
X876005Y858800D01*
X876595Y858800D01*
X877180Y858723D01*
X877750Y858570D01*
X878295Y858345D01*
X878805Y858050D01*
X879273Y857691D01*
X879691Y857273D01*
X880050Y856805D01*
X880345Y856295D01*
X880570Y855750D01*
X880723Y855180D01*
X880800Y854595D01*
X880800Y854005D01*
X880723Y853420D01*
X880570Y852850D01*
X880345Y852305D01*
X880050Y851795D01*
X879691Y851327D01*
X879273Y850909D01*
X878805Y850550D01*
X878295Y850255D01*
X877750Y850030D01*
X877180Y849877D01*
X876595Y849800D01*
X876005Y849800D01*
X875420Y849877D01*
X874850Y850030D01*
X874305Y850255D01*
X873795Y850550D01*
X873327Y850909D01*
X872909Y851327D01*
X872550Y851795D01*
X872255Y852305D01*
X872030Y852850D01*
X871877Y853420D01*
X871800Y854005D01*
X871800Y854595D01*
X871800Y898595D02*
X871877Y899180D01*
X872030Y899750D01*
X872255Y900295D01*
X872550Y900805D01*
X872909Y901273D01*
X873327Y901691D01*
X873795Y902050D01*
X874305Y902345D01*
X874850Y902570D01*
X875420Y902723D01*
X876005Y902800D01*
X876595Y902800D01*
X877180Y902723D01*
X877750Y902570D01*
X878295Y902345D01*
X878805Y902050D01*
X879273Y901691D01*
X879691Y901273D01*
X880050Y900805D01*
X880345Y900295D01*
X880570Y899750D01*
X880723Y899180D01*
X880800Y898595D01*
X880800Y898005D01*
X880723Y897420D01*
X880570Y896850D01*
X880345Y896305D01*
X880050Y895795D01*
X879691Y895327D01*
X879273Y894909D01*
X878805Y894550D01*
X878295Y894255D01*
X877750Y894030D01*
X877180Y893877D01*
X876595Y893800D01*
X876005Y893800D01*
X875420Y893877D01*
X874850Y894030D01*
X874305Y894255D01*
X873795Y894550D01*
X873327Y894909D01*
X872909Y895327D01*
X872550Y895795D01*
X872255Y896305D01*
X872030Y896850D01*
X871877Y897420D01*
X871800Y898005D01*
X871800Y898595D01*
M02*
