G04 EAGLE Gerber RS-274X export*
G75*
%MOMM*%
%FSLAX34Y34*%
%LPD*%
%INSoldermask Top*%
%IPPOS*%
%AMOC8*
5,1,8,0,0,1.08239X$1,22.5*%
G01*
%ADD10C,1.778000*%
%ADD11C,2.601600*%
%ADD12R,1.609600X1.609600*%
%ADD13C,1.609600*%
%ADD14R,1.701600X0.651600*%
%ADD15R,0.651600X1.701600*%
%ADD16P,1.759533X8X112.500000*%
%ADD17R,1.625600X1.625600*%
%ADD18P,1.539592X8X202.500000*%
%ADD19P,1.539592X8X22.500000*%
%ADD20P,1.539592X8X292.500000*%
%ADD21R,2.601600X2.101600*%
%ADD22R,3.401600X2.101600*%
%ADD23R,3.201600X0.601600*%
%ADD24C,1.001600*%
%ADD25P,1.842011X8X292.500000*%
%ADD26C,1.422400*%
%ADD27P,1.842011X8X22.500000*%
%ADD28C,1.524000*%
%ADD29P,1.842011X8X202.500000*%
%ADD30C,1.751600*%
%ADD31P,1.539592X8X112.500000*%
%ADD32C,1.625600*%

G36*
X27192Y954720D02*
X27192Y954720D01*
X27235Y954732D01*
X27301Y954739D01*
X28984Y955190D01*
X29025Y955209D01*
X29088Y955228D01*
X30668Y955965D01*
X30705Y955991D01*
X30764Y956020D01*
X32192Y957020D01*
X32223Y957052D01*
X32276Y957091D01*
X33509Y958324D01*
X33534Y958360D01*
X33580Y958408D01*
X34580Y959836D01*
X34598Y959877D01*
X34635Y959932D01*
X35372Y961512D01*
X35383Y961555D01*
X35410Y961616D01*
X35861Y963299D01*
X35863Y963331D01*
X35870Y963352D01*
X35870Y963367D01*
X35880Y963408D01*
X36032Y965145D01*
X36028Y965189D01*
X36032Y965255D01*
X35880Y966992D01*
X35868Y967035D01*
X35861Y967101D01*
X35410Y968784D01*
X35391Y968825D01*
X35372Y968888D01*
X34635Y970468D01*
X34609Y970505D01*
X34580Y970564D01*
X33580Y971992D01*
X33548Y972023D01*
X33509Y972076D01*
X32276Y973309D01*
X32240Y973334D01*
X32192Y973380D01*
X30764Y974380D01*
X30723Y974398D01*
X30668Y974435D01*
X29088Y975172D01*
X29045Y975183D01*
X28984Y975210D01*
X27301Y975661D01*
X27256Y975664D01*
X27192Y975680D01*
X25455Y975832D01*
X25411Y975828D01*
X25345Y975832D01*
X23608Y975680D01*
X23565Y975668D01*
X23499Y975661D01*
X21816Y975210D01*
X21775Y975191D01*
X21712Y975172D01*
X20132Y974435D01*
X20095Y974409D01*
X20036Y974380D01*
X18608Y973380D01*
X18577Y973348D01*
X18524Y973309D01*
X17291Y972076D01*
X17266Y972040D01*
X17220Y971992D01*
X16220Y970564D01*
X16202Y970523D01*
X16165Y970468D01*
X15428Y968888D01*
X15417Y968845D01*
X15390Y968784D01*
X14939Y967101D01*
X14936Y967056D01*
X14920Y966992D01*
X14768Y965255D01*
X14772Y965211D01*
X14768Y965145D01*
X14920Y963408D01*
X14932Y963365D01*
X14936Y963331D01*
X14936Y963315D01*
X14938Y963310D01*
X14939Y963299D01*
X15390Y961616D01*
X15409Y961575D01*
X15428Y961512D01*
X16165Y959932D01*
X16191Y959895D01*
X16220Y959836D01*
X17220Y958408D01*
X17252Y958377D01*
X17291Y958324D01*
X18524Y957091D01*
X18560Y957066D01*
X18608Y957020D01*
X20036Y956020D01*
X20077Y956002D01*
X20132Y955965D01*
X21712Y955228D01*
X21755Y955217D01*
X21816Y955190D01*
X23499Y954739D01*
X23544Y954736D01*
X23608Y954720D01*
X25345Y954568D01*
X25389Y954572D01*
X25455Y954568D01*
X27192Y954720D01*
G37*
G36*
X865392Y14920D02*
X865392Y14920D01*
X865435Y14932D01*
X865501Y14939D01*
X867184Y15390D01*
X867225Y15409D01*
X867288Y15428D01*
X868868Y16165D01*
X868905Y16191D01*
X868964Y16220D01*
X870392Y17220D01*
X870423Y17252D01*
X870476Y17291D01*
X871709Y18524D01*
X871734Y18560D01*
X871780Y18608D01*
X872780Y20036D01*
X872798Y20077D01*
X872835Y20132D01*
X873572Y21712D01*
X873583Y21755D01*
X873610Y21816D01*
X874061Y23499D01*
X874063Y23531D01*
X874070Y23552D01*
X874070Y23567D01*
X874080Y23608D01*
X874232Y25345D01*
X874228Y25389D01*
X874232Y25455D01*
X874080Y27192D01*
X874068Y27235D01*
X874061Y27301D01*
X873610Y28984D01*
X873591Y29025D01*
X873572Y29088D01*
X872835Y30668D01*
X872809Y30705D01*
X872780Y30764D01*
X871780Y32192D01*
X871748Y32223D01*
X871709Y32276D01*
X870476Y33509D01*
X870440Y33534D01*
X870392Y33580D01*
X868964Y34580D01*
X868923Y34598D01*
X868868Y34635D01*
X867288Y35372D01*
X867245Y35383D01*
X867184Y35410D01*
X865501Y35861D01*
X865456Y35864D01*
X865392Y35880D01*
X863655Y36032D01*
X863611Y36028D01*
X863545Y36032D01*
X861808Y35880D01*
X861765Y35868D01*
X861699Y35861D01*
X860016Y35410D01*
X859975Y35391D01*
X859912Y35372D01*
X858332Y34635D01*
X858295Y34609D01*
X858236Y34580D01*
X856808Y33580D01*
X856777Y33548D01*
X856724Y33509D01*
X855491Y32276D01*
X855466Y32240D01*
X855420Y32192D01*
X854420Y30764D01*
X854402Y30723D01*
X854365Y30668D01*
X853628Y29088D01*
X853617Y29045D01*
X853590Y28984D01*
X853139Y27301D01*
X853136Y27256D01*
X853120Y27192D01*
X852968Y25455D01*
X852972Y25411D01*
X852968Y25345D01*
X853120Y23608D01*
X853132Y23565D01*
X853136Y23531D01*
X853136Y23515D01*
X853138Y23510D01*
X853139Y23499D01*
X853590Y21816D01*
X853609Y21775D01*
X853628Y21712D01*
X854365Y20132D01*
X854391Y20095D01*
X854420Y20036D01*
X855420Y18608D01*
X855452Y18577D01*
X855491Y18524D01*
X856724Y17291D01*
X856760Y17266D01*
X856808Y17220D01*
X858236Y16220D01*
X858277Y16202D01*
X858332Y16165D01*
X859912Y15428D01*
X859955Y15417D01*
X860016Y15390D01*
X861699Y14939D01*
X861744Y14936D01*
X861808Y14920D01*
X863545Y14768D01*
X863589Y14772D01*
X863655Y14768D01*
X865392Y14920D01*
G37*
G36*
X27192Y14920D02*
X27192Y14920D01*
X27235Y14932D01*
X27301Y14939D01*
X28984Y15390D01*
X29025Y15409D01*
X29088Y15428D01*
X30668Y16165D01*
X30705Y16191D01*
X30764Y16220D01*
X32192Y17220D01*
X32223Y17252D01*
X32276Y17291D01*
X33509Y18524D01*
X33534Y18560D01*
X33580Y18608D01*
X34580Y20036D01*
X34598Y20077D01*
X34635Y20132D01*
X35372Y21712D01*
X35383Y21755D01*
X35410Y21816D01*
X35861Y23499D01*
X35863Y23531D01*
X35870Y23552D01*
X35870Y23567D01*
X35880Y23608D01*
X36032Y25345D01*
X36028Y25389D01*
X36032Y25455D01*
X35880Y27192D01*
X35868Y27235D01*
X35861Y27301D01*
X35410Y28984D01*
X35391Y29025D01*
X35372Y29088D01*
X34635Y30668D01*
X34609Y30705D01*
X34580Y30764D01*
X33580Y32192D01*
X33548Y32223D01*
X33509Y32276D01*
X32276Y33509D01*
X32240Y33534D01*
X32192Y33580D01*
X30764Y34580D01*
X30723Y34598D01*
X30668Y34635D01*
X29088Y35372D01*
X29045Y35383D01*
X28984Y35410D01*
X27301Y35861D01*
X27256Y35864D01*
X27192Y35880D01*
X25455Y36032D01*
X25411Y36028D01*
X25345Y36032D01*
X23608Y35880D01*
X23565Y35868D01*
X23499Y35861D01*
X21816Y35410D01*
X21775Y35391D01*
X21712Y35372D01*
X20132Y34635D01*
X20095Y34609D01*
X20036Y34580D01*
X18608Y33580D01*
X18577Y33548D01*
X18524Y33509D01*
X17291Y32276D01*
X17266Y32240D01*
X17220Y32192D01*
X16220Y30764D01*
X16202Y30723D01*
X16165Y30668D01*
X15428Y29088D01*
X15417Y29045D01*
X15390Y28984D01*
X14939Y27301D01*
X14936Y27256D01*
X14920Y27192D01*
X14768Y25455D01*
X14772Y25411D01*
X14768Y25345D01*
X14920Y23608D01*
X14932Y23565D01*
X14936Y23531D01*
X14936Y23515D01*
X14938Y23510D01*
X14939Y23499D01*
X15390Y21816D01*
X15409Y21775D01*
X15428Y21712D01*
X16165Y20132D01*
X16191Y20095D01*
X16220Y20036D01*
X17220Y18608D01*
X17252Y18577D01*
X17291Y18524D01*
X18524Y17291D01*
X18560Y17266D01*
X18608Y17220D01*
X20036Y16220D01*
X20077Y16202D01*
X20132Y16165D01*
X21712Y15428D01*
X21755Y15417D01*
X21816Y15390D01*
X23499Y14939D01*
X23544Y14936D01*
X23608Y14920D01*
X25345Y14768D01*
X25389Y14772D01*
X25455Y14768D01*
X27192Y14920D01*
G37*
D10*
X124500Y345500D03*
X149900Y345500D03*
X175300Y345500D03*
X200700Y345500D03*
X226100Y345500D03*
X251500Y345500D03*
X276900Y345500D03*
X302300Y345500D03*
X327700Y345500D03*
X353100Y345500D03*
X378500Y345500D03*
X403900Y345500D03*
X429300Y345500D03*
X454700Y345500D03*
X480100Y345500D03*
X505500Y345500D03*
D11*
X69500Y35500D03*
X819500Y35500D03*
X69500Y345500D03*
X819500Y345500D03*
D12*
X114300Y419100D03*
D13*
X139700Y419100D03*
X165100Y419100D03*
X190500Y419100D03*
X215900Y419100D03*
X241300Y419100D03*
X266700Y419100D03*
X292100Y419100D03*
X317500Y419100D03*
X342900Y419100D03*
X368300Y419100D03*
X393700Y419100D03*
X419100Y419100D03*
X444500Y419100D03*
X469900Y419100D03*
X495300Y419100D03*
D12*
X495300Y533400D03*
D13*
X495300Y508000D03*
X495300Y482600D03*
X495300Y457200D03*
D14*
X631300Y536000D03*
X631300Y528000D03*
X631300Y520000D03*
X631300Y512000D03*
X631300Y504000D03*
X631300Y496000D03*
X631300Y488000D03*
X631300Y480000D03*
D15*
X645100Y466200D03*
X653100Y466200D03*
X661100Y466200D03*
X669100Y466200D03*
X677100Y466200D03*
X685100Y466200D03*
X693100Y466200D03*
X701100Y466200D03*
D14*
X714900Y480000D03*
X714900Y488000D03*
X714900Y496000D03*
X714900Y504000D03*
X714900Y512000D03*
X714900Y520000D03*
X714900Y528000D03*
X714900Y536000D03*
D15*
X701100Y549800D03*
X693100Y549800D03*
X685100Y549800D03*
X677100Y549800D03*
X669100Y549800D03*
X661100Y549800D03*
X653100Y549800D03*
X645100Y549800D03*
D16*
X825500Y457200D03*
X825500Y482600D03*
X825500Y508000D03*
D17*
X850900Y457200D03*
D16*
X850900Y482600D03*
X850900Y508000D03*
D18*
X457200Y965200D03*
X406400Y965200D03*
D19*
X63500Y965200D03*
X114300Y965200D03*
D20*
X368300Y711200D03*
X368300Y660400D03*
X127000Y711200D03*
X127000Y660400D03*
D18*
X228600Y965200D03*
X177800Y965200D03*
X571500Y965200D03*
X520700Y965200D03*
D19*
X292100Y965200D03*
X342900Y965200D03*
D18*
X685800Y965200D03*
X635000Y965200D03*
D21*
X919000Y958900D03*
X919000Y869900D03*
D22*
X860000Y958900D03*
X860000Y869900D03*
D23*
X859000Y898400D03*
X859000Y906400D03*
X859000Y914400D03*
X859000Y922400D03*
X859000Y930400D03*
D24*
X889000Y892400D03*
X889000Y936400D03*
D25*
X533400Y520700D03*
X533400Y495300D03*
D18*
X609600Y406400D03*
X584200Y406400D03*
X558800Y406400D03*
X533400Y406400D03*
D26*
X722630Y406400D03*
X674370Y406400D03*
D27*
X584200Y609600D03*
X736600Y609600D03*
D28*
X818388Y584200D02*
X832612Y584200D01*
X832612Y558800D02*
X818388Y558800D01*
X818388Y533400D02*
X832612Y533400D01*
D29*
X812800Y711200D03*
X736600Y711200D03*
X800100Y546100D03*
X596900Y546100D03*
D30*
X817250Y812800D02*
X833750Y812800D01*
X833750Y787400D02*
X817250Y787400D01*
X817250Y762000D02*
X833750Y762000D01*
D10*
X876300Y812800D03*
X876300Y762000D03*
D25*
X800100Y469900D03*
X800100Y419100D03*
D31*
X736600Y635000D03*
X736600Y685800D03*
D32*
X64008Y848106D02*
X48768Y848106D01*
X48768Y802894D02*
X64008Y802894D01*
X113792Y848106D02*
X129032Y848106D01*
X129032Y802894D02*
X113792Y802894D01*
X163068Y848106D02*
X178308Y848106D01*
X178308Y802894D02*
X163068Y802894D01*
X228092Y848106D02*
X243332Y848106D01*
X243332Y802894D02*
X228092Y802894D01*
X277368Y848106D02*
X292608Y848106D01*
X292608Y802894D02*
X277368Y802894D01*
X342392Y848106D02*
X357632Y848106D01*
X357632Y802894D02*
X342392Y802894D01*
X620268Y848106D02*
X635508Y848106D01*
X635508Y802894D02*
X620268Y802894D01*
X685292Y848106D02*
X700532Y848106D01*
X700532Y802894D02*
X685292Y802894D01*
X521208Y848106D02*
X505968Y848106D01*
X505968Y802894D02*
X521208Y802894D01*
X570992Y848106D02*
X586232Y848106D01*
X586232Y802894D02*
X570992Y802894D01*
X244094Y660908D02*
X244094Y645668D01*
X289306Y645668D02*
X289306Y660908D01*
X244094Y710692D02*
X244094Y725932D01*
X289306Y725932D02*
X289306Y710692D01*
X391668Y848106D02*
X406908Y848106D01*
X406908Y802894D02*
X391668Y802894D01*
X456692Y848106D02*
X471932Y848106D01*
X471932Y802894D02*
X456692Y802894D01*
X485394Y660908D02*
X485394Y645668D01*
X530606Y645668D02*
X530606Y660908D01*
X485394Y710692D02*
X485394Y725932D01*
X530606Y725932D02*
X530606Y710692D01*
D19*
X76200Y901700D03*
X101600Y901700D03*
X190500Y901700D03*
X215900Y901700D03*
X304800Y901700D03*
X330200Y901700D03*
X647700Y901700D03*
X673100Y901700D03*
X533400Y901700D03*
X558800Y901700D03*
D31*
X431800Y673100D03*
X431800Y698500D03*
X190500Y673100D03*
X190500Y698500D03*
D19*
X419100Y901700D03*
X444500Y901700D03*
M02*
