G04 EAGLE Gerber RS-274X export*
G75*
%MOMM*%
%FSLAX34Y34*%
%LPD*%
%INSoldermask Bottom*%
%IPPOS*%
%AMOC8*
5,1,8,0,0,1.08239X$1,22.5*%
G01*
%ADD10C,0.553200*%
%ADD11R,1.703200X1.703200*%
%ADD12C,1.303200*%
%ADD13C,1.879600*%
%ADD14C,2.703200*%
%ADD15R,1.711200X1.711200*%
%ADD16C,1.711200*%
%ADD17P,1.869504X8X112.500000*%
%ADD18R,1.727200X1.727200*%
%ADD19P,1.649562X8X292.500000*%
%ADD20P,1.649562X8X112.500000*%
%ADD21C,1.103200*%
%ADD22P,1.951982X8X112.500000*%
%ADD23P,1.951982X8X292.500000*%
%ADD24P,1.649562X8X202.500000*%
%ADD25C,1.524000*%
%ADD26P,1.951982X8X22.500000*%
%ADD27C,1.625600*%
%ADD28P,1.951982X8X202.500000*%
%ADD29C,1.853200*%
%ADD30C,0.959600*%


D10*
X25400Y1104900D03*
X850900Y1104900D03*
X101600Y876300D03*
D11*
X266700Y825500D03*
X266700Y774700D03*
X342900Y774700D03*
X342900Y825500D03*
X266700Y723900D03*
X342900Y723900D03*
D12*
X266700Y698500D03*
X342900Y850900D03*
D11*
X266700Y1041400D03*
X266700Y990600D03*
X342900Y990600D03*
X342900Y1041400D03*
X266700Y939800D03*
X342900Y939800D03*
D12*
X266700Y914400D03*
X342900Y1066800D03*
D11*
X457200Y1041400D03*
X457200Y990600D03*
X533400Y990600D03*
X533400Y1041400D03*
X457200Y939800D03*
X533400Y939800D03*
D12*
X457200Y914400D03*
X533400Y1066800D03*
D11*
X457200Y825500D03*
X457200Y774700D03*
X533400Y774700D03*
X533400Y825500D03*
X457200Y723900D03*
X533400Y723900D03*
D12*
X457200Y698500D03*
X533400Y850900D03*
D11*
X635000Y1041400D03*
X635000Y990600D03*
X711200Y990600D03*
X711200Y1041400D03*
X635000Y939800D03*
X711200Y939800D03*
D12*
X635000Y914400D03*
X711200Y1066800D03*
D11*
X635000Y825500D03*
X635000Y774700D03*
X711200Y774700D03*
X711200Y825500D03*
X635000Y723900D03*
X711200Y723900D03*
D12*
X635000Y698500D03*
X711200Y850900D03*
D11*
X76200Y1041400D03*
X76200Y990600D03*
X152400Y990600D03*
X152400Y1041400D03*
X76200Y939800D03*
X152400Y939800D03*
D12*
X76200Y914400D03*
X152400Y1066800D03*
D11*
X76200Y825500D03*
X76200Y774700D03*
X152400Y774700D03*
X152400Y825500D03*
X76200Y723900D03*
X152400Y723900D03*
D12*
X76200Y698500D03*
X152400Y850900D03*
D13*
X111800Y345500D03*
X137200Y345500D03*
X162600Y345500D03*
X188000Y345500D03*
X213400Y345500D03*
X238800Y345500D03*
X264200Y345500D03*
X289600Y345500D03*
X315000Y345500D03*
X340400Y345500D03*
X365800Y345500D03*
X391200Y345500D03*
X416600Y345500D03*
X442000Y345500D03*
X467400Y345500D03*
X492800Y345500D03*
D14*
X56800Y35500D03*
X806800Y35500D03*
X56800Y345500D03*
X806800Y345500D03*
D15*
X76200Y419100D03*
D16*
X101600Y419100D03*
X127000Y419100D03*
X152400Y419100D03*
X177800Y419100D03*
X203200Y419100D03*
X228600Y419100D03*
X254000Y419100D03*
X279400Y419100D03*
X304800Y419100D03*
X330200Y419100D03*
X355600Y419100D03*
X381000Y419100D03*
X406400Y419100D03*
X431800Y419100D03*
X457200Y419100D03*
D15*
X457200Y533400D03*
D16*
X457200Y508000D03*
X457200Y482600D03*
X457200Y457200D03*
D17*
X825500Y457200D03*
X825500Y482600D03*
X825500Y508000D03*
D18*
X850900Y457200D03*
D17*
X850900Y482600D03*
X850900Y508000D03*
D19*
X393700Y825500D03*
X393700Y774700D03*
D20*
X203200Y990600D03*
X203200Y1041400D03*
D19*
X584200Y825500D03*
X584200Y774700D03*
X584200Y1041400D03*
X584200Y990600D03*
X203200Y825500D03*
X203200Y774700D03*
X774700Y1041400D03*
X774700Y990600D03*
D20*
X393700Y990600D03*
X393700Y1041400D03*
D19*
X762000Y825500D03*
X762000Y774700D03*
D21*
X876300Y854300D03*
X876300Y898300D03*
D22*
X546100Y457200D03*
X546100Y482600D03*
D23*
X495300Y520700D03*
X495300Y495300D03*
D24*
X635000Y406400D03*
X609600Y406400D03*
X558800Y406400D03*
X533400Y406400D03*
D25*
X748030Y393700D03*
X699770Y393700D03*
D26*
X584200Y622300D03*
X736600Y622300D03*
D27*
X792988Y571500D02*
X807212Y571500D01*
X807212Y546100D02*
X792988Y546100D01*
X792988Y520700D02*
X807212Y520700D01*
D28*
X812800Y647700D03*
X736600Y647700D03*
X762000Y546100D03*
X558800Y546100D03*
D29*
X791850Y774700D02*
X808350Y774700D01*
X808350Y749300D02*
X791850Y749300D01*
X791850Y723900D02*
X808350Y723900D01*
D13*
X850900Y774700D03*
X850900Y723900D03*
D23*
X800100Y469900D03*
X800100Y419100D03*
D30*
X406400Y990600D03*
X596900Y990600D03*
X660400Y609600D03*
X711200Y609600D03*
X711200Y596900D03*
X711200Y584200D03*
X723900Y596900D03*
X723900Y584200D03*
X571500Y495300D03*
X546100Y508000D03*
X571500Y431800D03*
X622300Y431800D03*
X711200Y444500D03*
X723900Y457200D03*
M02*
